<?xml version="1.0" encoding="UTF-8"?>
<svg version="1.1" xmlns="http://www.w3.org/2000/svg" width="512" height="512">
<path d="M0 0 C1.109517 -0.00445784 2.219034 -0.00891569 3.36217272 -0.01350862 C5.19044622 -0.01323207 5.19044622 -0.01323207 7.05565453 -0.01294994 C8.99805206 -0.01846498 8.99805206 -0.01846498 10.97968996 -0.02409142 C14.57704845 -0.0341034 18.17439025 -0.03782692 21.7717607 -0.04048073 C25.65058904 -0.04438617 29.52940419 -0.05396434 33.40822411 -0.0626936 C42.7770947 -0.08245125 52.14596636 -0.09252333 61.51485258 -0.10142139 C65.92770906 -0.10580543 70.34056434 -0.11117194 74.75341988 -0.11641026 C89.42426937 -0.13342184 104.09511811 -0.1479158 118.76597595 -0.155159 C122.5726897 -0.15706886 126.37940345 -0.1589892 130.18611717 -0.16094494 C131.13224756 -0.16142868 132.07837795 -0.16191242 133.05317895 -0.16241082 C148.37834061 -0.17071034 163.7034242 -0.19604625 179.02855177 -0.22852562 C194.76528095 -0.2616052 210.50197047 -0.27960857 226.2387346 -0.28280324 C235.07323064 -0.2849675 243.90761283 -0.2937039 252.74207497 -0.31926441 C260.26623808 -0.34098369 267.79025967 -0.3490158 275.31445058 -0.33929763 C279.1516828 -0.33475646 282.98862312 -0.33662818 286.8258152 -0.35605907 C290.99117473 -0.37696907 295.15588844 -0.36669419 299.32127953 -0.35352612 C300.52674419 -0.36449536 301.73220886 -0.37546461 302.97420275 -0.38676625 C311.50042527 -0.32174228 318.94371606 1.17120037 325.88191795 6.38422108 C335.29708637 16.01834689 335.86990606 26.08899331 335.76473045 39.04047108 C335.76099339 40.37424983 335.7581497 41.70803135 335.75615501 43.04181385 C335.74857302 46.52704109 335.72897231 50.01209768 335.70674706 53.49725819 C335.68617052 57.06372235 335.67712822 60.63021448 335.6670742 64.19672108 C335.6457204 71.17595718 335.61165135 78.1550809 335.56941795 85.13422108 C336.51148094 85.11327381 337.45354393 85.09232655 338.42415428 85.07074451 C341.97096909 85.00194619 345.5170593 84.95212294 349.064291 84.91449451 C350.58979655 84.89456797 352.11522764 84.86741623 353.64046288 84.83246326 C366.1512815 84.55325891 376.56994909 85.75966655 386.49910545 94.08734608 C394.59640382 102.09297692 398.85451555 111.1949221 398.98711205 122.56680775 C398.9826104 123.46481098 398.97810875 124.36281422 398.97347069 125.28802967 C398.98376556 126.7458083 398.98376556 126.7458083 398.99426842 128.23303699 C399.01243767 131.41639645 399.00871584 134.59925889 399.0030117 137.78265858 C399.00757552 140.00463489 399.01288169 142.22660979 399.0188961 144.44858265 C399.02780568 149.09011059 399.02542534 153.73146623 399.01546288 158.37299061 C399.00392664 164.328547 399.02426693 170.28351457 399.05338001 176.23899364 C399.07168872 180.81997938 399.07146105 185.40082225 399.06574249 189.98183537 C399.06558889 192.17874069 399.07166538 194.37565546 399.08403397 196.57252598 C399.09885566 199.63432636 399.08833489 202.69501493 399.07112694 205.75677967 C399.08079491 206.66692829 399.09046288 207.57707691 399.10042381 208.51480579 C399.02810453 214.63717196 399.02810453 214.63717196 396.66397667 217.19902515 C394.39812839 218.21069986 392.93128689 218.48335446 390.46004295 218.42718983 C389.70594139 218.41752186 388.95183983 218.40785389 388.1748867 218.39789295 C387.39758202 218.37275623 386.62027733 218.34761951 385.81941795 218.32172108 C385.02664452 218.30818592 384.23387108 218.29465076 383.4170742 218.28070545 C381.46756231 218.24547331 379.51840169 218.19166929 377.56941795 218.13422108 C377.89941795 219.12422108 378.22941795 220.11422108 378.56941795 221.13422108 C379.00537535 225.60347733 379.17520643 230.08677787 379.38191795 234.57172108 C379.45861717 235.81244373 379.53531639 237.05316639 379.61433983 238.3314867 C379.66783592 239.52322498 379.72133202 240.71496326 379.7764492 241.94281483 C379.83292625 243.03392567 379.88940331 244.12503651 379.94759178 245.24921131 C379.56941795 248.13422108 379.56941795 248.13422108 377.9002285 250.49237537 C375.05402935 252.49726584 373.526949 252.6247846 370.06941795 252.59515858 C368.49160545 252.5893578 368.49160545 252.5893578 366.88191795 252.58343983 C365.78879295 252.55894764 364.69566795 252.53445545 363.56941795 252.50922108 C362.47629295 252.50793201 361.38316795 252.50664295 360.25691795 252.50531483 C350.46934125 252.39736361 350.46934125 252.39736361 347.56941795 250.13422108 C346.38094139 247.18500233 346.38094139 247.18500233 345.42879295 243.44672108 C345.25688438 242.78841297 345.08497581 242.13010487 344.90785789 241.45184803 C344.36309874 239.34955737 343.84138426 237.24227286 343.31941795 235.13422108 C342.95366455 233.71457999 342.58649311 232.29530344 342.21785545 230.87640858 C339.56941795 220.57804831 339.56941795 220.57804831 339.56941795 218.13422108 C216.80941795 218.13422108 94.04941795 218.13422108 -32.43058205 218.13422108 C-33.75058205 223.74422108 -35.07058205 229.35422108 -36.43058205 235.13422108 C-40.11479257 248.50264213 -40.11479257 248.50264213 -41.43058205 251.13422108 C-46.29333016 252.75513711 -51.27547711 252.40202296 -56.36808205 252.44672108 C-57.46571877 252.47572498 -58.56335548 252.50472889 -59.69425392 252.5346117 C-61.278834 252.54718006 -61.278834 252.54718006 -62.8954258 252.56000233 C-64.34356667 252.58187611 -64.34356667 252.58187611 -65.82096291 252.60419178 C-69.27412067 251.98230679 -70.41551047 250.98743022 -72.43058205 248.13422108 C-72.80875587 245.24921131 -72.80875587 245.24921131 -72.6376133 241.94281483 C-72.5841172 240.75107655 -72.53062111 239.55933826 -72.47550392 238.3314867 C-72.36045509 236.47040272 -72.36045509 236.47040272 -72.24308205 234.57172108 C-72.18571877 233.32713123 -72.12835548 232.08254139 -72.06925392 230.8002367 C-71.60959193 221.67125073 -71.60959193 221.67125073 -70.43058205 218.13422108 C-71.62296486 218.14582264 -72.81534767 218.1574242 -74.0438633 218.16937733 C-75.61026798 218.178757 -77.17667436 218.18785701 -78.74308205 218.19672108 C-79.52876564 218.20509998 -80.31444923 218.21347889 -81.12394142 218.2221117 C-81.88126564 218.22533436 -82.63858986 218.22855701 -83.4188633 218.23187733 C-84.11535988 218.23711414 -84.81185646 218.24235096 -85.529459 218.24774647 C-87.43058205 218.13422108 -87.43058205 218.13422108 -90.43058205 217.13422108 C-92.15585371 213.68367776 -91.59636665 209.70081771 -91.607584 205.90204334 C-91.6141552 204.94406345 -91.62072639 203.98608356 -91.62749672 202.99907398 C-91.64726715 199.81625767 -91.65890449 196.63348877 -91.6688633 193.45062733 C-91.67293882 192.36293489 -91.67701435 191.27524246 -91.68121338 190.15458965 C-91.70209625 184.39072197 -91.71638486 178.62687821 -91.72574806 172.86298084 C-91.7367796 166.9248784 -91.77113565 160.9871541 -91.81091976 155.0491848 C-91.83715114 150.47218122 -91.84544601 145.89526651 -91.84902954 141.31819439 C-91.85388352 139.13067495 -91.86546335 136.94315917 -91.88406754 134.75571346 C-91.99709701 120.57741562 -92.02809464 108.59183225 -82.47745705 97.20453358 C-74.81352205 89.45284359 -66.45229706 85.0894856 -55.51151466 84.85352039 C-51.79581467 84.83259655 -48.08315813 84.88359218 -44.36808205 84.94672108 C-42.81926694 84.96179589 -41.27043764 84.97547934 -39.72159767 84.9877367 C-35.95757027 85.02051969 -32.19423567 85.0721461 -28.43058205 85.13422108 C-28.43724388 84.40474262 -28.44390572 83.67526417 -28.45076942 82.92368031 C-28.51116818 76.01025821 -28.55670157 69.09687614 -28.58601856 62.1832571 C-28.60159807 58.62984957 -28.62269276 55.07666214 -28.65690041 51.52338123 C-28.69607981 47.42749526 -28.71035489 43.33183633 -28.7235508 39.23578358 C-28.73903465 37.97496967 -28.75451851 36.71415577 -28.77047157 35.41513538 C-28.77246485 24.85472849 -27.33877795 16.35941892 -20.4657383 8.11468983 C-14.62450403 2.43041771 -8.02565832 0.01496707 0 0 Z " fill="#48BCFE" transform="translate(102.43058204650879,228.86577892303467)"/>
<path d="M0 0 C1.109517 -0.00445784 2.219034 -0.00891569 3.36217272 -0.01350862 C5.19044622 -0.01323207 5.19044622 -0.01323207 7.05565453 -0.01294994 C8.99805206 -0.01846498 8.99805206 -0.01846498 10.97968996 -0.02409142 C14.57704845 -0.0341034 18.17439025 -0.03782692 21.7717607 -0.04048073 C25.65058904 -0.04438617 29.52940419 -0.05396434 33.40822411 -0.0626936 C42.7770947 -0.08245125 52.14596636 -0.09252333 61.51485258 -0.10142139 C65.92770906 -0.10580543 70.34056434 -0.11117194 74.75341988 -0.11641026 C89.42426937 -0.13342184 104.09511811 -0.1479158 118.76597595 -0.155159 C122.5726897 -0.15706886 126.37940345 -0.1589892 130.18611717 -0.16094494 C131.13224756 -0.16142868 132.07837795 -0.16191242 133.05317895 -0.16241082 C148.37834061 -0.17071034 163.7034242 -0.19604625 179.02855177 -0.22852562 C194.76528095 -0.2616052 210.50197047 -0.27960857 226.2387346 -0.28280324 C235.07323064 -0.2849675 243.90761283 -0.2937039 252.74207497 -0.31926441 C260.26623808 -0.34098369 267.79025967 -0.3490158 275.31445058 -0.33929763 C279.1516828 -0.33475646 282.98862312 -0.33662818 286.8258152 -0.35605907 C290.99117473 -0.37696907 295.15588844 -0.36669419 299.32127953 -0.35352612 C300.52674419 -0.36449536 301.73220886 -0.37546461 302.97420275 -0.38676625 C311.50042527 -0.32174228 318.94371606 1.17120037 325.88191795 6.38422108 C335.29708637 16.01834689 335.86990606 26.08899331 335.76473045 39.04047108 C335.76099339 40.37424983 335.7581497 41.70803135 335.75615501 43.04181385 C335.74857302 46.52704109 335.72897231 50.01209768 335.70674706 53.49725819 C335.68617052 57.06372235 335.67712822 60.63021448 335.6670742 64.19672108 C335.6457204 71.17595718 335.61165135 78.1550809 335.56941795 85.13422108 C336.51148094 85.11327381 337.45354393 85.09232655 338.42415428 85.07074451 C341.97096909 85.00194619 345.5170593 84.95212294 349.064291 84.91449451 C350.58979655 84.89456797 352.11522764 84.86741623 353.64046288 84.83246326 C366.1512815 84.55325891 376.56994909 85.75966655 386.49910545 94.08734608 C394.59640382 102.09297692 398.85451555 111.1949221 398.98711205 122.56680775 C398.9826104 123.46481098 398.97810875 124.36281422 398.97347069 125.28802967 C398.98376556 126.7458083 398.98376556 126.7458083 398.99426842 128.23303699 C399.01243767 131.41639645 399.00871584 134.59925889 399.0030117 137.78265858 C399.00757552 140.00463489 399.01288169 142.22660979 399.0188961 144.44858265 C399.02780568 149.09011059 399.02542534 153.73146623 399.01546288 158.37299061 C399.00392664 164.328547 399.02426693 170.28351457 399.05338001 176.23899364 C399.07168872 180.81997938 399.07146105 185.40082225 399.06574249 189.98183537 C399.06558889 192.17874069 399.07166538 194.37565546 399.08403397 196.57252598 C399.09885566 199.63432636 399.08833489 202.69501493 399.07112694 205.75677967 C399.08079491 206.66692829 399.09046288 207.57707691 399.10042381 208.51480579 C399.02810453 214.63717196 399.02810453 214.63717196 396.66397667 217.19902515 C394.39812839 218.21069986 392.93128689 218.48335446 390.46004295 218.42718983 C389.70594139 218.41752186 388.95183983 218.40785389 388.1748867 218.39789295 C387.39758202 218.37275623 386.62027733 218.34761951 385.81941795 218.32172108 C385.02664452 218.30818592 384.23387108 218.29465076 383.4170742 218.28070545 C381.46756231 218.24547331 379.51840169 218.19166929 377.56941795 218.13422108 C377.89941795 219.12422108 378.22941795 220.11422108 378.56941795 221.13422108 C379.00537535 225.60347733 379.17520643 230.08677787 379.38191795 234.57172108 C379.45861717 235.81244373 379.53531639 237.05316639 379.61433983 238.3314867 C379.66783592 239.52322498 379.72133202 240.71496326 379.7764492 241.94281483 C379.83292625 243.03392567 379.88940331 244.12503651 379.94759178 245.24921131 C379.56941795 248.13422108 379.56941795 248.13422108 377.9002285 250.49237537 C375.05402935 252.49726584 373.526949 252.6247846 370.06941795 252.59515858 C368.49160545 252.5893578 368.49160545 252.5893578 366.88191795 252.58343983 C365.78879295 252.55894764 364.69566795 252.53445545 363.56941795 252.50922108 C362.47629295 252.50793201 361.38316795 252.50664295 360.25691795 252.50531483 C350.46934125 252.39736361 350.46934125 252.39736361 347.56941795 250.13422108 C346.38094139 247.18500233 346.38094139 247.18500233 345.42879295 243.44672108 C345.25688438 242.78841297 345.08497581 242.13010487 344.90785789 241.45184803 C344.36309874 239.34955737 343.84138426 237.24227286 343.31941795 235.13422108 C342.95366455 233.71457999 342.58649311 232.29530344 342.21785545 230.87640858 C339.56941795 220.57804831 339.56941795 220.57804831 339.56941795 218.13422108 C216.80941795 218.13422108 94.04941795 218.13422108 -32.43058205 218.13422108 C-33.75058205 223.74422108 -35.07058205 229.35422108 -36.43058205 235.13422108 C-40.11479257 248.50264213 -40.11479257 248.50264213 -41.43058205 251.13422108 C-46.29333016 252.75513711 -51.27547711 252.40202296 -56.36808205 252.44672108 C-57.46571877 252.47572498 -58.56335548 252.50472889 -59.69425392 252.5346117 C-61.278834 252.54718006 -61.278834 252.54718006 -62.8954258 252.56000233 C-64.34356667 252.58187611 -64.34356667 252.58187611 -65.82096291 252.60419178 C-69.27412067 251.98230679 -70.41551047 250.98743022 -72.43058205 248.13422108 C-72.80875587 245.24921131 -72.80875587 245.24921131 -72.6376133 241.94281483 C-72.5841172 240.75107655 -72.53062111 239.55933826 -72.47550392 238.3314867 C-72.36045509 236.47040272 -72.36045509 236.47040272 -72.24308205 234.57172108 C-72.18571877 233.32713123 -72.12835548 232.08254139 -72.06925392 230.8002367 C-71.60959193 221.67125073 -71.60959193 221.67125073 -70.43058205 218.13422108 C-71.62296486 218.14582264 -72.81534767 218.1574242 -74.0438633 218.16937733 C-75.61026798 218.178757 -77.17667436 218.18785701 -78.74308205 218.19672108 C-79.52876564 218.20509998 -80.31444923 218.21347889 -81.12394142 218.2221117 C-81.88126564 218.22533436 -82.63858986 218.22855701 -83.4188633 218.23187733 C-84.11535988 218.23711414 -84.81185646 218.24235096 -85.529459 218.24774647 C-87.43058205 218.13422108 -87.43058205 218.13422108 -90.43058205 217.13422108 C-92.15585371 213.68367776 -91.59636665 209.70081771 -91.607584 205.90204334 C-91.6141552 204.94406345 -91.62072639 203.98608356 -91.62749672 202.99907398 C-91.64726715 199.81625767 -91.65890449 196.63348877 -91.6688633 193.45062733 C-91.67293882 192.36293489 -91.67701435 191.27524246 -91.68121338 190.15458965 C-91.70209625 184.39072197 -91.71638486 178.62687821 -91.72574806 172.86298084 C-91.7367796 166.9248784 -91.77113565 160.9871541 -91.81091976 155.0491848 C-91.83715114 150.47218122 -91.84544601 145.89526651 -91.84902954 141.31819439 C-91.85388352 139.13067495 -91.86546335 136.94315917 -91.88406754 134.75571346 C-91.99709701 120.57741562 -92.02809464 108.59183225 -82.47745705 97.20453358 C-74.81352205 89.45284359 -66.45229706 85.0894856 -55.51151466 84.85352039 C-51.79581467 84.83259655 -48.08315813 84.88359218 -44.36808205 84.94672108 C-42.81926694 84.96179589 -41.27043764 84.97547934 -39.72159767 84.9877367 C-35.95757027 85.02051969 -32.19423567 85.0721461 -28.43058205 85.13422108 C-28.43724388 84.40474262 -28.44390572 83.67526417 -28.45076942 82.92368031 C-28.51116818 76.01025821 -28.55670157 69.09687614 -28.58601856 62.1832571 C-28.60159807 58.62984957 -28.62269276 55.07666214 -28.65690041 51.52338123 C-28.69607981 47.42749526 -28.71035489 43.33183633 -28.7235508 39.23578358 C-28.73903465 37.97496967 -28.75451851 36.71415577 -28.77047157 35.41513538 C-28.77246485 24.85472849 -27.33877795 16.35941892 -20.4657383 8.11468983 C-14.62450403 2.43041771 -8.02565832 0.01496707 0 0 Z M-41.43058205 104.13422108 C-64.93826733 130.56351161 -53.43058205 180.55930645 -53.43058205 207.13422108 C92.42941795 207.13422108 238.28941795 207.13422108 388.56941795 207.13422108 C396.13213865 159.04530493 396.13213865 159.04530493 381.06941795 104.25922108 C379.83191795 103.20734608 379.83191795 103.20734608 378.56941795 102.13422108 C377.80629295 101.43297108 377.04316795 100.73172108 376.25691795 100.00922108 C368.05007793 94.28351874 359.58200062 94.71033603 349.98265648 94.75999928 C348.38657853 94.7572569 346.79050239 94.75320329 345.19443071 94.74795562 C340.81933135 94.73738578 336.44443681 94.74548678 332.06934643 94.75670612 C327.34667966 94.7655572 322.62403942 94.75710192 317.90137291 94.750844 C308.65336667 94.74135883 299.4054385 94.74795367 290.15743805 94.76010694 C279.38523877 94.77373519 268.61305802 94.77208831 257.84085231 94.76997361 C238.61754567 94.76678405 219.3942761 94.77844892 200.17098045 94.79803944 C181.52350803 94.81703811 162.87607905 94.82412831 144.22859764 94.81854725 C123.91928949 94.81248678 103.61000044 94.81267185 83.30069387 94.82403308 C81.13416886 94.82524036 78.96764386 94.82644634 76.80111885 94.82765102 C75.20220337 94.82855633 75.20220337 94.82855633 73.57098658 94.82947993 C66.06499504 94.83335654 58.55901062 94.83296642 51.05301857 94.83106518 C41.90220179 94.82894104 32.75142303 94.83418379 23.60061695 94.84867873 C18.93309146 94.85591294 14.26562128 94.86000807 9.59809113 94.85543537 C5.32213275 94.85134827 1.04628839 94.85655481 -3.22965272 94.86906145 C-4.77332022 94.87198057 -6.31699854 94.87156934 -7.86066322 94.86741837 C-20.83542761 94.83570699 -31.44180038 95.06877217 -41.43058205 104.13422108 Z " fill="#284268" transform="translate(102.43058204650879,228.86577892303467)"/>
<path d="M0 0 C0.93164537 -0.00467997 1.86329075 -0.00935994 2.8231678 -0.01418173 C5.95240539 -0.02617054 9.08120819 -0.01665922 12.21044922 -0.00723267 C14.45082862 -0.01129663 16.69120601 -0.01663753 18.93157959 -0.02316284 C25.02237594 -0.03686297 31.11302019 -0.03152661 37.20381927 -0.02202559 C43.57077959 -0.01444298 49.93772668 -0.0214707 56.3046875 -0.02618408 C67.68331802 -0.03199579 79.06187114 -0.02265874 90.44048619 -0.00740607 C100.75902385 0.00599734 111.07746026 0.00366932 121.39599609 -0.01016235 C133.37632984 -0.02621407 145.35660206 -0.03219446 157.3369503 -0.02332556 C163.67959398 -0.01864266 170.0221679 -0.01804116 176.36480713 -0.02793503 C182.32705903 -0.03658547 188.28911926 -0.03061786 194.2513504 -0.01325226 C196.44274832 -0.00927714 198.63416231 -0.01043889 200.82555389 -0.01704025 C203.81067999 -0.02520525 206.79518707 -0.01499511 209.78027344 0 C210.6530298 -0.00669217 211.52578617 -0.01338433 212.4249897 -0.02027929 C215.81169456 0.01285142 218.3071118 0.12409809 221.42817783 1.49909019 C223.59016717 4.28204318 223.39072563 6.3719775 223.39134216 9.87167358 C223.39964376 10.86464667 223.39964376 10.86464667 223.40811306 11.87767982 C223.42174921 14.10050389 223.40673583 16.32221078 223.3918457 18.54501343 C223.39562784 20.13663206 223.40112701 21.72824741 223.40821838 23.31985474 C223.4222042 27.64632623 223.41098149 31.97240144 223.39450717 36.29885101 C223.3806786 40.82182646 223.38711424 45.34477839 223.39064026 49.86776733 C223.39334412 57.46402388 223.37985167 65.06012257 223.35668945 72.65634155 C223.33007858 81.44452764 223.32833194 90.23244974 223.34007782 99.02066231 C223.3508489 107.46702586 223.34467381 115.91329371 223.33052254 124.35964966 C223.3247569 127.95769507 223.32484994 131.55567058 223.32958794 135.15371704 C223.33435266 139.38908443 223.32427721 143.62416196 223.30263329 147.85947418 C223.29705832 149.41593702 223.29660662 150.97242767 223.30158615 152.52889252 C223.30752123 154.64966177 223.29506958 156.76953948 223.27781677 158.89022827 C223.27417193 160.67220108 223.27417193 160.67220108 223.27045345 162.49017334 C222.84028143 165.75989967 222.42241395 166.40758937 219.89013672 168.38095093 C216.79934495 168.67614888 213.91001295 168.78530684 210.81787109 168.76190186 C209.87820747 168.76658183 208.93854385 168.7712618 207.97040558 168.77608359 C204.80809089 168.78809103 201.64620496 168.77855386 198.48388672 168.76913452 C196.22232815 168.77319766 193.96077156 168.77853809 191.69921875 168.7850647 C185.54644938 168.79877466 179.39383044 168.79342444 173.24105835 168.78392744 C166.81223129 168.7763499 160.38341739 168.78337114 153.95458984 168.78808594 C142.46475047 168.79389932 130.97499466 168.78455666 119.48516941 168.76930793 C109.06283283 168.75590425 98.64059649 168.7582322 88.21826172 168.77206421 C76.1214777 168.7881109 64.02476943 168.79409901 51.92797089 168.78522742 C45.52218722 168.78054219 39.11647263 168.77994936 32.71069336 168.78983688 C26.68936261 168.79848122 20.66822178 168.792531 14.64691162 168.77515411 C12.43251868 168.77117571 10.21810984 168.7723463 8.00372314 168.77894211 C4.98973124 168.78709423 1.97635464 168.77691277 -1.03759766 168.76190186 C-2.36379749 168.7719401 -2.36379749 168.7719401 -3.71678925 168.78218114 C-9.66919598 168.72435563 -9.66919598 168.72435563 -11.83314091 167.03802931 C-13.83550727 164.43912599 -13.49092401 162.12643197 -13.49754333 158.89022827 C-13.50292887 158.22824621 -13.50831441 157.56626415 -13.51386315 156.88422203 C-13.52819372 154.6615895 -13.52102688 152.43954826 -13.51391602 150.21688843 C-13.51961691 148.62526977 -13.52658007 147.0336552 -13.53471375 145.44204712 C-13.55269036 141.11565631 -13.5514685 136.78946782 -13.54577136 132.46305084 C-13.54268635 128.85447152 -13.5487642 125.24593145 -13.55481011 121.63735771 C-13.56886818 113.12672552 -13.56728308 104.61619369 -13.5559082 96.1055603 C-13.54442208 87.31733832 -13.55850796 78.52942133 -13.58530468 69.74123955 C-13.60743387 62.20231916 -13.61410546 54.66349471 -13.60822827 47.12454414 C-13.60485123 42.61901676 -13.60732318 38.11368497 -13.62447929 33.60818481 C-13.63990249 29.37277527 -13.63604485 25.13781901 -13.61717415 20.90242767 C-13.61347553 19.3459558 -13.61663364 17.78945068 -13.62705994 16.23300934 C-13.64018581 14.11203543 -13.62880024 11.99258096 -13.61106873 9.87167358 C-13.61085944 8.68369171 -13.61065016 7.49570984 -13.61043453 6.27172852 C-13.10986328 3.38095093 -13.10986328 3.38095093 -11.6479044 1.49909019 C-7.79128668 -0.19995072 -4.17087833 -0.03198167 0 0 Z " fill="#2A4267" transform="translate(150.10986328125,30.619049072265625)"/>
<path d="M0 0 C1.28286961 -0.00850552 2.56573921 -0.01701104 3.88748366 -0.0257743 C7.42815066 -0.04848482 10.96815669 -0.04024209 14.50884521 -0.02663505 C18.33514476 -0.01735302 22.16131582 -0.0368897 25.98757935 -0.0526123 C33.47551603 -0.0786636 40.96321232 -0.07762188 48.45117705 -0.06657412 C54.53880969 -0.05800609 60.62637293 -0.05885405 66.71400642 -0.06637001 C67.58136322 -0.0674249 68.44872001 -0.06847979 69.34236034 -0.06956664 C71.10454724 -0.07173763 72.86673412 -0.07392441 74.62892098 -0.07612679 C91.14316327 -0.09554488 107.65727086 -0.08357008 124.17150212 -0.06134085 C138.33078507 -0.04309227 152.48980722 -0.05399269 166.64906311 -0.08564758 C183.10379811 -0.1224324 199.55837027 -0.13942407 216.01314646 -0.12623531 C217.76905443 -0.12489425 219.52496242 -0.12358527 221.28087044 -0.12230873 C222.14473905 -0.12167807 223.00860766 -0.1210474 223.89865411 -0.12039762 C229.97602357 -0.11737389 236.05326989 -0.12861512 242.13061333 -0.14555931 C249.54129313 -0.16591025 256.95160503 -0.16497524 264.36226576 -0.13692691 C268.14091133 -0.12317897 271.91891521 -0.11891569 275.69753647 -0.14087677 C279.79945769 -0.16440134 283.89981358 -0.14116362 288.00170898 -0.11352539 C289.18819926 -0.12759184 290.37468953 -0.14165829 291.59713405 -0.156151 C299.48264848 -0.0491998 304.85264855 1.69850693 311.06434631 6.64164734 C316.475809 12.85223045 315.58080031 20.00245 315.45497131 27.88774109 C315.44750024 29.26778337 315.4418114 30.64783634 315.43782043 32.02789307 C315.42263184 35.63994735 315.38341063 39.25134645 315.33900452 42.86314392 C315.29790399 46.55679972 315.27977808 50.25056259 315.25965881 53.94438171 C315.21690775 61.17713523 315.14661574 68.40921559 315.06434631 75.64164734 C307.47434631 75.64164734 299.88434631 75.64164734 292.06434631 75.64164734 C292.11655334 71.15957703 292.11655334 71.15957703 292.16981506 66.58695984 C292.19327081 63.6644435 292.21145307 60.741938 292.22914124 57.81938171 C292.24414515 55.80208066 292.26455487 53.78481177 292.29066467 51.7676239 C292.32741985 48.85315471 292.344157 45.93912008 292.35731506 43.02445984 C292.37279892 42.13550018 292.38828278 41.24654053 292.40423584 40.3306427 C292.40587978 34.09031532 291.47894192 28.43312058 289.06434631 22.64164734 C279.63522517 13.2125262 254.11813749 16.48001304 241.33387756 16.47367859 C239.76655042 16.47045007 238.19922355 16.46708494 236.63189697 16.46359253 C233.36873173 16.45765841 230.10559273 16.45574666 226.84242249 16.4563446 C223.54093437 16.45642578 220.23958526 16.44948729 216.93812561 16.43583679 C195.01344288 16.23346417 195.01344288 16.23346417 173.13856506 17.46586609 C172.37598892 17.53521866 171.61341278 17.60457123 170.82772827 17.67602539 C165.47502926 18.29319951 161.06219163 19.56310835 157.26307678 23.51567078 C151.93190881 32.97062204 153.83495964 46.86631931 153.93934631 57.39164734 C153.94940057 59.16768393 153.95852208 60.94372607 153.96669006 62.71977234 C153.98678122 67.02731612 154.025962 71.33407451 154.06434631 75.64164734 C146.47434631 75.64164734 138.88434631 75.64164734 131.06434631 75.64164734 C131.08754944 73.10992859 131.11075256 70.57820984 131.13465881 67.96977234 C131.15032218 65.47742716 131.1624287 62.98508777 131.17420959 60.49272156 C131.18417586 58.78013088 131.19775378 57.0675568 131.21522522 55.35502625 C131.41101824 38.9775491 131.41101824 38.9775491 127.81434631 23.07914734 C117.18551382 13.65813672 93.06024423 16.48810088 79.69715881 16.50883484 C78.28341149 16.50815748 76.86966429 16.50718392 75.45591736 16.50593567 C72.51988089 16.50447797 69.58387524 16.50654946 66.64784241 16.51127625 C62.94117767 16.51696256 59.23458489 16.5135969 55.52792263 16.50783539 C24.93240748 14.22404714 24.93240748 14.22404714 -2.99815369 21.76664734 C-9.17507694 30.93240443 -8.09699449 44.09868856 -8.06065369 54.70414734 C-8.06452087 55.83658875 -8.06838806 56.96903015 -8.07237244 58.13578796 C-8.07043884 59.7957782 -8.07043884 59.7957782 -8.06846619 61.48930359 C-8.06733826 62.47938416 -8.06621033 63.46946472 -8.06504822 64.48954773 C-7.91179787 68.22278414 -7.39909466 71.93411956 -6.93565369 75.64164734 C-13.53565369 75.64164734 -20.13565369 75.64164734 -26.93565369 75.64164734 C-27.04895373 67.69600263 -27.14053943 59.75099377 -27.19471455 51.80475616 C-27.22072583 48.11433724 -27.25596534 44.42450317 -27.31285095 40.73442078 C-27.36747829 37.16820593 -27.39713781 33.6025509 -27.4100399 30.03594971 C-27.42367282 28.02407853 -27.46265716 26.01243026 -27.50213623 24.00090027 C-27.50439406 16.58341316 -27.23160475 11.11603181 -21.93565369 5.64164734 C-15.03624309 0.28705389 -8.4855454 -0.07474949 0 0 Z " fill="#4D6BC9" transform="translate(111.93565368652344,238.3583526611328)"/>
<path d="M0 0 C58.08 0 116.16 0 176 0 C176 17.16 176 34.32 176 52 C171.545 52.495 171.545 52.495 167 53 C165.45699219 53.20496094 165.45699219 53.20496094 163.8828125 53.4140625 C157.92409625 53.86982833 154.47691283 53.19712887 149.8125 49.375 C148.42451116 48.10048178 147.03782724 46.82434268 145.66943359 45.52880859 C142.28538014 42.42981142 138.6809068 39.58541062 135.125 36.6875 C133.6895688 35.50455559 132.25464886 34.32099044 130.8203125 33.13671875 C130.15547852 32.5957959 129.49064453 32.05487305 128.80566406 31.49755859 C127.28707333 30.23808921 125.82027408 28.91654252 124.3671875 27.58203125 C121.22795732 25.48403089 119.72557735 25.41415983 116 26 C113.24340434 27.11155448 110.70446477 28.52946401 108.125 30 C106.61419877 30.83109718 105.10245649 31.66048564 103.58984375 32.48828125 C102.44491455 33.11984131 102.44491455 33.11984131 101.27685547 33.76416016 C97.12692047 36.01667688 92.90219425 38.12072378 88.6484375 40.16967773 C85.69232726 41.60163438 82.97274252 43.01848096 80.24609375 44.8671875 C70.51340152 51.16225222 59.40587797 48.96596905 48.36865234 48.20800781 C34.52499427 47.35318851 21.13438901 47.62723099 7.51953125 50.34375 C4 51 4 51 0 51 C0 34.17 0 17.34 0 0 Z " fill="#9DE6E7" transform="translate(167,61)"/>
<path d="M0 0 C1.65608273 -0.00135445 3.31216506 -0.00330137 4.96824646 -0.00579834 C8.40424462 -0.00871225 11.84013735 -0.00457402 15.27612305 0.00488281 C19.62450068 0.01628412 23.97263143 0.00968942 28.3210001 -0.00226212 C31.72989173 -0.00957529 35.13872721 -0.0071502 38.54762077 -0.00200653 C40.14878305 -0.00069646 41.74995086 -0.00222188 43.35110664 -0.00696564 C51.88193503 -0.02671307 60.3662637 0.21915737 68.86694336 0.96972656 C70.01328546 1.04818628 70.01328546 1.04818628 71.18278599 1.12823105 C74.82122162 1.50200358 76.52890102 1.77251658 78.89552307 4.65618896 C81.64906592 11.57786981 81.11673286 19.18061257 81.12109375 26.515625 C81.13333984 27.58425781 81.14558594 28.65289062 81.15820312 29.75390625 C81.16013672 30.81480469 81.16207031 31.87570312 81.1640625 32.96875 C81.16817139 33.91395508 81.17228027 34.85916016 81.17651367 35.83300781 C80.83283005 40.68948187 79.80451894 45.47553648 78.93359375 50.265625 C40.32359375 50.265625 1.71359375 50.265625 -38.06640625 50.265625 C-39.76427841 45.17200852 -40.3738401 41.4713866 -40.3671875 36.26953125 C-40.37147263 35.51776108 -40.37575775 34.76599091 -40.38017273 33.99143982 C-40.38588937 32.40893557 -40.38643605 30.82640506 -40.38208008 29.24389648 C-40.37891997 26.83856888 -40.40241156 24.4344728 -40.42773438 22.02929688 C-40.43000783 20.48437654 -40.43071065 18.93945292 -40.4296875 17.39453125 C-40.43889725 16.6839003 -40.44810699 15.97326935 -40.45759583 15.24110413 C-40.41056802 10.1007782 -39.14092794 6.83894438 -37.06640625 2.265625 C-24.6637938 0.75748315 -12.48989964 -0.03705879 0 0 Z " fill="#FDA3C1" transform="translate(315.06640625,263.734375)"/>
<path d="M0 0 C3.24615018 0.00008146 6.49215981 -0.00690492 9.73828125 -0.02050781 C55.13367317 -0.20736555 55.13367317 -0.20736555 60.74023438 3.38378906 C64.54261006 9.45163728 63.05519376 18.46923111 63.05444336 25.4074707 C63.05663421 27.67865626 63.07483645 29.94935884 63.09375 32.22045898 C63.09668385 33.67748859 63.0986687 35.13452048 63.09960938 36.59155273 C63.10371826 37.90446289 63.10782715 39.21737305 63.11206055 40.57006836 C62.86914062 44.18530273 62.86914062 44.18530273 60.86914062 50.18530273 C22.25914062 50.18530273 -16.35085937 50.18530273 -56.13085938 50.18530273 C-58.38477649 40.0426757 -58.38477649 40.0426757 -58.39648438 34.27905273 C-58.3990625 33.04026367 -58.40164062 31.80147461 -58.40429688 30.52514648 C-58.3965625 29.25799805 -58.38882813 27.99084961 -58.38085938 26.68530273 C-58.38859375 25.4181543 -58.39632812 24.15100586 -58.40429688 22.84545898 C-58.38998951 15.97076984 -57.94868937 9.82182492 -56.13085938 3.18530273 C-38.70003818 -2.3092559 -18.15858244 -0.00227187 0 0 Z " fill="#FDA3C1" transform="translate(171.130859375,263.814697265625)"/>
<path d="M0 0 C2.27031756 1.78154855 4.4160189 3.58031139 6.5625 5.5 C7.81161741 6.59475786 9.06162817 7.68849718 10.3125 8.78125 C10.93253906 9.32523438 11.55257812 9.86921875 12.19140625 10.4296875 C16.3721167 14.0595916 20.69074094 17.52456505 25 21 C25.75168457 21.6919043 26.50336914 22.38380859 27.27783203 23.09667969 C30.49704787 25.34753231 32.07546346 25.4702469 35.95703125 25.390625 C37.06884766 25.37773438 38.18066406 25.36484375 39.32617188 25.3515625 C40.47666016 25.31804687 41.62714844 25.28453125 42.8125 25.25 C44.56723633 25.22292969 44.56723633 25.22292969 46.35742188 25.1953125 C49.23863282 25.14827232 52.11942156 25.07653197 55 25 C55 31.6 55 38.2 55 45 C46.69773895 45.13610264 38.39635974 45.24594247 30.09327888 45.31087303 C26.23689111 45.34205255 22.3813127 45.38427404 18.52539062 45.45263672 C14.79704836 45.5183162 11.06947945 45.5538064 7.34060287 45.56926346 C5.92529007 45.58026383 4.51001478 45.60174388 3.09503555 45.63438034 C-9.38795051 45.91058351 -9.38795051 45.91058351 -14.5078125 42.01367188 C-22.55848335 36.44259483 -33.70333003 38.1531561 -43.0703125 38.1953125 C-45.32047951 38.18405242 -47.57063477 38.17016746 -49.82077026 38.15377808 C-55.71612818 38.1178375 -61.61096645 38.11735436 -67.50640869 38.12445068 C-73.53301203 38.12536555 -79.55942266 38.09247719 -85.5859375 38.0625 C-97.39067946 38.00872909 -109.19514904 37.99244499 -121 38 C-121 33.38 -121 28.76 -121 24 C-108.56561307 20.89486882 -96.53708849 19.61300731 -83.75 19.6875 C-81.77084595 19.69813477 -81.77084595 19.69813477 -79.75170898 19.70898438 C-74.58062354 19.78018693 -69.46233061 19.87025952 -64.328125 20.51953125 C-53.97254606 21.77625109 -46.5770275 21.18885305 -37.34375 16.15234375 C-36.39359009 15.66165909 -35.44343018 15.17097443 -34.46447754 14.66542053 C-31.46380784 13.11212451 -28.48140883 11.5274077 -25.5 9.9375 C-22.48802008 8.34856519 -19.47273984 6.76691147 -16.4498291 5.1988678 C-14.57761358 4.22606111 -12.71196204 3.24049231 -10.85388184 2.24095154 C-10.01200317 1.80041946 -9.17012451 1.35988739 -8.30273438 0.90600586 C-7.56615601 0.51295761 -6.82957764 0.11990936 -6.07067871 -0.28504944 C-3.55061647 -1.15516024 -2.45607257 -0.98297089 0 0 Z " fill="#4BA686" transform="translate(288,98)"/>
<path d="M0 0 C1.59811523 0.00676758 1.59811523 0.00676758 3.22851562 0.01367188 C5.83990291 0.02538213 8.45117124 0.04178276 11.0625 0.0625 C10.31097656 0.80113281 9.55945313 1.53976562 8.78515625 2.30078125 C2.2983165 8.880689 -1.99903905 15.29692157 -4.9375 24.0625 C-5.44095947 25.22966553 -5.94441895 26.39683105 -6.46313477 27.59936523 C-8.96813408 35.17339365 -8.42065323 43.33154899 -8.44921875 51.22265625 C-8.46608563 52.98100523 -8.48423855 54.7393423 -8.50361633 56.49766541 C-8.55090449 61.09903236 -8.58085037 65.70035101 -8.60705566 70.30187988 C-8.64223889 75.83713524 -8.69919079 81.3722052 -8.75244904 86.90731049 C-8.83071428 95.29234936 -8.88150756 103.67714968 -8.9375 112.0625 C-20.4875 112.0625 -32.0375 112.0625 -43.9375 112.0625 C-44.09793524 93.11777239 -44.09793524 93.11777239 -44.1328125 84.97070312 C-44.15661769 79.43644651 -44.18461512 73.90245749 -44.23925781 68.3684082 C-44.28308731 63.90094276 -44.30671443 59.43376474 -44.31700897 54.96610069 C-44.3243344 53.27144542 -44.33863693 51.57680382 -44.36042023 49.88227272 C-44.54308336 35.06812913 -42.64389698 21.97230608 -32.9375 10.0625 C-22.98153632 0.58469581 -13.26186716 -0.10701693 0 0 Z " fill="#1D94BF" transform="translate(92.9375,323.9375)"/>
<path d="M0 0 C12.16345572 -0.38787425 24.32264716 -0.69805257 36.49094772 -0.88080692 C42.1446211 -0.96863178 47.79376078 -1.0871925 53.44482422 -1.2824707 C80.1772583 -2.18208415 100.9412682 -2.55159912 122.35949707 14.93215942 C125.7881624 17.6172287 129.43032015 19.76070541 133.21624756 21.89952087 C133.80488586 22.26267899 134.39352417 22.6258371 135 23 C135 23.33 135 23.66 135 24 C90.45 24 45.9 24 0 24 C0 16.08 0 8.16 0 0 Z " fill="#7FC53D" transform="translate(167,145)"/>
<path d="M0 0 C-0.52787109 0.62261719 -0.52787109 0.62261719 -1.06640625 1.2578125 C-13.4136619 16.66770336 -16.44213639 32.25402222 -16.51171875 51.35546875 C-16.52859406 53.11095919 -16.54674807 54.86643776 -16.56611633 56.62190247 C-16.61331312 61.20680021 -16.64331756 65.7916498 -16.66955566 70.37670898 C-16.69951546 75.0695954 -16.74599221 79.76231634 -16.79101562 84.45507812 C-16.87670323 93.6366505 -16.9426712 102.81820673 -17 112 C-22.94 112 -28.88 112 -35 112 C-35.11321453 100.43818392 -35.20483927 88.8767394 -35.25906086 77.31449318 C-35.28509191 71.94496599 -35.32037119 66.57583956 -35.37719727 61.20654297 C-35.43174872 56.01937324 -35.46146931 50.83258762 -35.47438622 45.64515305 C-35.48358466 43.67168511 -35.5015469 41.69823687 -35.52865028 39.72493362 C-35.68665052 27.73866181 -35.72611775 18.58503541 -27.5 9.125 C-26.675 8.42375 -25.85 7.7225 -25 7 C-24.21625 6.29875 -23.4325 5.5975 -22.625 4.875 C-15.15271398 -0.46234716 -9.00953996 -0.36580087 0 0 Z " fill="#2CACE5" transform="translate(56,324)"/>
<path d="M0 0 C1.03991248 0.00389917 1.03991248 0.00389917 2.1008333 0.00787711 C2.84025301 -0.00103626 3.57967272 -0.00994962 4.34149909 -0.01913309 C6.82643288 -0.04520836 9.31093335 -0.04971965 11.79599321 -0.05419564 C13.57492314 -0.06807963 15.35384413 -0.08315354 17.13275468 -0.09933114 C21.97186652 -0.1387232 26.81085344 -0.1580427 31.65010059 -0.17136312 C34.67425695 -0.18015472 37.69837915 -0.1924692 40.72251832 -0.20587564 C50.1865402 -0.24691149 59.65048405 -0.27590357 69.11458874 -0.28748131 C80.03509706 -0.30091417 90.9544771 -0.35350802 101.87464237 -0.44048309 C110.31725989 -0.50538712 118.75956047 -0.53559705 127.20242476 -0.53960466 C132.24394929 -0.54274602 137.28441382 -0.56040184 142.32567537 -0.6140635 C147.072031 -0.66360091 151.81653391 -0.66993189 156.56305635 -0.64364648 C158.300891 -0.64133987 160.03882644 -0.65430624 161.77640855 -0.68402123 C174.88646123 -0.89499071 174.88646123 -0.89499071 179.97978151 2.46929526 C182.23669572 4.67934245 184.14574381 6.80052193 185.89120805 9.4292028 C185.89120805 9.7592028 185.89120805 10.0892028 185.89120805 10.4292028 C119.89120805 10.4292028 53.89120805 10.4292028 -14.10879195 10.4292028 C-5.25123374 0.09538488 -5.25123374 0.09538488 0 0 Z " fill="#AB5340" transform="translate(169.1087919473648,178.5707972049713)"/>
<path d="M0 0 C66 0 132 0 200 0 C191.47942045 9.94067614 191.47942045 9.94067614 187.81363487 10.39428329 C186.47273906 10.4186397 185.13148233 10.42635419 183.79037476 10.42132568 C183.05095504 10.43023905 182.31153533 10.43915242 181.54970896 10.44833589 C179.06477517 10.47441116 176.5802747 10.47892244 174.09521484 10.48339844 C172.31628491 10.49728242 170.53736392 10.51235634 168.75845337 10.52853394 C163.91934154 10.56792599 159.08035461 10.58724549 154.24110746 10.60056591 C151.21695111 10.60935752 148.19282891 10.62167199 145.16868973 10.63507843 C135.70466785 10.67611429 126.24072401 10.70510636 116.77661932 10.7166841 C105.85611099 10.73011697 94.93673095 10.78271082 84.01656568 10.86968589 C75.57394816 10.93458992 67.13164758 10.96479984 58.68878329 10.96880746 C53.64725876 10.97194881 48.60679424 10.98960464 43.56553268 11.0432663 C38.81917706 11.0928037 34.07467414 11.09913468 29.3281517 11.07284927 C27.59031705 11.07054266 25.85238162 11.08350903 24.1147995 11.11322403 C11.00474683 11.3241935 11.00474683 11.3241935 5.91142654 7.95990753 C3.65451234 5.74986034 1.74546424 3.62868087 0 1 C0 0.67 0 0.34 0 0 Z " fill="#A85341" transform="translate(155,42)"/>
<path d="M0 0 C1.9348879 -0.00640819 1.9348879 -0.00640819 3.90886444 -0.01294583 C7.46890965 -0.02407091 11.02819583 -0.00420382 14.58814442 0.02094448 C18.43464668 0.04261104 22.28110888 0.03522469 26.12765503 0.03143311 C32.7852543 0.02881601 39.44260787 0.04445439 46.10014534 0.0726223 C55.72568946 0.11332119 65.35111522 0.12628604 74.97673606 0.13256226 C90.59498585 0.14349543 106.21310479 0.17674308 121.83128357 0.22407532 C136.9995712 0.26999622 152.16782324 0.30537574 167.33616638 0.32661438 C168.73949453 0.32858481 168.73949453 0.32858481 170.17117275 0.33059504 C174.86473519 0.3371204 179.55829788 0.3434389 184.25186074 0.34965456 C223.1670171 0.40145713 262.08202743 0.48949577 300.99705505 0.60127258 C300.99705505 0.93127258 300.99705505 1.26127258 300.99705505 1.60127258 C300.06041243 1.60045947 300.06041243 1.60045947 299.10484773 1.59962994 C262.11197768 1.5684027 225.11927915 1.57353104 188.1264297 1.62599755 C183.68657664 1.63226303 179.24672323 1.63822416 174.80686951 1.64399719 C173.92295909 1.64515163 173.03904867 1.64630608 172.12835308 1.6474955 C157.80833681 1.6654722 143.48843258 1.6587827 129.16841827 1.64300842 C114.47928783 1.62737542 99.79034916 1.63817796 85.10125226 1.67362016 C76.03413277 1.69466133 66.96749545 1.69497982 57.90038689 1.66895276 C51.68621697 1.65308853 45.47241989 1.66285749 39.25830374 1.69293273 C35.67061827 1.70953483 32.08386021 1.71469181 28.49620438 1.68945885 C24.6088595 1.66241298 20.72296222 1.68927317 16.83563232 1.7215271 C15.12989759 1.69677869 15.12989759 1.69677869 13.38970357 1.67153031 C7.88101475 1.6280094 7.88101475 1.6280094 3.19488752 4.1127919 C0.23207947 8.11125995 -1.05591363 11.48893025 -0.81544495 16.53877258 C-0.75343549 20.33512917 -0.75343549 20.33512917 -2.87794495 22.60127258 C-3.57919495 23.26127258 -4.28044495 23.92127258 -5.00294495 24.60127258 C-8.15562743 34.39118134 -8.16286685 44.47239626 -8.12794495 54.66377258 C-8.13181213 55.79621399 -8.13567932 56.9286554 -8.1396637 58.09541321 C-8.1377301 59.75540344 -8.1377301 59.75540344 -8.13575745 61.44892883 C-8.13462952 62.4390094 -8.13350159 63.42908997 -8.13233948 64.44917297 C-7.97908913 68.18240938 -7.46638592 71.89374481 -7.00294495 75.60127258 C-13.60294495 75.60127258 -20.20294495 75.60127258 -27.00294495 75.60127258 C-27.11624499 67.65562788 -27.20783069 59.71061901 -27.26200581 51.76438141 C-27.28801709 48.07396248 -27.3232566 44.38412841 -27.38014221 40.69404602 C-27.43476955 37.12783117 -27.46442907 33.56217615 -27.47733116 29.99557495 C-27.49096408 27.98370377 -27.52994842 25.9720555 -27.56942749 23.96052551 C-27.57168552 16.54237836 -27.29840851 11.07650096 -22.00294495 5.60127258 C-15.08343781 0.21862122 -8.51274974 -0.10370312 0 0 Z " fill="#405CA3" transform="translate(112.00294494628906,238.3987274169922)"/>
<path d="M0 0 C1.24040039 0.01353516 1.24040039 0.01353516 2.50585938 0.02734375 C4.52486708 0.05068488 6.54372356 0.08654712 8.5625 0.125 C8.40007812 1.31351562 8.23765625 2.50203125 8.0703125 3.7265625 C7.34182068 10.30873063 7.4171678 16.8852561 7.4375 23.5 C7.43363281 24.75039063 7.42976563 26.00078125 7.42578125 27.2890625 C7.42771484 29.13757813 7.42771484 29.13757813 7.4296875 31.0234375 C7.43081543 32.12349121 7.43194336 33.22354492 7.43310547 34.35693359 C7.6025432 39.2910882 8.11551932 44.20821252 8.5625 49.125 C0.3125 49.125 -7.9375 49.125 -16.4375 49.125 C-18.69141712 38.98237297 -18.69141712 38.98237297 -18.703125 33.21875 C-18.70570312 31.97996094 -18.70828125 30.74117188 -18.7109375 29.46484375 C-18.70320313 28.19769531 -18.69546875 26.93054688 -18.6875 25.625 C-18.69523437 24.35785156 -18.70296875 23.09070313 -18.7109375 21.78515625 C-18.69663013 14.9104671 -18.25532999 8.76152219 -16.4375 2.125 C-10.81492839 0.2080427 -5.91380615 -0.12389924 0 0 Z " fill="#DA8CAA" transform="translate(131.4375,264.875)"/>
<path d="M0 0 C8.95714379 7.67755182 8.95714379 7.67755182 9.26844215 10.01974678 C9.27698912 10.85556219 9.28553608 11.6913776 9.29434204 12.55252075 C9.31580795 13.9907444 9.31580795 13.9907444 9.33770752 15.45802307 C9.34308533 16.51359909 9.34846313 17.56917511 9.35400391 18.65673828 C9.3671463 19.76584061 9.3802887 20.87494293 9.39382935 22.01765442 C9.43336996 25.70187631 9.45663904 29.38593473 9.4765625 33.0703125 C9.48471355 34.32723782 9.49286461 35.58416313 9.50126266 36.87917709 C9.5387104 42.84751079 9.56783099 48.81579239 9.5844866 54.78421509 C9.60400447 61.66425888 9.6565618 68.543011 9.73748839 75.42259991 C9.80523691 81.38768244 9.82878914 87.35245109 9.83689499 93.31792831 C9.8466353 95.85129415 9.8698883 98.38464579 9.90697098 100.91775894 C9.9557113 104.46851193 9.95383559 108.01590893 9.93994141 111.56689453 C9.96556152 112.61032516 9.99118164 113.6537558 10.01757812 114.72880554 C9.93496749 120.53296679 9.13535609 123.50158992 5.00375366 127.71456909 C1.2913739 131 1.2913739 131 0 131 C0 87.77 0 44.54 0 0 Z " fill="#C1674F" transform="translate(148,50)"/>
<path d="M0 0 C0 42.9 0 85.8 0 130 C-4.15836558 127.92081721 -6.22662468 126.70321564 -9 123 C-9.75613138 119.33933197 -9.71387558 115.7304364 -9.69458008 112.00268555 C-9.70816055 110.89314514 -9.72174103 109.78360474 -9.73573303 108.64044189 C-9.77303464 104.97220265 -9.77306337 101.30513089 -9.76953125 97.63671875 C-9.78051896 95.08469689 -9.79255252 92.53267934 -9.80558777 89.98066711 C-9.82650374 84.62995058 -9.82808865 79.27966362 -9.81665039 73.92895508 C-9.80398123 67.75779985 -9.83910804 61.58821097 -9.89753419 55.41735429 C-9.95180749 49.46658232 -9.96134489 43.51629113 -9.95371056 37.56525612 C-9.95591497 35.040309 -9.97079186 32.51533949 -9.99866676 29.99054527 C-10.03322851 26.45428913 -10.01673095 22.92172623 -9.98754883 19.38549805 C-10.00845581 18.34678055 -10.02936279 17.30806305 -10.05090332 16.23786926 C-9.94234073 10.45084406 -9.11914919 7.48774118 -5.0007782 3.28840637 C-1.28973939 0 -1.28973939 0 0 0 Z " fill="#C1674F" transform="translate(362,50)"/>
<path d="M0 0 C1.06451134 0.00607269 1.06451134 0.00607269 2.15052795 0.01226807 C2.89863235 0.00876343 3.64673676 0.00525879 4.41751099 0.00164795 C6.89696967 -0.00717377 9.37614436 -0.00131876 11.85560608 0.00543213 C13.57431595 0.0040856 15.29302545 0.00214518 17.01173401 -0.00036621 C20.61646648 -0.00331807 24.22109994 0.00098212 27.82582092 0.01031494 C32.45314668 0.02170954 37.08024044 0.01515039 41.70755768 0.00317001 C45.2573777 -0.00404694 48.80714245 -0.00176142 52.35696411 0.0034256 C54.06345649 0.00476255 55.76995385 0.00311278 57.47644043 -0.00153351 C59.85882413 -0.00659609 62.24082883 0.00110747 64.6231842 0.01226807 C65.33285843 0.0082196 66.04253265 0.00417114 66.77371216 0 C71.65832702 0.04252807 71.65832702 0.04252807 73.88685608 2.27105713 C74.23400191 4.97879459 74.3326105 6.59014222 72.81593323 8.9069519 C69.85435861 11.00116541 67.30160629 10.65272842 63.7091217 10.65924072 C62.98198471 10.66449768 62.25484772 10.66975464 61.50567627 10.6751709 C59.10126792 10.68837854 56.69752121 10.67963052 54.29310608 10.66949463 C52.62306084 10.67151515 50.95301646 10.67442641 49.28297424 10.67819214 C45.7825226 10.68261651 42.28230057 10.67618091 38.78187561 10.66217041 C34.29245477 10.64507832 29.80357194 10.65491892 25.31417084 10.6728878 C21.86551349 10.68372266 18.41698393 10.6802807 14.96832275 10.67250443 C13.31289608 10.67050159 11.65745785 10.67296464 10.00204468 10.67994308 C7.68924682 10.68755285 5.37732311 10.67596101 3.06459045 10.65924072 C1.74793396 10.65685394 0.43127747 10.65446716 -0.92527771 10.65200806 C-4.11314392 10.27105713 -4.11314392 10.27105713 -6.04222107 8.9069519 C-7.55889834 6.59014222 -7.46028975 4.97879459 -7.11314392 2.27105713 C-4.66788983 -0.17419696 -3.33743396 0.02905749 0 0 Z " fill="#29486F" transform="translate(106.11314392089844,340.72894287109375)"/>
<path d="M0 0 C0 5.61 0 11.22 0 17 C-18.09281553 19.56838075 -29.36968769 13.49505914 -44.03833008 3.49047852 C-44.68568115 2.99862061 -45.33303223 2.5067627 -46 2 C-46 1.67 -46 1.34 -46 1 C-30.65576567 0.2819624 -15.36115333 -0.14537369 0 0 Z " fill="#79DFE4" transform="translate(343,152)"/>
<path d="M0 0 C5.61 0 11.22 0 17 0 C17.33 7.92 17.66 15.84 18 24 C14.04 24 10.08 24 6 24 C5.17865011 21.50261142 4.36784252 19.00255195 3.5625 16.5 C3.33240234 15.80390625 3.10230469 15.1078125 2.86523438 14.390625 C2.64287109 13.69453125 2.42050781 12.9984375 2.19140625 12.28125 C1.98717041 11.65283203 1.78293457 11.02441406 1.57250977 10.37695312 C0.75329915 6.97574437 0.43393241 3.4714593 0 0 Z " fill="#D6A878" transform="translate(453,446)"/>
<path d="M0 0 C5.61 0 11.22 0 17 0 C15.5149 8.16805001 13.36162044 16.04386124 11 24 C7.04 24 3.08 24 -1 24 C-0.67 16.08 -0.34 8.16 0 0 Z " fill="#D7A878" transform="translate(42,446)"/>
<path d="M0 0 C1.0725 0.00515625 2.145 0.0103125 3.25 0.015625 C4.85875 0.00789063 4.85875 0.00789063 6.5 0 C9.25 0.265625 9.25 0.265625 11.25 2.265625 C11.5 4.765625 11.5 4.765625 11.25 7.265625 C9.25 9.265625 9.25 9.265625 6.5 9.53125 C5.4275 9.52609375 4.355 9.5209375 3.25 9.515625 C1.64125 9.52335937 1.64125 9.52335937 0 9.53125 C-2.75 9.265625 -2.75 9.265625 -4.75 7.265625 C-5 4.765625 -5 4.765625 -4.75 2.265625 C-2.75 0.265625 -2.75 0.265625 0 0 Z " fill="#274268" transform="translate(76.75,340.734375)"/>
</svg>
