<?xml version="1.0" encoding="UTF-8"?>
<svg version="1.1" xmlns="http://www.w3.org/2000/svg" width="512" height="512">
<path d="M0 0 C1.39029769 -0.00668677 1.39029769 -0.00668677 2.8086822 -0.01350862 C3.83375605 -0.01332426 4.85882989 -0.01313989 5.91496658 -0.01294994 C7.54051716 -0.01846498 7.54051716 -0.01846498 9.19890714 -0.02409142 C12.85469223 -0.03516377 16.51044894 -0.0389781 20.16624832 -0.04278088 C22.77746548 -0.04904281 25.38868173 -0.05568936 27.999897 -0.0626936 C35.85380901 -0.08246836 43.70772233 -0.09252566 51.56165302 -0.10142139 C55.25876314 -0.10580277 58.95587182 -0.11116998 62.6529808 -0.11641026 C74.94068861 -0.13342382 87.22839551 -0.14791833 99.51611328 -0.155159 C102.70580674 -0.15706894 105.8955002 -0.15898927 109.08519363 -0.16094494 C109.8779923 -0.16142868 110.67079096 -0.16191242 111.48761383 -0.16241082 C124.33246594 -0.17071236 137.17722495 -0.19605077 150.0220364 -0.22852562 C163.20485524 -0.2615837 176.38762675 -0.27960664 189.57048726 -0.28280324 C196.97407632 -0.28496954 204.37752964 -0.29373558 211.78107834 -0.31926441 C218.74465752 -0.34322041 225.7079885 -0.34680493 232.67160034 -0.33650303 C235.22983105 -0.33600596 237.78807353 -0.34237651 240.3462677 -0.35605907 C243.83446989 -0.37367433 247.32178429 -0.36672205 250.80998611 -0.35352612 C252.33421255 -0.36997998 252.33421255 -0.36997998 253.88923144 -0.38676625 C259.65201738 -0.33400828 263.07716062 0.21899857 267.61644363 4.13422108 C272.14005361 9.14686997 272.74149074 12.52455902 272.75066471 19.18087006 C272.75301694 19.90624713 272.75536917 20.6316242 272.75779268 21.37898239 C272.76449085 23.82855333 272.76402421 26.27807131 272.76361465 28.72765064 C272.76691277 30.49407845 272.77063822 32.2605055 272.77475613 34.02693158 C272.78479018 38.89598493 272.78849518 43.76502594 272.79114544 48.63408816 C272.79504432 53.87964156 272.80462292 59.12518515 272.81335831 64.37073231 C272.83313422 77.0459357 272.84319023 89.72113991 272.8520861 102.39635488 C272.85646704 108.36204564 272.86183434 114.32773551 272.86707497 120.29342556 C272.88408816 140.11897535 272.8985831 159.94452459 272.90582371 179.77008057 C272.90773367 184.91660723 272.90965399 190.06313389 272.91160965 195.20966053 C272.91209339 196.48883928 272.91257713 197.76801803 272.91307553 199.08595977 C272.92137869 219.81530922 272.94672006 240.54460101 272.97919033 261.27392527 C273.01223881 282.54541347 273.03027046 303.81687234 273.03346795 325.08838636 C273.03563506 337.03596909 273.0444132 348.98346775 273.06992912 360.93102551 C273.09160589 371.10457504 273.09970143 381.27802008 273.08996234 391.45159008 C273.08540892 396.64344187 273.08736441 401.83507791 273.10672379 407.02690029 C273.12429373 411.77982554 273.12340796 416.53237666 273.10782649 421.28530554 C273.10544103 423.00473224 273.1098224 424.72418443 273.12165514 426.44357207 C273.22555821 442.53844496 273.22555821 442.53844496 268.61644363 449.13422108 C264.66494561 452.48440418 261.65751335 453.41105926 256.61644363 454.13422108 C256.73761551 454.80888416 256.85878738 455.48354725 256.98363113 456.17865467 C257.53675922 459.28734088 258.07666343 462.39819056 258.61644363 465.50922108 C258.90261551 467.10056873 258.90261551 467.10056873 259.19456863 468.72406483 C261.46491256 481.94070984 261.46491256 481.94070984 260.61644363 488.13422108 C256.76880849 491.98185622 249.92911264 490.54858479 244.74144363 490.57172108 C243.44851395 490.60459217 242.15558426 490.63746326 240.82347488 490.67133045 C238.9614241 490.68196522 238.9614241 490.68196522 237.06175613 490.69281483 C235.92238602 490.70626942 234.7830159 490.71972401 233.60911942 490.73358631 C230.61644363 490.13422108 230.61644363 490.13422108 228.39769363 487.95843983 C226.62995123 485.15563772 225.09813612 482.37866114 223.67113113 479.38812733 C223.15163895 478.30338123 222.63214676 477.21863514 222.09691238 476.10101795 C221.5671077 474.97759998 221.03730301 473.85418201 220.49144363 472.69672108 C219.95390457 471.5771703 219.41636551 470.45761951 218.86253738 469.30414295 C216.46033627 464.25712439 214.39137155 459.45900483 212.61644363 454.13422108 C157.17644363 454.13422108 101.73644363 454.13422108 44.61644363 454.13422108 C43.95644363 456.11422108 43.29644363 458.09422108 42.61644363 460.13422108 C40.85899463 464.11825138 38.96783746 468.03578606 37.07616043 471.95770741 C36.17799274 473.82369661 35.29055914 475.69454592 34.40355301 477.5658617 C33.83572098 478.74728748 33.26788895 479.92871326 32.68284988 481.14593983 C32.16666092 482.22319324 31.65047195 483.30044666 31.1186409 484.41034412 C28.75712778 488.69238571 28.75712778 488.69238571 26.61644363 490.13422108 C23.73729324 490.50653553 23.73729324 490.50653553 20.26878738 490.49750233 C19.02419754 490.4968578 17.7796077 490.49621326 16.49730301 490.4955492 C15.19599442 490.47943592 13.89468582 490.46332264 12.55394363 490.44672108 C11.24876785 490.44994373 9.94359207 490.45316639 8.59886551 490.4564867 C-1.1166931 490.40108435 -1.1166931 490.40108435 -3.38355637 488.13422108 C-4.41357128 480.61549092 -2.71038084 472.88744097 -1.38355637 465.50922108 C-1.19277512 464.40965076 -1.00199387 463.31008045 -0.80543137 462.17718983 C-0.33892851 459.49479839 0.13514757 456.81399051 0.61644363 454.13422108 C-0.29750168 454.0130492 -1.21144699 453.89187733 -2.15308762 453.76703358 C-5.08901985 453.19191747 -6.67604217 452.69522175 -9.07105637 451.00922108 C-9.63179855 450.63539295 -10.19254074 450.26156483 -10.77027512 449.87640858 C-15.11632769 445.18309272 -15.75876674 439.75066512 -15.76107979 433.58979416 C-15.76544011 432.85920252 -15.76980043 432.12861088 -15.77429289 431.37588009 C-15.78522439 428.93250128 -15.77483723 426.4896897 -15.76450729 424.04631519 C-15.76796468 422.27500767 -15.7727298 420.5037023 -15.77868903 418.73240143 C-15.79121734 413.86846681 -15.78502029 409.00470869 -15.77573037 404.14077342 C-15.7689478 398.89395838 -15.77941715 393.64717387 -15.78767014 388.40036488 C-15.80101782 378.12352066 -15.79812519 367.84674213 -15.78943221 357.56989532 C-15.78266053 349.21913492 -15.78173672 340.86839294 -15.78500366 332.51763058 C-15.78546336 331.32968137 -15.78592306 330.14173217 -15.78639669 328.9177845 C-15.78735585 326.50459662 -15.78832849 324.09140875 -15.78931446 321.67822088 C-15.7978713 299.04417514 -15.78802942 276.41016585 -15.77191336 253.77612609 C-15.7585082 234.34770266 -15.76083936 214.91933299 -15.77466965 195.49091053 C-15.79071729 172.93699717 -15.79704912 150.38311574 -15.78783286 127.82919747 C-15.78687719 125.42513025 -15.78593408 123.02106303 -15.78500366 120.61699581 C-15.78454084 119.43410169 -15.78407801 118.25120758 -15.78360116 117.03246818 C-15.78100895 108.68953616 -15.7853872 100.34662437 -15.79244232 92.00369549 C-15.80084837 81.83970333 -15.79859594 71.6757807 -15.78260009 61.51179653 C-15.77470561 56.32425805 -15.77164587 51.13683557 -15.78154755 45.9492979 C-15.79047043 41.20284711 -15.78560135 36.45662012 -15.76961489 31.71018971 C-15.7662569 29.99092493 -15.76798394 28.27164134 -15.77524225 26.5523886 C-15.78433985 24.2189243 -15.77503391 21.88623068 -15.76107979 19.55280685 C-15.76059273 18.25567951 -15.76010567 16.95855217 -15.75960386 15.62211794 C-15.2798296 11.17213978 -13.91993611 7.780063 -10.84840012 4.48968983 C-6.93278695 1.49539741 -4.89141101 0.01088094 0 0 Z " fill="#4588D2" transform="translate(127.3835563659668,10.865778923034668)"/>
<path d="M0 0 C0.74958984 0.01353516 1.49917969 0.02707031 2.27148438 0.04101562 C4.11879767 0.07631461 5.96574066 0.13012083 7.8125 0.1875 C7.81423625 0.9594492 7.8159725 1.73139841 7.81776136 2.52674001 C7.9206796 48.22882882 8.02876821 93.93090287 8.14361694 139.63296333 C8.15738733 145.11443965 8.17111431 150.59591608 8.18481445 156.07739258 C8.18890691 157.7143607 8.18890691 157.7143607 8.19308204 159.38439889 C8.2372162 177.07936706 8.2778294 194.77434167 8.31715261 212.46932112 C8.35754799 230.61168492 8.40170107 248.75403673 8.44937855 266.89638287 C8.47870366 278.10072352 8.50506045 289.30506322 8.52767897 300.50941945 C8.54344717 308.18161409 8.56284905 315.85379405 8.58516841 323.52597242 C8.59795666 327.95940395 8.60908539 332.3928241 8.61591911 336.82626915 C8.62219985 340.87815099 8.63300169 344.92999367 8.6475333 348.98185409 C8.65199188 350.45426704 8.65473335 351.92668631 8.65566199 353.39910572 C8.65715702 355.38744978 8.66528704 357.37578565 8.6738348 359.3641119 C8.67649284 360.47251554 8.67915089 361.58091919 8.68188947 362.72291082 C8.5341113 365.13200978 8.5341113 365.13200978 9.8125 366.1875 C12.27059998 366.4375773 12.27059998 366.4375773 14.8125 366.1875 C17.52575232 363.47424768 17.06638044 362.05548598 17.07421303 358.25668144 C17.08167852 356.98474336 17.08914401 355.71280527 17.09683573 354.4023236 C17.09505866 352.97759661 17.09309772 351.55286983 17.0909729 350.12814331 C17.09597145 348.62498679 17.10184593 347.12183297 17.10852563 345.61868298 C17.12439315 341.47301517 17.12776 337.327415 17.12917423 333.1817205 C17.13285656 328.71679979 17.14800611 324.25191671 17.16178894 319.78701782 C17.18410244 312.04625718 17.19909108 304.30550985 17.20915604 296.56472397 C17.22371892 285.37274276 17.24924894 274.1808079 17.27748732 262.98885383 C17.32299889 244.83226246 17.35959561 226.67566443 17.390625 208.51904297 C17.4207927 190.87775503 17.45513475 173.23648339 17.49511719 155.59521484 C17.49757874 154.5084739 17.50004028 153.42173296 17.50257643 152.30206047 C17.51495068 146.85039964 17.52740728 141.39873901 17.53990483 135.94707847 C17.64353796 90.69390488 17.73108432 45.44072008 17.8125 0.1875 C50.4825 0.1875 83.1525 0.1875 116.8125 0.1875 C116.8125 143.0775 116.8125 285.9675 116.8125 433.1875 C75.5625 433.1875 34.3125 433.1875 -8.1875 433.1875 C-11.93045488 429.44454512 -11.56307997 428.32286582 -11.56502342 423.1581192 C-11.57156391 422.07287174 -11.57156391 422.07287174 -11.57823652 420.96570009 C-11.5892529 418.52239736 -11.57874145 416.07965189 -11.56845093 413.63635254 C-11.57190498 411.87460874 -11.57666783 410.1128671 -11.58263266 408.35113001 C-11.59520708 403.49516954 -11.58894313 398.63938494 -11.57967401 393.78342366 C-11.57291011 388.55227391 -11.58335149 383.32115525 -11.59161377 378.0900116 C-11.60498181 367.83635241 -11.60205972 357.58275896 -11.59337585 347.32909715 C-11.58661176 338.9987149 -11.58567704 330.66835112 -11.5889473 322.33796692 C-11.589407 321.15416031 -11.58986669 319.9703537 -11.59034032 318.75067416 C-11.59129946 316.34609695 -11.5922721 313.94151974 -11.5932581 311.53694254 C-11.60182099 288.96786281 -11.59196377 266.39881958 -11.575857 243.82974583 C-11.56245301 224.44751409 -11.56478085 205.06533624 -11.57861328 185.68310547 C-11.59465323 163.19700339 -11.60099693 140.71093334 -11.59177649 118.22482634 C-11.5908208 115.82889526 -11.58987769 113.43296417 -11.5889473 111.03703308 C-11.58848447 109.8580651 -11.58802164 108.67909711 -11.58754479 107.46440282 C-11.58495014 99.14014524 -11.58933611 90.8159079 -11.59638596 82.49165344 C-11.60478357 72.35273094 -11.60255754 62.21387816 -11.58654372 52.07496369 C-11.57863752 46.89795094 -11.57560923 41.72105458 -11.58549118 36.54404259 C-11.59439017 31.81054169 -11.58958498 27.07726577 -11.57355852 22.34378546 C-11.57019027 20.6258004 -11.57195025 18.90779657 -11.57918589 17.18982345 C-11.58823005 14.86523406 -11.57903282 12.54142834 -11.56502342 10.2168808 C-11.56429284 8.27534189 -11.56429284 8.27534189 -11.56354749 6.29457998 C-11.1875 3.1875 -11.1875 3.1875 -10.17562354 1.25988245 C-6.94312078 -0.48371103 -3.57100687 -0.12163255 0 0 Z " fill="#5EA7EC" transform="translate(134.1875,20.8125)"/>
<path d="M0 0 C1.39029769 -0.00668677 1.39029769 -0.00668677 2.8086822 -0.01350862 C3.83375605 -0.01332426 4.85882989 -0.01313989 5.91496658 -0.01294994 C7.54051716 -0.01846498 7.54051716 -0.01846498 9.19890714 -0.02409142 C12.85469223 -0.03516377 16.51044894 -0.0389781 20.16624832 -0.04278088 C22.77746548 -0.04904281 25.38868173 -0.05568936 27.999897 -0.0626936 C35.85380901 -0.08246836 43.70772233 -0.09252566 51.56165302 -0.10142139 C55.25876314 -0.10580277 58.95587182 -0.11116998 62.6529808 -0.11641026 C74.94068861 -0.13342382 87.22839551 -0.14791833 99.51611328 -0.155159 C102.70580674 -0.15706894 105.8955002 -0.15898927 109.08519363 -0.16094494 C109.8779923 -0.16142868 110.67079096 -0.16191242 111.48761383 -0.16241082 C124.33246594 -0.17071236 137.17722495 -0.19605077 150.0220364 -0.22852562 C163.20485524 -0.2615837 176.38762675 -0.27960664 189.57048726 -0.28280324 C196.97407632 -0.28496954 204.37752964 -0.29373558 211.78107834 -0.31926441 C218.74465752 -0.34322041 225.7079885 -0.34680493 232.67160034 -0.33650303 C235.22983105 -0.33600596 237.78807353 -0.34237651 240.3462677 -0.35605907 C243.83446989 -0.37367433 247.32178429 -0.36672205 250.80998611 -0.35352612 C252.33421255 -0.36997998 252.33421255 -0.36997998 253.88923144 -0.38676625 C259.65201738 -0.33400828 263.07716062 0.21899857 267.61644363 4.13422108 C272.14005361 9.14686997 272.74149074 12.52455902 272.75066471 19.18087006 C272.75301694 19.90624713 272.75536917 20.6316242 272.75779268 21.37898239 C272.76449085 23.82855333 272.76402421 26.27807131 272.76361465 28.72765064 C272.76691277 30.49407845 272.77063822 32.2605055 272.77475613 34.02693158 C272.78479018 38.89598493 272.78849518 43.76502594 272.79114544 48.63408816 C272.79504432 53.87964156 272.80462292 59.12518515 272.81335831 64.37073231 C272.83313422 77.0459357 272.84319023 89.72113991 272.8520861 102.39635488 C272.85646704 108.36204564 272.86183434 114.32773551 272.86707497 120.29342556 C272.88408816 140.11897535 272.8985831 159.94452459 272.90582371 179.77008057 C272.90773367 184.91660723 272.90965399 190.06313389 272.91160965 195.20966053 C272.91209339 196.48883928 272.91257713 197.76801803 272.91307553 199.08595977 C272.92137869 219.81530922 272.94672006 240.54460101 272.97919033 261.27392527 C273.01223881 282.54541347 273.03027046 303.81687234 273.03346795 325.08838636 C273.03563506 337.03596909 273.0444132 348.98346775 273.06992912 360.93102551 C273.09160589 371.10457504 273.09970143 381.27802008 273.08996234 391.45159008 C273.08540892 396.64344187 273.08736441 401.83507791 273.10672379 407.02690029 C273.12429373 411.77982554 273.12340796 416.53237666 273.10782649 421.28530554 C273.10544103 423.00473224 273.1098224 424.72418443 273.12165514 426.44357207 C273.22555821 442.53844496 273.22555821 442.53844496 268.61644363 449.13422108 C264.66494561 452.48440418 261.65751335 453.41105926 256.61644363 454.13422108 C256.73761551 454.80888416 256.85878738 455.48354725 256.98363113 456.17865467 C257.53675922 459.28734088 258.07666343 462.39819056 258.61644363 465.50922108 C258.90261551 467.10056873 258.90261551 467.10056873 259.19456863 468.72406483 C261.46491256 481.94070984 261.46491256 481.94070984 260.61644363 488.13422108 C256.76880849 491.98185622 249.92911264 490.54858479 244.74144363 490.57172108 C243.44851395 490.60459217 242.15558426 490.63746326 240.82347488 490.67133045 C238.9614241 490.68196522 238.9614241 490.68196522 237.06175613 490.69281483 C235.92238602 490.70626942 234.7830159 490.71972401 233.60911942 490.73358631 C230.61644363 490.13422108 230.61644363 490.13422108 228.39769363 487.95843983 C226.62995123 485.15563772 225.09813612 482.37866114 223.67113113 479.38812733 C223.15163895 478.30338123 222.63214676 477.21863514 222.09691238 476.10101795 C221.5671077 474.97759998 221.03730301 473.85418201 220.49144363 472.69672108 C219.95390457 471.5771703 219.41636551 470.45761951 218.86253738 469.30414295 C216.46033627 464.25712439 214.39137155 459.45900483 212.61644363 454.13422108 C157.17644363 454.13422108 101.73644363 454.13422108 44.61644363 454.13422108 C43.95644363 456.11422108 43.29644363 458.09422108 42.61644363 460.13422108 C40.85899463 464.11825138 38.96783746 468.03578606 37.07616043 471.95770741 C36.17799274 473.82369661 35.29055914 475.69454592 34.40355301 477.5658617 C33.83572098 478.74728748 33.26788895 479.92871326 32.68284988 481.14593983 C32.16666092 482.22319324 31.65047195 483.30044666 31.1186409 484.41034412 C28.75712778 488.69238571 28.75712778 488.69238571 26.61644363 490.13422108 C23.73729324 490.50653553 23.73729324 490.50653553 20.26878738 490.49750233 C19.02419754 490.4968578 17.7796077 490.49621326 16.49730301 490.4955492 C15.19599442 490.47943592 13.89468582 490.46332264 12.55394363 490.44672108 C11.24876785 490.44994373 9.94359207 490.45316639 8.59886551 490.4564867 C-1.1166931 490.40108435 -1.1166931 490.40108435 -3.38355637 488.13422108 C-4.41357128 480.61549092 -2.71038084 472.88744097 -1.38355637 465.50922108 C-1.19277512 464.40965076 -1.00199387 463.31008045 -0.80543137 462.17718983 C-0.33892851 459.49479839 0.13514757 456.81399051 0.61644363 454.13422108 C-0.29750168 454.0130492 -1.21144699 453.89187733 -2.15308762 453.76703358 C-5.08901985 453.19191747 -6.67604217 452.69522175 -9.07105637 451.00922108 C-9.63179855 450.63539295 -10.19254074 450.26156483 -10.77027512 449.87640858 C-15.11632769 445.18309272 -15.75876674 439.75066512 -15.76107979 433.58979416 C-15.76544011 432.85920252 -15.76980043 432.12861088 -15.77429289 431.37588009 C-15.78522439 428.93250128 -15.77483723 426.4896897 -15.76450729 424.04631519 C-15.76796468 422.27500767 -15.7727298 420.5037023 -15.77868903 418.73240143 C-15.79121734 413.86846681 -15.78502029 409.00470869 -15.77573037 404.14077342 C-15.7689478 398.89395838 -15.77941715 393.64717387 -15.78767014 388.40036488 C-15.80101782 378.12352066 -15.79812519 367.84674213 -15.78943221 357.56989532 C-15.78266053 349.21913492 -15.78173672 340.86839294 -15.78500366 332.51763058 C-15.78546336 331.32968137 -15.78592306 330.14173217 -15.78639669 328.9177845 C-15.78735585 326.50459662 -15.78832849 324.09140875 -15.78931446 321.67822088 C-15.7978713 299.04417514 -15.78802942 276.41016585 -15.77191336 253.77612609 C-15.7585082 234.34770266 -15.76083936 214.91933299 -15.77466965 195.49091053 C-15.79071729 172.93699717 -15.79704912 150.38311574 -15.78783286 127.82919747 C-15.78687719 125.42513025 -15.78593408 123.02106303 -15.78500366 120.61699581 C-15.78454084 119.43410169 -15.78407801 118.25120758 -15.78360116 117.03246818 C-15.78100895 108.68953616 -15.7853872 100.34662437 -15.79244232 92.00369549 C-15.80084837 81.83970333 -15.79859594 71.6757807 -15.78260009 61.51179653 C-15.77470561 56.32425805 -15.77164587 51.13683557 -15.78154755 45.9492979 C-15.79047043 41.20284711 -15.78560135 36.45662012 -15.76961489 31.71018971 C-15.7662569 29.99092493 -15.76798394 28.27164134 -15.77524225 26.5523886 C-15.78433985 24.2189243 -15.77503391 21.88623068 -15.76107979 19.55280685 C-15.76059273 18.25567951 -15.76010567 16.95855217 -15.75960386 15.62211794 C-15.2798296 11.17213978 -13.91993611 7.780063 -10.84840012 4.48968983 C-6.93278695 1.49539741 -4.89141101 0.01088094 0 0 Z M-3.3716799 11.20660353 C-4.94199709 14.19804674 -4.75981386 16.79938635 -4.76107979 20.16360188 C-4.76544011 20.88710018 -4.76980043 21.61059849 -4.77429289 22.35602099 C-4.78530927 24.79932372 -4.77479781 27.24206919 -4.76450729 29.68536854 C-4.76796134 31.44711234 -4.7727242 33.20885398 -4.77868903 34.97059107 C-4.79126345 39.82655154 -4.7849995 44.68233614 -4.77573037 49.53829741 C-4.76896648 54.76944717 -4.77940785 60.00056583 -4.78767014 65.23170948 C-4.80103818 75.48536866 -4.79811608 85.73896212 -4.78943221 95.99262393 C-4.78266813 104.32300618 -4.78173341 112.65336995 -4.78500366 120.98375416 C-4.78546336 122.16756077 -4.78592306 123.35136738 -4.78639669 124.57104692 C-4.78735583 126.97562413 -4.78832847 129.38020134 -4.78931446 131.78477854 C-4.79787735 154.35385827 -4.78802014 176.9229015 -4.77191336 199.49197525 C-4.75850938 218.87420699 -4.76083722 238.25638484 -4.77466965 257.63861561 C-4.7907096 280.12471769 -4.7970533 302.61078774 -4.78783286 325.09689474 C-4.78687717 327.49282582 -4.78593406 329.88875691 -4.78500366 332.284688 C-4.78454084 333.46365598 -4.78407801 334.64262397 -4.78360116 335.85731825 C-4.78100651 344.18157584 -4.78539247 352.50581318 -4.79244232 360.83006763 C-4.80083994 370.96899013 -4.79861391 381.10784292 -4.78260009 391.24675739 C-4.77469389 396.42377014 -4.77166559 401.60066649 -4.78154755 406.77767849 C-4.79044654 411.51117938 -4.78564134 416.24445531 -4.76961489 420.97793561 C-4.76624663 422.69592067 -4.76800661 424.4139245 -4.77524225 426.13189763 C-4.78428641 428.45648701 -4.77508919 430.78029273 -4.76107979 433.10484028 C-4.76059273 434.39919955 -4.76010567 435.69355882 -4.75960386 437.02714109 C-4.66744077 440.46736019 -4.66744077 440.46736019 -1.38355637 443.13422108 C39.86644363 443.13422108 81.11644363 443.13422108 123.61644363 443.13422108 C123.61644363 300.24422108 123.61644363 157.35422108 123.61644363 10.13422108 C90.94644363 10.13422108 58.27644363 10.13422108 24.61644363 10.13422108 C24.5966243 21.15038807 24.57680496 32.16655506 24.55638504 43.5165453 C24.49163672 78.72652911 24.41710838 113.93648611 24.33639202 149.1464368 C24.3238725 154.611603 24.31143983 160.0767694 24.29906082 165.54193592 C24.29659483 166.62999508 24.29412883 167.71805423 24.29158811 168.83908488 C24.2518174 186.47840951 24.21908919 204.11774059 24.18894382 221.757084 C24.15787738 239.84409156 24.11928877 257.93107167 24.07365358 276.01804841 C24.04571206 287.18707332 24.02370369 298.35607806 24.00918113 309.52512862 C23.99867417 317.17444928 23.98088943 324.82373097 23.9572766 332.47302233 C23.94385245 336.89241272 23.9337376 341.31174828 23.93223 345.73116016 C23.93078126 349.77141243 23.92026313 353.81153238 23.90230922 357.85174407 C23.89743077 359.31878807 23.89597689 360.78584796 23.89816482 362.25289844 C23.90063888 364.23640947 23.88979846 366.21992411 23.87815666 368.20340252 C23.87587834 369.30838868 23.87360002 370.41337484 23.87125266 371.55184543 C23.61644363 374.13422108 23.61644363 374.13422108 21.61644363 376.13422108 C19.05394363 376.32172108 19.05394363 376.32172108 16.61644363 376.13422108 C14.83307401 374.35085145 15.48356085 371.72210007 15.47777843 369.31083298 C15.47230399 368.03740254 15.46682955 366.76397211 15.46118921 365.45195287 C15.4601128 364.02035366 15.45912815 362.58875437 15.45822525 361.15715504 C15.45366371 359.6507385 15.44866429 358.14432323 15.44326168 356.63790947 C15.4296247 352.47859717 15.42224622 348.31929307 15.41583502 344.1599642 C15.40785538 339.68208416 15.39414929 335.20422134 15.38112259 330.72635365 C15.35932514 322.96156762 15.34119266 315.19677988 15.32551765 307.43197918 C15.30284871 296.20524565 15.27470182 284.97853118 15.24519838 273.75181378 C15.19748589 255.53920338 15.15423166 237.32658522 15.11375809 219.11395741 C15.07442174 201.41733666 15.033 183.72072284 14.98875809 166.02411366 C14.98603382 164.93412299 14.98330954 163.84413233 14.98050272 162.72111165 C14.96682355 157.25319619 14.95310321 151.78528083 14.93936241 146.31736553 C14.82534021 100.92299845 14.7185436 55.52861643 14.61644363 10.13422108 C12.01165481 10.05328978 9.4093771 9.99376674 6.80394363 9.94672108 C6.06595535 9.92158436 5.32796707 9.89644764 4.56761551 9.8705492 C0.4412013 9.81218355 0.4412013 9.81218355 -3.3716799 11.20660353 Z M133.61644363 10.13422108 C133.61644363 153.02422108 133.61644363 295.91422108 133.61644363 443.13422108 C174.86644363 443.13422108 216.11644363 443.13422108 258.61644363 443.13422108 C262.35939851 439.3912662 261.9920236 438.2695869 261.99396706 433.10484028 C261.99832738 432.38134197 262.0026877 431.65784366 262.00718015 430.91242117 C262.01819653 428.46911843 262.00768508 426.02637296 261.99739456 423.58307362 C262.00084861 421.82132982 262.00561147 420.05958817 262.01157629 418.29785109 C262.02415071 413.44189061 262.01788677 408.58610601 262.00861764 403.73014474 C262.00185375 398.49899499 262.01229512 393.26787633 262.0205574 388.03673267 C262.03392545 377.78307349 262.03100335 367.52948003 262.02231948 357.27581823 C262.0155554 348.94543598 262.01462068 340.6150722 262.01789093 332.284688 C262.01858048 330.50897808 262.01858048 330.50897808 262.01928396 328.69739524 C262.02024309 326.29281802 262.02121573 323.88824082 262.02220173 321.48366362 C262.03076462 298.91458388 262.0209074 276.34554065 262.00480063 253.77646691 C261.99139664 234.39423516 261.99372448 215.01205732 262.00755692 195.62982655 C262.02359687 173.14372447 262.02994057 150.65765441 262.02072012 128.17154741 C262.01976444 125.77561633 262.01882132 123.37968525 262.01789093 120.98375416 C262.0174281 119.80478617 262.01696528 118.62581819 262.01648843 117.4111239 C262.01389377 109.08686631 262.01827974 100.76262897 262.02532959 92.43837452 C262.0337272 82.29945202 262.03150118 72.16059924 262.01548736 62.02168477 C262.00758116 56.84467201 262.00455286 51.66777566 262.01443481 46.49076366 C262.0233338 41.75726277 262.01852861 37.02398685 262.00250216 32.29050654 C261.9991339 30.57252148 262.00089388 28.85451765 262.00812952 27.13654453 C262.01717368 24.81195514 262.00797646 22.48814942 261.99396706 20.16360188 C261.99348 18.86924261 261.99299294 17.57488334 261.99249113 16.24130106 C261.90032804 12.80108196 261.90032804 12.80108196 258.61644363 10.13422108 C217.36644363 10.13422108 176.11644363 10.13422108 133.61644363 10.13422108 Z " fill="#284369" transform="translate(127.3835563659668,10.865778923034668)"/>
<path d="M0 0 C0.74958984 0.01353516 1.49917969 0.02707031 2.27148438 0.04101562 C4.11879767 0.07631461 5.96574066 0.13012083 7.8125 0.1875 C7.81423625 0.9594492 7.8159725 1.73139841 7.81776136 2.52674001 C7.9206796 48.22882882 8.02876821 93.93090287 8.14361694 139.63296333 C8.15738733 145.11443965 8.17111431 150.59591608 8.18481445 156.07739258 C8.18890691 157.7143607 8.18890691 157.7143607 8.19308204 159.38439889 C8.2372162 177.07936706 8.2778294 194.77434167 8.31715261 212.46932112 C8.35754799 230.61168492 8.40170107 248.75403673 8.44937855 266.89638287 C8.47870366 278.10072352 8.50506045 289.30506322 8.52767897 300.50941945 C8.54344717 308.18161409 8.56284905 315.85379405 8.58516841 323.52597242 C8.59795666 327.95940395 8.60908539 332.3928241 8.61591911 336.82626915 C8.62219985 340.87815099 8.63300169 344.92999367 8.6475333 348.98185409 C8.65199188 350.45426704 8.65473335 351.92668631 8.65566199 353.39910572 C8.65715702 355.38744978 8.66528704 357.37578565 8.6738348 359.3641119 C8.67649284 360.47251554 8.67915089 361.58091919 8.68188947 362.72291082 C8.5341113 365.13200978 8.5341113 365.13200978 9.8125 366.1875 C12.27059998 366.4375773 12.27059998 366.4375773 14.8125 366.1875 C17.52575232 363.47424768 17.06638044 362.05548598 17.07421303 358.25668144 C17.08167852 356.98474336 17.08914401 355.71280527 17.09683573 354.4023236 C17.09505866 352.97759661 17.09309772 351.55286983 17.0909729 350.12814331 C17.09597145 348.62498679 17.10184593 347.12183297 17.10852563 345.61868298 C17.12439315 341.47301517 17.12776 337.327415 17.12917423 333.1817205 C17.13285656 328.71679979 17.14800611 324.25191671 17.16178894 319.78701782 C17.18410244 312.04625718 17.19909108 304.30550985 17.20915604 296.56472397 C17.22371892 285.37274276 17.24924894 274.1808079 17.27748732 262.98885383 C17.32299889 244.83226246 17.35959561 226.67566443 17.390625 208.51904297 C17.4207927 190.87775503 17.45513475 173.23648339 17.49511719 155.59521484 C17.49757874 154.5084739 17.50004028 153.42173296 17.50257643 152.30206047 C17.51495068 146.85039964 17.52740728 141.39873901 17.53990483 135.94707847 C17.64353796 90.69390836 17.73271961 45.44071801 17.8125 0.1875 C20.1225 0.1875 22.4325 0.1875 24.8125 0.1875 C24.8125 143.0775 24.8125 285.9675 24.8125 433.1875 C13.9225 433.1875 3.0325 433.1875 -8.1875 433.1875 C-11.93045488 429.44454512 -11.56307997 428.32286582 -11.56502342 423.1581192 C-11.57156391 422.07287174 -11.57156391 422.07287174 -11.57823652 420.96570009 C-11.5892529 418.52239736 -11.57874145 416.07965189 -11.56845093 413.63635254 C-11.57190498 411.87460874 -11.57666783 410.1128671 -11.58263266 408.35113001 C-11.59520708 403.49516954 -11.58894313 398.63938494 -11.57967401 393.78342366 C-11.57291011 388.55227391 -11.58335149 383.32115525 -11.59161377 378.0900116 C-11.60498181 367.83635241 -11.60205972 357.58275896 -11.59337585 347.32909715 C-11.58661176 338.9987149 -11.58567704 330.66835112 -11.5889473 322.33796692 C-11.589407 321.15416031 -11.58986669 319.9703537 -11.59034032 318.75067416 C-11.59129946 316.34609695 -11.5922721 313.94151974 -11.5932581 311.53694254 C-11.60182099 288.96786281 -11.59196377 266.39881958 -11.575857 243.82974583 C-11.56245301 224.44751409 -11.56478085 205.06533624 -11.57861328 185.68310547 C-11.59465323 163.19700339 -11.60099693 140.71093334 -11.59177649 118.22482634 C-11.5908208 115.82889526 -11.58987769 113.43296417 -11.5889473 111.03703308 C-11.58848447 109.8580651 -11.58802164 108.67909711 -11.58754479 107.46440282 C-11.58495014 99.14014524 -11.58933611 90.8159079 -11.59638596 82.49165344 C-11.60478357 72.35273094 -11.60255754 62.21387816 -11.58654372 52.07496369 C-11.57863752 46.89795094 -11.57560923 41.72105458 -11.58549118 36.54404259 C-11.59439017 31.81054169 -11.58958498 27.07726577 -11.57355852 22.34378546 C-11.57019027 20.6258004 -11.57195025 18.90779657 -11.57918589 17.18982345 C-11.58823005 14.86523406 -11.57903282 12.54142834 -11.56502342 10.2168808 C-11.56429284 8.27534189 -11.56429284 8.27534189 -11.56354749 6.29457998 C-11.1875 3.1875 -11.1875 3.1875 -10.17562354 1.25988245 C-6.94312078 -0.48371103 -3.57100687 -0.12163255 0 0 Z " fill="#4688D2" transform="translate(134.1875,20.8125)"/>
<path d="M0 0 C5.36787898 1.88869816 8.45991584 4.91983169 11 10 C11.11077454 11.69369615 11.15916633 13.39164606 11.17700195 15.08886719 C11.18983719 16.15047058 11.20267242 17.21207397 11.21589661 18.30584717 C11.22328354 19.45788635 11.23067047 20.60992554 11.23828125 21.796875 C11.246353 22.97840149 11.25442474 24.15992798 11.26274109 25.3772583 C11.2765917 27.88234994 11.28730946 30.38746052 11.29516602 32.89257812 C11.31236706 36.72041721 11.35624487 40.54739024 11.40039062 44.375 C11.4105183 46.80728531 11.41903417 49.23957797 11.42578125 51.671875 C11.44328934 52.81581726 11.46079742 53.95975952 11.47883606 55.1383667 C11.46173493 61.41757284 11.25998097 65.25206378 7 70 C2.55081838 74.12363175 -1.43179425 74.73556411 -7.3046875 74.51953125 C-11.63372184 73.6850942 -14.39468497 71.50160417 -17 68 C-18.66976202 64.4289033 -19.25768685 61.59247591 -19.29052734 57.66235352 C-19.30328705 56.62099747 -19.31604675 55.57964142 -19.32919312 54.50672913 C-19.33141876 53.39204758 -19.33364441 52.27736603 -19.3359375 51.12890625 C-19.3425943 49.97382065 -19.3492511 48.81873505 -19.35610962 47.62864685 C-19.3662238 45.18856395 -19.37092702 42.74845345 -19.37060547 40.30834961 C-19.37498011 36.57945154 -19.41131907 32.85173577 -19.44921875 29.12304688 C-19.45508684 26.75000404 -19.45905629 24.37695559 -19.4609375 22.00390625 C-19.47530853 20.89124893 -19.48967957 19.77859161 -19.50448608 18.63221741 C-19.45769732 10.6898822 -18.13585254 7.50477637 -12.875 1.625 C-8.61067003 -0.78527346 -4.78820308 -0.63022898 0 0 Z " fill="#294369" transform="translate(221,178)"/>
<path d="M0 0 C4.73829769 1.66717882 7.2011938 3.85362045 10 8 C10.9766447 10.92993411 11.13739066 12.85735981 11.16113281 15.91113281 C11.17074036 16.90937073 11.1803479 17.90760864 11.19024658 18.93609619 C11.19449646 20.0142157 11.19874634 21.09233521 11.203125 22.203125 C11.20882507 23.31427673 11.21452515 24.42542847 11.22039795 25.57025146 C11.22984985 27.9239405 11.23638268 30.27764279 11.24023438 32.63134766 C11.24992421 36.22191667 11.28094008 39.81190948 11.3125 43.40234375 C11.31903175 45.69010077 11.32428155 47.97786188 11.328125 50.265625 C11.3404718 51.33564758 11.3528186 52.40567017 11.36553955 53.50811768 C11.34787927 59.45654991 10.93738883 63.77778102 8 69 C2.98572225 73.64737938 -0.45073538 74.46692334 -7.1640625 74.4140625 C-10.98711158 73.85587627 -12.90515129 72.40759523 -15.66015625 69.80078125 C-18.48696461 66.00148489 -19.25154089 62.32798162 -19.29052734 57.66235352 C-19.30328705 56.62099747 -19.31604675 55.57964142 -19.32919312 54.50672913 C-19.33141876 53.39204758 -19.33364441 52.27736603 -19.3359375 51.12890625 C-19.3425943 49.97382065 -19.3492511 48.81873505 -19.35610962 47.62864685 C-19.3662238 45.18856395 -19.37092702 42.74845345 -19.37060547 40.30834961 C-19.37498011 36.57945154 -19.41131907 32.85173577 -19.44921875 29.12304688 C-19.45508684 26.75000404 -19.45905629 24.37695559 -19.4609375 22.00390625 C-19.47530853 20.89124893 -19.48967957 19.77859161 -19.50448608 18.63221741 C-19.45769732 10.6898822 -18.13585254 7.50477637 -12.875 1.625 C-8.61067003 -0.78527346 -4.78820308 -0.63022898 0 0 Z " fill="#29446A" transform="translate(295,178)"/>
<path d="M0 0 C2.5625 0.3125 2.5625 0.3125 4.19839478 1.3203125 C6.35238543 4.4660766 5.97903264 7.81829063 5.95068359 11.5 C5.95594055 12.33442627 5.96119751 13.16885254 5.96661377 14.02856445 C5.97983049 16.79006605 5.97106986 19.55099242 5.9609375 22.3125 C5.96295776 24.22916779 5.96586879 26.14583484 5.96963501 28.0625 C5.97406063 32.08080356 5.96761965 36.09890716 5.95361328 40.1171875 C5.93652128 45.27246008 5.94636119 50.42726414 5.96433067 55.58251953 C5.97516208 59.54072613 5.97172512 63.49882133 5.9639473 67.45703125 C5.96194351 69.35807348 5.9644108 71.25912576 5.97138596 73.16015625 C5.97898987 75.8153774 5.96741136 78.46983578 5.95068359 81.125 C5.95979263 82.30799683 5.95979263 82.30799683 5.96908569 83.51489258 C5.9071752 88.80912415 5.9071752 88.80912415 4.19839478 91.3046875 C1.87383408 92.73676086 0.23603197 92.65526051 -2.4375 92.3125 C-5.01315277 89.73684723 -4.68181298 88.01192928 -4.70855713 84.50128174 C-4.70450867 83.68874939 -4.70046021 82.87621704 -4.69628906 82.0390625 C-4.6997937 81.18366882 -4.70329834 80.32827515 -4.70690918 79.44696045 C-4.71573477 76.61039186 -4.70987445 73.77407127 -4.703125 70.9375 C-4.70447141 68.97216748 -4.70641174 67.00683528 -4.70892334 65.04150391 C-4.71187572 60.91891311 -4.70757328 56.79640887 -4.69824219 52.67382812 C-4.6868476 47.3806367 -4.69340646 42.08764809 -4.70538712 36.79446411 C-4.71260263 32.73509178 -4.71031921 28.6757678 -4.70513153 24.61639404 C-4.70379418 22.66428605 -4.70544573 20.71217372 -4.71009064 18.7600708 C-4.7151508 16.03524085 -4.70745288 13.31074264 -4.69628906 10.5859375 C-4.70033752 9.77340515 -4.70438599 8.9608728 -4.70855713 8.12371826 C-4.65121324 0.59630939 -4.65121324 0.59630939 0 0 Z " fill="#29446C" transform="translate(370.4375,65.6875)"/>
<path d="M0 0 C3 0.25 3 0.25 5 2.25 C5.25396729 4.37524414 5.25396729 4.37524414 5.25878906 7.03515625 C5.26509338 8.0295874 5.27139771 9.02401855 5.27789307 10.04858398 C5.2738446 11.12567627 5.26979614 12.20276855 5.265625 13.3125 C5.26753845 14.414729 5.2694519 15.51695801 5.27142334 16.65258789 C5.27278612 18.98616768 5.26908322 21.31975503 5.26074219 23.65332031 C5.25004421 27.23519847 5.26063458 30.81657503 5.2734375 34.3984375 C5.27211592 36.66145945 5.26955357 38.92448108 5.265625 41.1875 C5.26967346 42.26459229 5.27372192 43.34168457 5.27789307 44.45141602 C5.27158875 45.44584717 5.26528442 46.44027832 5.25878906 47.46484375 C5.25640228 48.78150024 5.25640228 48.78150024 5.25396729 50.12475586 C5 52.25 5 52.25 3 54.25 C0 54.5 0 54.5 -3 54.25 C-5.50944305 51.74055695 -5.2525033 50.93235913 -5.25878906 47.46484375 C-5.26509338 46.4704126 -5.27139771 45.47598145 -5.27789307 44.45141602 C-5.2738446 43.37432373 -5.26979614 42.29723145 -5.265625 41.1875 C-5.26753845 40.085271 -5.2694519 38.98304199 -5.27142334 37.84741211 C-5.27278612 35.51383232 -5.26908322 33.18024497 -5.26074219 30.84667969 C-5.25004421 27.26480153 -5.26063458 23.68342497 -5.2734375 20.1015625 C-5.27211592 17.83854055 -5.26955357 15.57551892 -5.265625 13.3125 C-5.26967346 12.23540771 -5.27372192 11.15831543 -5.27789307 10.04858398 C-5.27158875 9.05415283 -5.26528442 8.05972168 -5.25878906 7.03515625 C-5.25719788 6.15738525 -5.25560669 5.27961426 -5.25396729 4.37524414 C-4.82176607 0.75850625 -3.47994502 0.28999542 0 0 Z " fill="#AAECE2" transform="translate(291,187.75)"/>
<path d="M0 0 C3 0.25 3 0.25 5 2.25 C5.25396729 4.37524414 5.25396729 4.37524414 5.25878906 7.03515625 C5.26509338 8.0295874 5.27139771 9.02401855 5.27789307 10.04858398 C5.2738446 11.12567627 5.26979614 12.20276855 5.265625 13.3125 C5.26753845 14.414729 5.2694519 15.51695801 5.27142334 16.65258789 C5.27278612 18.98616768 5.26908322 21.31975503 5.26074219 23.65332031 C5.25004421 27.23519847 5.26063458 30.81657503 5.2734375 34.3984375 C5.27211592 36.66145945 5.26955357 38.92448108 5.265625 41.1875 C5.26967346 42.26459229 5.27372192 43.34168457 5.27789307 44.45141602 C5.27158875 45.44584717 5.26528442 46.44027832 5.25878906 47.46484375 C5.25640228 48.78150024 5.25640228 48.78150024 5.25396729 50.12475586 C5 52.25 5 52.25 3 54.25 C0 54.5 0 54.5 -3 54.25 C-5.50944305 51.74055695 -5.2525033 50.93235913 -5.25878906 47.46484375 C-5.26509338 46.4704126 -5.27139771 45.47598145 -5.27789307 44.45141602 C-5.2738446 43.37432373 -5.26979614 42.29723145 -5.265625 41.1875 C-5.26753845 40.085271 -5.2694519 38.98304199 -5.27142334 37.84741211 C-5.27278612 35.51383232 -5.26908322 33.18024497 -5.26074219 30.84667969 C-5.25004421 27.26480153 -5.26063458 23.68342497 -5.2734375 20.1015625 C-5.27211592 17.83854055 -5.26955357 15.57551892 -5.265625 13.3125 C-5.26967346 12.23540771 -5.27372192 11.15831543 -5.27789307 10.04858398 C-5.27158875 9.05415283 -5.26528442 8.05972168 -5.25878906 7.03515625 C-5.25719788 6.15738525 -5.25560669 5.27961426 -5.25396729 4.37524414 C-4.82176607 0.75850625 -3.47994502 0.28999542 0 0 Z " fill="#ABEEE3" transform="translate(217,187.75)"/>
<path d="M0 0 C7.26 0 14.52 0 22 0 C19.85349113 5.36627218 17.42474846 10.53627692 14.9375 15.75 C14.47794922 16.72066406 14.01839844 17.69132812 13.54492188 18.69140625 C13.10599609 19.61308594 12.66707031 20.53476562 12.21484375 21.484375 C11.81386475 22.32709961 11.41288574 23.16982422 10.99975586 24.03808594 C10 26 10 26 9 27 C6.81360547 27.07258946 4.62499611 27.08373783 2.4375 27.0625 C0.64119141 27.04896484 0.64119141 27.04896484 -1.19140625 27.03515625 C-2.11824219 27.02355469 -3.04507813 27.01195312 -4 27 C-3.71367324 24.37432271 -3.42103918 21.74958617 -3.125 19.125 C-3.04636719 18.39796875 -2.96773437 17.6709375 -2.88671875 16.921875 C-2.22912547 11.1552878 -1.1487606 5.743803 0 0 Z " fill="#6A7284" transform="translate(139,464)"/>
<path d="M0 0 C7.26 0 14.52 0 22 0 C22.67080188 3.74930334 23.33680278 7.49935084 24 11.25 C24.19078125 12.31347656 24.3815625 13.37695312 24.578125 14.47265625 C24.84882813 16.00986328 24.84882813 16.00986328 25.125 17.578125 C25.29257812 18.52075195 25.46015625 19.46337891 25.6328125 20.43457031 C26 23 26 23 26 27 C21.71 27 17.42 27 13 27 C12.48050781 25.94941406 11.96101563 24.89882813 11.42578125 23.81640625 C6.35503761 13.58407004 6.35503761 13.58407004 0.8125 3.6015625 C0 2 0 2 0 0 Z " fill="#6A7285" transform="translate(351,464)"/>
<path d="M0 0 C3 0.25 3 0.25 5 2.25 C5.265625 5.21875 5.265625 5.21875 5.25 8.75 C5.25515625 9.9153125 5.2603125 11.080625 5.265625 12.28125 C5 15.25 5 15.25 3 17.25 C0 17.5 0 17.5 -3 17.25 C-5 15.25 -5 15.25 -5.265625 12.28125 C-5.26046875 11.1159375 -5.2553125 9.950625 -5.25 8.75 C-5.25515625 7.5846875 -5.2603125 6.419375 -5.265625 5.21875 C-4.89808855 1.11098968 -4.10821441 0.3423512 0 0 Z " fill="#29446B" transform="translate(147,402.75)"/>
<path d="M0 0 C2.5625 0.3125 2.5625 0.3125 4.203125 1.48828125 C6.07066422 3.99443302 5.92908369 5.71724869 5.875 8.8125 C5.87113281 9.7715625 5.86726563 10.730625 5.86328125 11.71875 C5.5625 14.3125 5.5625 14.3125 3.5625 17.3125 C0.5625 17.625 0.5625 17.625 -2.4375 17.3125 C-4.4375 15.3125 -4.4375 15.3125 -4.703125 12.34375 C-4.69796875 11.1784375 -4.6928125 10.013125 -4.6875 8.8125 C-4.69265625 7.6471875 -4.6978125 6.481875 -4.703125 5.28125 C-4.37138811 1.5736024 -3.76027342 0.48208634 0 0 Z " fill="#29456D" transform="translate(370.4375,33.6875)"/>
</svg>
