<?xml version="1.0" encoding="UTF-8"?>
<svg version="1.1" xmlns="http://www.w3.org/2000/svg" width="512" height="512">
<path d="M0 0 C6.75 -0.125 6.75 -0.125 9 1 C9.33 36.64 9.66 72.28 10 109 C13.3 110.32 16.6 111.64 20 113 C25.56171458 117.57495877 29.04304153 121.99618066 31 129 C31.41715237 134.68115994 31.28398546 140.3839516 31.03808594 146.07348633 C30.57543993 154.31810668 30.57543993 154.31810668 34.00073242 161.48144531 C36.57055046 163.53533148 39.20357878 165.27084747 42 167 C43.38562485 168.09260911 44.75321782 169.20865559 46.09765625 170.3515625 C46.74524902 170.88563721 47.3928418 171.41971191 48.06005859 171.9699707 C48.72086426 172.51613037 49.38166992 173.06229004 50.0625 173.625 C51.53514484 174.83985758 53.00780144 176.05470091 54.48046875 177.26953125 C55.22474121 177.88393066 55.96901367 178.49833008 56.73583984 179.13134766 C60.44689938 182.19415224 64.16082535 185.25347431 67.875 188.3125 C68.94923218 189.19736084 68.94923218 189.19736084 70.04516602 190.10009766 C73.85816123 193.23989894 77.67533887 196.37440835 81.5 199.5 C89.77029712 206.25865671 98.00548082 213.06012038 106.24804688 219.85253906 C107.73073044 221.07429622 109.21347713 222.29597677 110.69628906 223.51757812 C112.13589458 224.70359109 113.57535047 225.88978569 115.01464844 227.07617188 C118.13871017 229.6499644 121.26542397 232.22011753 124.40625 234.7734375 C125.87578125 235.96839844 125.87578125 235.96839844 127.375 237.1875 C128.20773437 237.86167969 129.04046875 238.53585938 129.8984375 239.23046875 C134.91862568 243.45750452 134.91862568 243.45750452 135.375 246.5 C134.9257432 249.49504532 134.37437156 250.18396497 132 252 C129.74104309 252.36076355 129.74104309 252.36076355 127.06958008 252.34057617 C126.05480591 252.34021362 125.04003174 252.33985107 123.99450684 252.33947754 C122.93026489 252.32412964 121.86602295 252.30878174 120.76953125 252.29296875 C119.78964233 252.28994751 118.80975342 252.28692627 117.8001709 252.28381348 C114.13750689 252.26810968 110.47499294 252.22622571 106.8125 252.1875 C98.624375 252.125625 90.43625 252.06375 82 252 C82 278.73 82 305.46 82 333 C83.98 333 85.96 333 88 333 C91.3887742 335.53899661 92.74761094 338.19594047 94.140625 342.1328125 C94.48867188 343.10347656 94.83671875 344.07414062 95.1953125 345.07421875 C95.54335938 346.08097656 95.89140625 347.08773438 96.25 348.125 C96.61351562 349.13949219 96.97703125 350.15398437 97.3515625 351.19921875 C100 358.67657425 100 358.67657425 100 361 C100.61488281 360.95359375 101.22976563 360.9071875 101.86328125 360.859375 C102.67152344 360.82328125 103.47976563 360.7871875 104.3125 360.75 C105.11300781 360.70359375 105.91351563 360.6571875 106.73828125 360.609375 C109 361 109 361 110.51502991 362.53768921 C112.47600479 365.7892898 113.21843677 369.12110189 114.02124023 372.78759766 C114.20057098 373.56881485 114.37990173 374.35003204 114.56466675 375.15492249 C115.15542338 377.73925519 115.73203891 380.32652771 116.30859375 382.9140625 C116.71985521 384.72629852 117.13198389 386.53833794 117.54493713 388.35018921 C118.63226282 393.13187298 119.70759718 397.91617726 120.78051758 402.70111084 C121.86004347 407.50552256 122.95107315 412.30731788 124.04101562 417.109375 C127.87610144 434.02493556 127.87610144 434.02493556 129.38823605 440.82372475 C130.29500269 444.89765932 131.22565408 448.96348854 132.20071411 453.02166748 C132.39205209 453.83479086 132.58339006 454.64791424 132.78052616 455.48567772 C133.1417901 457.01912861 133.51162151 458.55059804 133.89182949 460.07946205 C134.89064528 464.37086173 135.11624674 467.72127998 134 472 C133 473 133 473 129.58178711 473.11352539 C128.06363012 473.11336628 126.54546771 473.10767226 125.02734375 473.09765625 C124.22970108 473.0962413 123.43205841 473.09482635 122.61024475 473.09336853 C120.05262565 473.08775316 117.49509282 473.07519812 114.9375 473.0625 C113.20768355 473.05748698 111.47786574 473.05292373 109.74804688 473.04882812 C105.49866447 473.03777875 101.24934688 473.02050386 97 473 C96.86424561 473.94399658 96.72849121 474.88799316 96.58862305 475.8605957 C95.94548813 479.29073752 95.12138586 480.63396398 92.8125 483.1875 C92.24144531 483.84105469 91.67039062 484.49460937 91.08203125 485.16796875 C85.35519256 490.20715702 79.85008629 490.65136022 72.484375 490.47265625 C66.22312137 489.62331579 62.23915543 486.80422532 58.34375 481.92578125 C56.22937113 478.74833967 55 476.87592391 55 473 C53.95021973 473.01047363 52.90043945 473.02094727 51.81884766 473.03173828 C47.93134967 473.06788453 44.04386659 473.09088078 40.15625 473.10986328 C38.47230534 473.11993317 36.78837821 473.13358988 35.10449219 473.15087891 C32.68680499 473.17508426 30.26934857 473.18647296 27.8515625 473.1953125 C27.0963028 473.20563507 26.34104309 473.21595764 25.56289673 473.22659302 C23.7070602 473.22699318 21.8518072 473.12222716 20 473 C18 471 18 471 17.75175476 467.48332214 C17.8812263 462.60412303 18.87693153 458.00849317 19.97192383 453.2668457 C20.1816835 452.32761261 20.39144318 451.38837952 20.6075592 450.42068481 C21.29874022 447.33703046 22.00241959 444.25639218 22.70703125 441.17578125 C23.19358716 439.02454175 23.67963806 436.87318797 24.16520691 434.72172546 C25.18272317 430.22260955 26.20646763 425.72496852 27.23461914 421.22827148 C28.55125117 415.46748427 29.85208676 409.70326518 31.14827442 403.93784809 C32.14816997 399.49859801 33.15649333 395.0612952 34.16736412 390.6245327 C34.65040588 388.49966972 35.13080432 386.37420404 35.60849953 384.24813271 C36.2770657 381.27838114 36.95696109 378.31144686 37.63989258 375.3449707 C37.834823 374.4684938 38.02975342 373.59201691 38.23059082 372.6889801 C39.24567283 368.33607422 40.23806451 364.62402295 43 361 C45.26171875 360.29296875 45.26171875 360.29296875 47.6875 360.1875 C48.49574219 360.13980469 49.30398437 360.09210938 50.13671875 360.04296875 C50.75160156 360.02878906 51.36648437 360.01460938 52 360 C52.19110352 359.32420898 52.38220703 358.64841797 52.57910156 357.95214844 C53.45589779 354.88072386 54.35269343 351.81549223 55.25 348.75 C55.55035156 347.68652344 55.85070312 346.62304688 56.16015625 345.52734375 C56.46308594 344.50253906 56.76601562 343.47773438 57.078125 342.421875 C57.48659668 341.00793457 57.48659668 341.00793457 57.90332031 339.56542969 C59.23006424 336.46181767 60.21653642 334.94282789 63 333 C65.64 333 68.28 333 71 333 C71 306.27 71 279.54 71 252 C62.42 252 53.84 252 45 252 C44.34 255.3 43.68 258.6 43 262 C38.49189652 273.2074523 30.77940487 280.99620547 19.8671875 285.97265625 C9.58226847 289.72055047 -3.51904199 289.6614637 -13.57421875 285.328125 C-23.41689308 279.93922118 -30.68234998 272.33151969 -35 262 C-35.66 258.7 -36.32 255.4 -37 252 C-48.55 252 -60.1 252 -72 252 C-72 287.64 -72 323.28 -72 360 C-69.69 360 -67.38 360 -65 360 C-61.61009254 363.69874935 -60.86869094 368.77470837 -59.8125 373.5625 C-59.63525391 374.31724609 -59.45800781 375.07199219 -59.27539062 375.84960938 C-58.46371225 379.40657832 -58 382.30391704 -58 386 C-56.081875 386.309375 -56.081875 386.309375 -54.125 386.625 C-44.74855974 388.74796761 -37.48832276 394.20541395 -32 402 C-28.50323595 407.8634763 -26.88093398 412.79792122 -26.85473633 419.65478516 C-26.84835648 420.78921051 -26.84197662 421.92363586 -26.83540344 423.09243774 C-26.83429062 424.31232391 -26.8331778 425.53221008 -26.83203125 426.7890625 C-26.82703865 428.67121964 -26.82703865 428.67121964 -26.82194519 430.59140015 C-26.81688354 433.2426102 -26.81410401 435.89371768 -26.81469727 438.54492188 C-26.81479921 441.94581826 -26.80110795 445.34650738 -26.78392506 448.74735451 C-26.7701582 451.99041623 -26.77071738 455.2334755 -26.76953125 458.4765625 C-26.76234573 459.70049713 -26.75516022 460.92443176 -26.74775696 462.18545532 C-26.75083359 463.31357635 -26.75391022 464.44169739 -26.75708008 465.60400391 C-26.75565506 466.60009674 -26.75423004 467.59618958 -26.75276184 468.62246704 C-27 471 -27 471 -29 473 C-31.70556641 473.22705078 -31.70556641 473.22705078 -35.1015625 473.1953125 C-36.31328125 473.18886719 -37.525 473.18242187 -38.7734375 473.17578125 C-40.04445313 473.15902344 -41.31546875 473.14226562 -42.625 473.125 C-43.90375 473.11597656 -45.1825 473.10695313 -46.5 473.09765625 C-49.66685167 473.07402303 -52.83333424 473.04107629 -56 473 C-56.19335938 474.14275391 -56.19335938 474.14275391 -56.390625 475.30859375 C-57.68350452 481.01881164 -61.32085901 484.72460131 -66 488 C-71.37163301 491.37091191 -77.91245137 490.54961868 -84 490 C-89.4814155 488.41900451 -94.1345189 483.86554844 -97 479 C-97.33 477.02 -97.66 475.04 -98 473 C-107.24 473 -116.48 473 -126 473 C-127.86941865 469.26116271 -128.25319854 468.07367346 -128.2746582 464.14648438 C-128.28419022 463.1844812 -128.29372223 462.22247803 -128.30354309 461.23132324 C-128.30263168 460.19592407 -128.30172028 459.1605249 -128.30078125 458.09375 C-128.30506638 457.01806763 -128.3093515 455.94238525 -128.31376648 454.83410645 C-128.31951037 452.55445051 -128.32000961 450.27477624 -128.31567383 447.99511719 C-128.31253695 444.54068786 -128.33589238 441.08713451 -128.36132812 437.6328125 C-128.36360369 435.4114594 -128.36430342 433.19010403 -128.36328125 430.96875 C-128.372491 429.94954468 -128.38170074 428.93033936 -128.39118958 427.88024902 C-128.31188614 415.31120002 -125.54189129 405.15399807 -116.99609375 395.80859375 C-111.24093836 390.21816553 -104.23674019 386 -96 386 C-95.9175 384.824375 -95.835 383.64875 -95.75 382.4375 C-95.2474001 377.87768064 -94.22405266 373.49264485 -93.0625 369.0625 C-92.89266602 368.39984131 -92.72283203 367.73718262 -92.54785156 367.05444336 C-91.73529547 364.05224205 -91.23624386 362.23624386 -89 360 C-87.02 360 -85.04 360 -83 360 C-83 324.36 -83 288.72 -83 252 C-96.53 252 -110.06 252 -124 252 C-127 249 -127 249 -127.5234375 246.64453125 C-126.77212147 242.84870323 -124.4584888 241.08589019 -121.625 238.6875 C-121.0791626 238.20748535 -120.5333252 237.7274707 -119.97094727 237.23291016 C-115.11008746 232.99371422 -110.07276864 228.9811602 -105 225 C-95.61515191 217.3970851 -86.32090444 209.68104071 -77 202 C-60.56029525 188.45259778 -60.56029525 188.45259778 -54.5 183.5 C-49.74370848 179.61180463 -44.99503177 175.71442312 -40.25 171.8125 C-39.54037109 171.22984375 -38.83074219 170.6471875 -38.09960938 170.046875 C-37.41189453 169.48097656 -36.72417969 168.91507813 -36.015625 168.33203125 C-35.34595703 167.78111816 -34.67628906 167.23020508 -33.98632812 166.66259766 C-31.4237583 164.5176738 -28.92357409 162.30488282 -26.43652344 160.07299805 C-25 159 -25 159 -23 159 C-23.03927612 157.71536865 -23.03927612 157.71536865 -23.0793457 156.40478516 C-23.16533938 153.18056635 -23.22761905 149.95693819 -23.2746582 146.73193359 C-23.29956805 145.34501736 -23.33351002 143.95822913 -23.37719727 142.57177734 C-23.68181158 132.64493429 -23.05765156 124.42666476 -16.0090332 116.86376953 C-12.02639693 113.05608644 -8.08511196 111.13154824 -3 109 C-2.99191315 107.69343445 -2.98382629 106.3868689 -2.97549438 105.04071045 C-2.89807472 92.73917108 -2.81034595 80.43774288 -2.71247292 68.13634872 C-2.66248581 61.81178743 -2.61615587 55.48724304 -2.578125 49.16259766 C-2.54130288 43.06118482 -2.49495109 36.95991257 -2.44193649 30.85861969 C-2.42337623 28.5286022 -2.40827434 26.19855457 -2.39665604 23.86849213 C-2.37982172 20.60977218 -2.35079301 17.35137534 -2.31884766 14.09277344 C-2.31668747 13.125327 -2.31452728 12.15788055 -2.31230164 11.16111755 C-2.30113815 10.27213272 -2.28997467 9.38314789 -2.2784729 8.46722412 C-2.27017676 7.31129572 -2.27017676 7.31129572 -2.26171303 6.13201523 C-1.96700427 3.73120409 -1.19247744 2.08836037 0 0 Z " fill="#284268" transform="translate(175,11)"/>
<path d="M0 0 C3.5 0.25 3.5 0.25 5.5 2.25 C5.74609566 4.19838905 5.74609566 4.19838905 5.74050903 6.62857056 C5.74325836 7.54846268 5.74600769 8.4683548 5.74884033 9.41612244 C5.7380545 10.93418236 5.7380545 10.93418236 5.72705078 12.48291016 C5.72734283 13.5463414 5.72763489 14.60977264 5.72793579 15.70542908 C5.72653835 19.23338884 5.71095756 22.76113947 5.6953125 26.2890625 C5.69158385 28.73000981 5.68873618 31.17095862 5.68673706 33.61190796 C5.67908899 40.0465099 5.65943041 46.48102201 5.6373291 52.91558838 C5.61689594 59.47756739 5.60774076 66.03956087 5.59765625 72.6015625 C5.57618564 85.4844134 5.54241826 98.36720193 5.5 111.25 C6.44544678 111.39026611 7.39089355 111.53053223 8.36499023 111.67504883 C14.26251659 112.75663707 18.17788339 116.92788339 22.3125 121.0625 C27.65624141 128.84909462 27.90428718 136.59070706 27.6875 145.8125 C27.66719727 147.46862305 27.66719727 147.46862305 27.64648438 149.15820312 C27.61144815 151.85599272 27.56232591 154.55272636 27.5 157.25 C28.15589111 157.42523193 28.81178223 157.60046387 29.48754883 157.78100586 C40.16532914 160.7803603 48.0104546 166.16182971 54.06640625 175.6015625 C59.42063678 185.49302926 60.65094082 195.13220111 60.64044189 206.2141571 C60.64341302 207.20145193 60.64638414 208.18874676 60.6494453 209.20595962 C60.65809868 212.50539776 60.65963765 215.80479947 60.66113281 219.10424805 C60.66576311 221.47314531 60.67078805 223.84204184 60.67617798 226.2109375 C60.69064219 233.3078362 60.69668067 240.4047271 60.70157349 247.50163791 C60.70415476 250.84584289 60.70794435 254.19004641 60.71169281 257.53425026 C60.72387553 268.65122037 60.73417969 279.76818858 60.7375679 290.88516521 C60.73789725 291.95082854 60.73789725 291.95082854 60.73823325 293.03802042 C60.73856067 294.10617631 60.73856067 294.10617631 60.7388947 295.19591111 C60.73933816 296.63882681 60.73978473 298.08174251 60.74023438 299.5246582 C60.7404558 300.24038861 60.74067723 300.95611902 60.74090537 301.69353823 C60.7448589 313.30753462 60.76233422 324.92146849 60.7855939 336.53544071 C60.80929099 348.46409503 60.82176885 360.39271792 60.82293582 372.32139617 C60.82385303 379.01724218 60.82993569 385.7129941 60.84775543 392.4088192 C60.8641748 398.70021841 60.86642156 404.99146212 60.85761642 411.28287506 C60.85684294 413.59522479 60.86122947 415.90758268 60.87107468 418.21991158 C60.8837 421.36906014 60.87796885 424.51764994 60.86749268 427.66679382 C60.87957728 429.04873233 60.87957728 429.04873233 60.89190602 430.45858878 C60.84401259 436.5863727 60.84401259 436.5863727 59.17043686 439.81483173 C56.51215028 442.09871845 54.08544886 441.80130044 50.64453125 441.859375 C49.98289474 441.87591125 49.32125824 441.89244751 48.63957214 441.90948486 C46.53045399 441.95799288 44.42205677 441.97933927 42.3125 442 C40.88082305 442.02815777 39.44917972 442.05808495 38.01757812 442.08984375 C34.51187607 442.16374893 31.00631125 442.21330788 27.5 442.25 C27.07976562 443.47203125 26.65953125 444.6940625 26.2265625 445.953125 C23.658149 452.77218775 18.91326193 458.34815099 12.4375 461.8125 C4.4577994 464.79453344 -5.22730454 464.75067963 -13 461.25 C-20.91501252 456.57474302 -24.54013209 450.70550326 -27.5 442.25 C-28.39831543 442.23018066 -29.29663086 442.21036133 -30.22216797 442.18994141 C-33.55090078 442.11190739 -36.87917256 442.02521886 -40.20751953 441.93261719 C-41.6488374 441.89430326 -43.09025168 441.85945457 -44.53173828 441.828125 C-46.60223886 441.78252554 -48.67207433 441.72452556 -50.7421875 441.6640625 C-51.9885498 441.6326416 -53.23491211 441.6012207 -54.51904297 441.56884766 C-57.5 441.25 -57.5 441.25 -59.5 439.25 C-59.75299966 437.41125304 -59.75299966 437.41125304 -59.75726891 435.13028812 C-59.7637178 434.26224082 -59.77016669 433.39419352 -59.776811 432.49984175 C-59.7737138 431.54043368 -59.7706166 430.5810256 -59.76742554 429.59254456 C-59.77195665 428.57770884 -59.77648776 427.56287312 -59.78115618 426.51728481 C-59.79388287 423.09424145 -59.79217446 419.67135551 -59.79052734 416.24829102 C-59.7965077 413.80281874 -59.80331209 411.35734836 -59.81088257 408.91188049 C-59.82676244 402.94338124 -59.83299353 396.97494458 -59.83410732 391.00643004 C-59.83505713 386.15197015 -59.83916407 381.29752331 -59.84550858 376.44306755 C-59.8631343 362.67621742 -59.8723462 348.9093985 -59.87084763 335.14253701 C-59.87076772 334.39980888 -59.8706878 333.65708075 -59.87060547 332.8918457 C-59.87052371 332.14820843 -59.87044195 331.40457115 -59.87035771 330.63839941 C-59.86954602 318.60523158 -59.88865058 306.57218929 -59.9168822 294.53905774 C-59.94564906 282.17998675 -59.95942018 269.82097687 -59.95769465 257.46187156 C-59.95703171 250.5248208 -59.96248067 243.58790137 -59.98405075 236.65088081 C-60.00422792 230.1198405 -60.00354985 223.58902934 -59.98901749 217.0579586 C-59.9869292 214.66470052 -59.9916314 212.27142509 -60.0037384 209.87819672 C-60.01923444 206.60191101 -60.00985285 203.32657433 -59.99447632 200.05030823 C-60.00476344 199.11097665 -60.01505057 198.17164507 -60.02564943 197.2038489 C-59.91781891 186.75190166 -56.3804565 178.05890364 -49.5 170.25 C-48.71302734 169.32380859 -48.71302734 169.32380859 -47.91015625 168.37890625 C-42.3193164 162.26186971 -35.60923854 158.77269545 -27.5 157.25 C-27.51571045 156.60562988 -27.5314209 155.96125977 -27.54760742 155.29736328 C-27.61070901 152.32333471 -27.64922586 149.34944771 -27.6875 146.375 C-27.71263672 145.36179688 -27.73777344 144.34859375 -27.76367188 143.3046875 C-27.86518156 132.74768076 -26.11259044 124.90000202 -18.6953125 117.16796875 C-14.80685552 113.77075812 -10.80085836 111.25 -5.5 111.25 C-5.50184359 110.69008677 -5.50368717 110.13017353 -5.50558662 109.55329323 C-5.54971796 95.94158293 -5.58270572 82.32988513 -5.60362434 68.71811867 C-5.61407927 62.13561978 -5.62826959 55.55317238 -5.65087891 48.97070312 C-5.67254641 42.62299465 -5.68455573 36.27533582 -5.68975449 29.92759323 C-5.69346122 27.50099277 -5.70069911 25.07439514 -5.71146011 22.6478157 C-5.72589404 19.25945326 -5.72798134 15.8712982 -5.72705078 12.48291016 C-5.73424133 11.47087021 -5.74143188 10.45883026 -5.74884033 9.41612244 C-5.746091 8.49623032 -5.74334167 7.5763382 -5.74050903 6.62857056 C-5.74235262 5.82661066 -5.74419621 5.02465076 -5.74609566 4.19838905 C-5.26470287 0.38710506 -3.57987652 0.25570547 0 0 Z " fill="#42A1FE" transform="translate(404.5,10.75)"/>
<path d="M0 0 C3.5 0.25 3.5 0.25 5.5 2.25 C5.74609566 4.19838905 5.74609566 4.19838905 5.74050903 6.62857056 C5.74325836 7.54846268 5.74600769 8.4683548 5.74884033 9.41612244 C5.7380545 10.93418236 5.7380545 10.93418236 5.72705078 12.48291016 C5.72734283 13.5463414 5.72763489 14.60977264 5.72793579 15.70542908 C5.72653835 19.23338884 5.71095756 22.76113947 5.6953125 26.2890625 C5.69158385 28.73000981 5.68873618 31.17095862 5.68673706 33.61190796 C5.67908899 40.0465099 5.65943041 46.48102201 5.6373291 52.91558838 C5.61689594 59.47756739 5.60774076 66.03956087 5.59765625 72.6015625 C5.57618564 85.4844134 5.54241826 98.36720193 5.5 111.25 C6.44544678 111.39026611 7.39089355 111.53053223 8.36499023 111.67504883 C14.26251659 112.75663707 18.17788339 116.92788339 22.3125 121.0625 C27.65624141 128.84909462 27.90428718 136.59070706 27.6875 145.8125 C27.66719727 147.46862305 27.66719727 147.46862305 27.64648438 149.15820312 C27.61144815 151.85599272 27.56232591 154.55272636 27.5 157.25 C28.15589111 157.42523193 28.81178223 157.60046387 29.48754883 157.78100586 C40.16532914 160.7803603 48.0104546 166.16182971 54.06640625 175.6015625 C59.42063678 185.49302926 60.65094082 195.13220111 60.64044189 206.2141571 C60.64341302 207.20145193 60.64638414 208.18874676 60.6494453 209.20595962 C60.65809868 212.50539776 60.65963765 215.80479947 60.66113281 219.10424805 C60.66576311 221.47314531 60.67078805 223.84204184 60.67617798 226.2109375 C60.69064219 233.3078362 60.69668067 240.4047271 60.70157349 247.50163791 C60.70415476 250.84584289 60.70794435 254.19004641 60.71169281 257.53425026 C60.72387553 268.65122037 60.73417969 279.76818858 60.7375679 290.88516521 C60.73789725 291.95082854 60.73789725 291.95082854 60.73823325 293.03802042 C60.73856067 294.10617631 60.73856067 294.10617631 60.7388947 295.19591111 C60.73933816 296.63882681 60.73978473 298.08174251 60.74023438 299.5246582 C60.7404558 300.24038861 60.74067723 300.95611902 60.74090537 301.69353823 C60.7448589 313.30753462 60.76233422 324.92146849 60.7855939 336.53544071 C60.80929099 348.46409503 60.82176885 360.39271792 60.82293582 372.32139617 C60.82385303 379.01724218 60.82993569 385.7129941 60.84775543 392.4088192 C60.8641748 398.70021841 60.86642156 404.99146212 60.85761642 411.28287506 C60.85684294 413.59522479 60.86122947 415.90758268 60.87107468 418.21991158 C60.8837 421.36906014 60.87796885 424.51764994 60.86749268 427.66679382 C60.87957728 429.04873233 60.87957728 429.04873233 60.89190602 430.45858878 C60.84401259 436.5863727 60.84401259 436.5863727 59.17043686 439.81483173 C56.51215028 442.09871845 54.08544886 441.80130044 50.64453125 441.859375 C49.98289474 441.87591125 49.32125824 441.89244751 48.63957214 441.90948486 C46.53045399 441.95799288 44.42205677 441.97933927 42.3125 442 C40.88082305 442.02815777 39.44917972 442.05808495 38.01757812 442.08984375 C34.51187607 442.16374893 31.00631125 442.21330788 27.5 442.25 C27.07976562 443.47203125 26.65953125 444.6940625 26.2265625 445.953125 C23.658149 452.77218775 18.91326193 458.34815099 12.4375 461.8125 C4.4577994 464.79453344 -5.22730454 464.75067963 -13 461.25 C-20.91501252 456.57474302 -24.54013209 450.70550326 -27.5 442.25 C-28.39831543 442.23018066 -29.29663086 442.21036133 -30.22216797 442.18994141 C-33.55090078 442.11190739 -36.87917256 442.02521886 -40.20751953 441.93261719 C-41.6488374 441.89430326 -43.09025168 441.85945457 -44.53173828 441.828125 C-46.60223886 441.78252554 -48.67207433 441.72452556 -50.7421875 441.6640625 C-51.9885498 441.6326416 -53.23491211 441.6012207 -54.51904297 441.56884766 C-57.5 441.25 -57.5 441.25 -59.5 439.25 C-59.75299966 437.41125304 -59.75299966 437.41125304 -59.75726891 435.13028812 C-59.7637178 434.26224082 -59.77016669 433.39419352 -59.776811 432.49984175 C-59.7737138 431.54043368 -59.7706166 430.5810256 -59.76742554 429.59254456 C-59.77195665 428.57770884 -59.77648776 427.56287312 -59.78115618 426.51728481 C-59.79388287 423.09424145 -59.79217446 419.67135551 -59.79052734 416.24829102 C-59.7965077 413.80281874 -59.80331209 411.35734836 -59.81088257 408.91188049 C-59.82676244 402.94338124 -59.83299353 396.97494458 -59.83410732 391.00643004 C-59.83505713 386.15197015 -59.83916407 381.29752331 -59.84550858 376.44306755 C-59.8631343 362.67621742 -59.8723462 348.9093985 -59.87084763 335.14253701 C-59.87076772 334.39980888 -59.8706878 333.65708075 -59.87060547 332.8918457 C-59.87052371 332.14820843 -59.87044195 331.40457115 -59.87035771 330.63839941 C-59.86954602 318.60523158 -59.88865058 306.57218929 -59.9168822 294.53905774 C-59.94564906 282.17998675 -59.95942018 269.82097687 -59.95769465 257.46187156 C-59.95703171 250.5248208 -59.96248067 243.58790137 -59.98405075 236.65088081 C-60.00422792 230.1198405 -60.00354985 223.58902934 -59.98901749 217.0579586 C-59.9869292 214.66470052 -59.9916314 212.27142509 -60.0037384 209.87819672 C-60.01923444 206.60191101 -60.00985285 203.32657433 -59.99447632 200.05030823 C-60.00476344 199.11097665 -60.01505057 198.17164507 -60.02564943 197.2038489 C-59.91781891 186.75190166 -56.3804565 178.05890364 -49.5 170.25 C-48.71302734 169.32380859 -48.71302734 169.32380859 -47.91015625 168.37890625 C-42.3193164 162.26186971 -35.60923854 158.77269545 -27.5 157.25 C-27.51571045 156.60562988 -27.5314209 155.96125977 -27.54760742 155.29736328 C-27.61070901 152.32333471 -27.64922586 149.34944771 -27.6875 146.375 C-27.71263672 145.36179688 -27.73777344 144.34859375 -27.76367188 143.3046875 C-27.86518156 132.74768076 -26.11259044 124.90000202 -18.6953125 117.16796875 C-14.80685552 113.77075812 -10.80085836 111.25 -5.5 111.25 C-5.50184359 110.69008677 -5.50368717 110.13017353 -5.50558662 109.55329323 C-5.54971796 95.94158293 -5.58270572 82.32988513 -5.60362434 68.71811867 C-5.61407927 62.13561978 -5.62826959 55.55317238 -5.65087891 48.97070312 C-5.67254641 42.62299465 -5.68455573 36.27533582 -5.68975449 29.92759323 C-5.69346122 27.50099277 -5.70069911 25.07439514 -5.71146011 22.6478157 C-5.72589404 19.25945326 -5.72798134 15.8712982 -5.72705078 12.48291016 C-5.73424133 11.47087021 -5.74143188 10.45883026 -5.74884033 9.41612244 C-5.746091 8.49623032 -5.74334167 7.5763382 -5.74050903 6.62857056 C-5.74235262 5.82661066 -5.74419621 5.02465076 -5.74609566 4.19838905 C-5.26470287 0.38710506 -3.57987652 0.25570547 0 0 Z M-14.33618164 171.66357422 C-14.7202417 172.18709473 -15.10430176 172.71061523 -15.5 173.25 C-16.12390625 173.98863281 -16.7478125 174.72726563 -17.390625 175.48828125 C-17.83921875 176.17277344 -18.2878125 176.85726562 -18.75 177.5625 C-19.20890625 178.23925781 -19.6678125 178.91601562 -20.140625 179.61328125 C-23.84257593 186.79378952 -24.93826424 193.39068565 -24.86076355 201.40565491 C-24.86332682 202.38931374 -24.8658901 203.37297258 -24.86853105 204.38643926 C-24.87344737 207.66152354 -24.85701138 210.93614028 -24.84057617 214.21118164 C-24.83972944 216.56715891 -24.84020595 218.92313696 -24.84190369 221.27911377 C-24.84276324 227.66067838 -24.82514366 234.0420733 -24.80418181 240.42359853 C-24.78731176 246.42137303 -24.78431012 252.41914787 -24.7812262 258.41694158 C-24.77467095 270.29158345 -24.75473502 282.16616327 -24.72631836 294.04077148 C-24.69875375 305.5713673 -24.67753195 317.10194622 -24.66479492 328.63256836 C-24.66400675 329.34409579 -24.66321858 330.05562322 -24.66240653 330.78871209 C-24.65849123 334.35846931 -24.65470015 337.92822664 -24.65097082 341.49798405 C-24.61990377 371.08203812 -24.56461632 400.66599612 -24.5 430.25 C-0.08 430.25 24.34 430.25 49.5 430.25 C49.58822274 399.95600921 49.66206361 369.66210667 49.70426132 339.36802537 C49.709264 335.78953947 49.7144413 332.21105385 49.71972656 328.63256836 C49.72130043 327.56397415 49.72130043 327.56397415 49.72290608 326.47379219 C49.74029966 314.94677987 49.77183154 303.41984755 49.80861118 291.89288265 C49.84604982 280.06048434 49.86824202 268.22812785 49.87635398 256.39567274 C49.88134448 249.75151252 49.89382108 243.10750099 49.92292023 236.46339607 C49.95009394 230.20816797 49.95844087 223.95319565 49.95243073 217.69791412 C49.95353007 215.40378618 49.96147202 213.10964959 49.9768219 210.81557274 C49.99677985 207.67862101 49.99191741 204.54262976 49.98101807 201.40565491 C49.99849512 200.0500733 49.99849512 200.0500733 50.01632524 198.66710621 C49.93444859 189.9239651 46.56144301 181.64818984 40.5 175.25 C33.4139787 169.55493844 26.8622388 166.95620847 17.72265625 166.84375 C16.62829506 166.82664978 16.62829506 166.82664978 15.51182556 166.8092041 C13.97644768 166.79040678 12.44099098 166.7772772 10.90551758 166.76953125 C8.57163904 166.75007618 6.24125966 166.68794261 3.90820312 166.625 C-6.20245255 166.29233375 -6.20245255 166.29233375 -14.33618164 171.66357422 Z " fill="#284268" transform="translate(404.5,10.75)"/>
<path d="M0 0 C7.72174494 0.25570605 11.57018386 2.63803 16.93017578 8.21484375 C19.92999688 11.1766801 23.2830253 13.74039739 26.55908203 16.38720703 C28.02392231 17.59135818 29.48744845 18.79710961 30.94970703 20.00439453 C32.05668945 20.91656738 32.05668945 20.91656738 33.18603516 21.84716797 C34.68473307 23.08219401 36.18343099 24.31722005 37.68212891 25.55224609 C45.28392853 31.81626176 52.88788782 38.07724882 60.51611328 44.30908203 C63.49632544 46.75070163 66.46949876 49.20068181 69.44165039 51.65209961 C76.07283392 57.12028242 82.71189317 62.57876347 89.37158203 68.01220703 C90.0518042 68.5694043 90.73202637 69.12660156 91.43286133 69.70068359 C94.75424397 72.46661863 94.75424397 72.46661863 98.43408203 74.69970703 C98.43408203 75.35970703 98.43408203 76.01970703 98.43408203 76.69970703 C39.03408203 76.69970703 -20.36591797 76.69970703 -81.56591797 76.69970703 C-77.55125689 71.3468256 -73.87099266 66.75485063 -69.12841797 62.19970703 C-64.99980048 58.20555597 -61.11801605 54.10145598 -57.36303711 49.75292969 C-54.33572909 46.29420663 -51.1657936 42.97204737 -48.00341797 39.63720703 C-46.5904077 38.14134926 -45.17765212 36.64525086 -43.76513672 35.14892578 C-43.06179199 34.40433105 -42.35844727 33.65973633 -41.63378906 32.89257812 C-38.51750202 29.58791576 -35.41472416 26.27075743 -32.31591797 22.94970703 C-31.75026123 22.34352539 -31.18460449 21.73734375 -30.60180664 21.11279297 C-26.14913248 16.33569225 -21.71604226 11.54064982 -17.29541016 6.73388672 C-11.62128552 0.56945445 -8.21821731 0.03816746 0 0 Z " fill="#42A1FE" transform="translate(191.56591796875,176.30029296875)"/>
<path d="M0 0 C17.16 0 34.32 0 52 0 C53.50922779 3.77306946 54.49483131 6.82616528 55.296875 10.734375 C55.53011475 11.85231445 55.76335449 12.97025391 56.00366211 14.12207031 C56.37309937 15.91789551 56.37309937 15.91789551 56.75 17.75 C58.67970953 26.95240973 60.69892171 36.11777165 62.9375 45.25 C65.38889302 55.28328363 67.66536816 65.34879546 69.875 75.4375 C70.03233612 76.15256714 70.18967224 76.86763428 70.35177612 77.60437012 C70.79692782 79.6302389 71.23894283 81.65676214 71.6796875 83.68359375 C71.93476074 84.85462646 72.18983398 86.02565918 72.45263672 87.23217773 C73 90 73 90 73 92 C42.31 92 11.62 92 -20 92 C-18.87684929 80.76849287 -18.87684929 80.76849287 -17.87109375 76.85546875 C-17.64478271 75.95014404 -17.41847168 75.04481934 -17.18530273 74.11206055 C-16.81514038 72.66440308 -16.81514038 72.66440308 -16.4375 71.1875 C-13.34389102 58.72976357 -10.62778475 46.20604229 -7.98022461 33.6472168 C-5.57525685 22.34208137 -2.80844 11.23375999 0 0 Z " fill="#8579F3" transform="translate(225,382)"/>
<path d="M0 0 C0.96955124 0.00141495 1.93910248 0.0028299 2.93803406 0.00428772 C6.02512742 0.00987112 9.11214742 0.02242061 12.19921875 0.03515625 C14.29622291 0.04017339 16.39322821 0.04473593 18.49023438 0.04882812 C23.62242396 0.05983513 28.75455893 0.07708837 33.88671875 0.09765625 C33.88671875 0.42765625 33.88671875 0.75765625 33.88671875 1.09765625 C32.97905762 1.10176514 32.07139648 1.10587402 31.13623047 1.11010742 C27.74726249 1.13718278 24.36007762 1.18636203 20.97167969 1.25024414 C19.50922693 1.2733474 18.0466096 1.28780183 16.58398438 1.29321289 C14.47292451 1.30256023 12.36442509 1.34366446 10.25390625 1.390625 C8.98659668 1.40633545 7.71928711 1.4220459 6.41357422 1.43823242 C1.1409637 2.42406386 -1.4747001 5.14135457 -4.90625 9.23828125 C-5.36644531 9.934375 -5.82664062 10.63046875 -6.30078125 11.34765625 C-6.76871094 12.0334375 -7.23664063 12.71921875 -7.71875 13.42578125 C-11.46004417 20.59397511 -12.55501672 27.23543181 -12.51200867 35.25331116 C-12.51865549 36.23696999 -12.52530232 37.22062883 -12.53215057 38.23409551 C-12.55070811 41.50911674 -12.54818012 44.7837703 -12.5456543 48.05883789 C-12.55467586 50.41482049 -12.56500404 52.77079839 -12.57653809 55.12677002 C-12.60408771 61.50827739 -12.61338991 67.88969565 -12.61939216 74.27125478 C-12.62782921 80.26906752 -12.64996055 86.26682331 -12.67201064 92.26459783 C-12.71522219 104.13919037 -12.74522104 116.01377769 -12.7668457 127.88842773 C-12.78787231 139.41905278 -12.81516204 150.94963515 -12.85083008 162.48022461 C-12.8530289 163.19175204 -12.85522773 163.90327947 -12.85749318 164.63636834 C-12.86856326 168.20612599 -12.87975599 171.77588323 -12.89100969 175.3456403 C-12.98411501 204.9296136 -13.05330393 234.51359328 -13.11328125 264.09765625 C11.30671875 264.09765625 35.72671875 264.09765625 60.88671875 264.09765625 C60.88671875 264.42765625 60.88671875 264.75765625 60.88671875 265.09765625 C28.21671875 265.09765625 -4.45328125 265.09765625 -38.11328125 265.09765625 C-38.24568036 234.72733752 -38.35641636 204.3572175 -38.41967323 173.98669533 C-38.42717701 170.39705419 -38.43494299 166.80741366 -38.44287109 163.21777344 C-38.44444496 162.50317362 -38.44601882 161.7885738 -38.44764037 161.05231944 C-38.47371219 149.49818136 -38.52099954 137.94422333 -38.57619803 126.39019188 C-38.63240808 114.52501497 -38.66565519 102.65993202 -38.67781222 90.79462743 C-38.6852893 84.13408539 -38.70394672 77.47387093 -38.74766159 70.81343842 C-38.78850629 64.53923931 -38.80092594 58.2656143 -38.79192734 51.99129486 C-38.79357264 49.69357174 -38.80543604 47.39582864 -38.8285141 45.09822083 C-38.96514389 30.78897418 -38.6312551 20.40397335 -28.86328125 9.16015625 C-20.28915389 1.36722716 -11.11066476 -0.0612245 0 0 Z " fill="#2B7BBE" transform="translate(393.11328125,176.90234375)"/>
<path d="M0 0 C2.41858991 0.0085153 4.83481578 -0.02032684 7.25317383 -0.05200195 C17.94696171 -0.10072112 27.74316867 0.7241155 35.84449768 8.56370544 C41.89516813 15.48734452 43.21457714 22.78325198 42.9777832 31.70385742 C42.9727478 32.61772217 42.9677124 33.53158691 42.96252441 34.47314453 C42.93665137 37.83943717 42.86684744 41.20527746 42.80200195 44.57104492 C42.69887695 52.11979492 42.59575195 59.66854492 42.48950195 67.44604492 C16.08950195 67.44604492 -10.31049805 67.44604492 -37.51049805 67.44604492 C-37.61362305 59.71166992 -37.71674805 51.97729492 -37.82299805 44.00854492 C-37.86851807 41.58454346 -37.91403809 39.16054199 -37.9609375 36.66308594 C-37.97555624 34.71705504 -37.98829362 32.77100872 -37.9987793 30.82495117 C-38.02435913 29.83458862 -38.04993896 28.84422607 -38.07629395 27.82385254 C-38.08130773 19.74664754 -35.7387763 14.31735421 -30.58862305 8.14135742 C-29.9853418 7.6231543 -29.38206055 7.10495117 -28.76049805 6.57104492 C-28.1675293 6.03737305 -27.57456055 5.50370117 -26.96362305 4.95385742 C-18.54017953 -0.22360945 -9.60109383 -0.05152992 0 0 Z " fill="#FE5980" transform="translate(95.510498046875,406.553955078125)"/>
<path d="M0 0 C17.16 0 34.32 0 52 0 C52 0.33 52 0.66 52 1 C38.635 1.495 38.635 1.495 25 2 C24.56429687 4.01996094 24.12859375 6.03992188 23.6796875 8.12109375 C20.67055523 22.02546437 17.59724717 35.90140683 14.20947266 49.71948242 C11.93845606 59.06289801 9.94109444 68.46011994 8.00366211 77.87792969 C7.77042236 78.99586914 7.53718262 80.11380859 7.296875 81.265625 C7.09416992 82.25336914 6.89146484 83.24111328 6.68261719 84.25878906 C6 87 6 87 4 92 C-3.92 92 -11.84 92 -20 92 C-18.87684929 80.76849287 -18.87684929 80.76849287 -17.87109375 76.85546875 C-17.64478271 75.95014404 -17.41847168 75.04481934 -17.18530273 74.11206055 C-16.81514038 72.66440308 -16.81514038 72.66440308 -16.4375 71.1875 C-13.34389102 58.72976357 -10.62778475 46.20604229 -7.98022461 33.6472168 C-5.57525685 22.34208137 -2.80844 11.23375999 0 0 Z " fill="#6D68E0" transform="translate(225,382)"/>
<path d="M0 0 C0.87591797 0.00322266 1.75183594 0.00644531 2.65429688 0.00976562 C3.52634766 -0.00634766 4.39839844 -0.02246094 5.296875 -0.0390625 C6.55467773 -0.0400293 6.55467773 -0.0400293 7.83789062 -0.04101562 C8.60544678 -0.04399658 9.37300293 -0.04697754 10.16381836 -0.05004883 C12.70698397 0.41116268 13.59307073 1.36623 15.21679688 3.32226562 C14.20617187 4.14726562 13.19554687 4.97226563 12.15429688 5.82226562 C9.50917428 8.08625521 7.17030475 10.41987941 4.91210938 13.06835938 C1.42468606 17.10496496 -2.18342529 21.00697325 -5.84570312 24.88476562 C-7.16615966 26.28827596 -8.48646867 27.6919251 -9.80664062 29.09570312 C-10.46889648 29.79920898 -11.13115234 30.50271484 -11.81347656 31.22753906 C-21.19540317 41.20484822 -30.5020774 51.25125686 -39.78320312 61.32226562 C-43.74320313 65.61226563 -47.70320313 69.90226562 -51.78320312 74.32226562 C-0.63320312 74.32226562 50.51679688 74.32226562 103.21679688 74.32226562 C103.21679688 74.98226562 103.21679688 75.64226562 103.21679688 76.32226562 C43.81679687 76.32226562 -15.58320313 76.32226562 -76.78320312 76.32226562 C-72.76854205 70.96938419 -69.08827781 66.37740922 -64.34570312 61.82226562 C-60.21708564 57.82811457 -56.3353012 53.72401457 -52.58032227 49.37548828 C-49.55301425 45.91676523 -46.38307876 42.59460597 -43.22070312 39.25976562 C-41.80769286 37.76390785 -40.39493728 36.26780945 -38.98242188 34.77148438 C-38.27907715 34.02688965 -37.57573242 33.28229492 -36.85107422 32.51513672 C-33.73478718 29.21047436 -30.63200932 25.89331602 -27.53320312 22.57226562 C-26.96754639 21.96608398 -26.40188965 21.35990234 -25.8190918 20.73535156 C-21.36641764 15.95825085 -16.93332741 11.16320841 -12.51269531 6.35644531 C-7.9804982 1.43261584 -6.62053435 0.05606303 0 0 Z " fill="#2B7ABC" transform="translate(186.783203125,176.677734375)"/>
<path d="M0 0 C1.6933475 0.01507142 3.38670794 0.02875549 5.08007812 0.04101562 C9.19954222 0.07383296 13.3183763 0.12547937 17.4375 0.1875 C17.4375 0.5175 17.4375 0.8475 17.4375 1.1875 C16.84324219 1.17066162 16.24898437 1.15382324 15.63671875 1.13647461 C4.07865307 0.57894138 4.07865307 0.57894138 -6.6328125 3.9765625 C-13.66386252 11.75616537 -15.01028963 20.37752065 -15.07421875 30.46875 C-15.09216995 31.52284058 -15.11012115 32.57693115 -15.12861633 33.66296387 C-15.18246756 37.00443615 -15.21653452 40.34576765 -15.25 43.6875 C-15.28319526 45.96356115 -15.31768694 48.23960378 -15.35351562 50.515625 C-15.44060174 56.07293413 -15.50088739 61.6296175 -15.5625 67.1875 C-23.8125 67.1875 -32.0625 67.1875 -40.5625 67.1875 C-40.67767094 60.51526331 -40.77709807 53.84651324 -40.8371582 47.17407227 C-40.86220931 44.90735143 -40.89625998 42.64071063 -40.93969727 40.37426758 C-41.0007622 37.10477893 -41.02880478 33.83636371 -41.05078125 30.56640625 C-41.07658768 29.56291641 -41.1023941 28.55942657 -41.12898254 27.52552795 C-41.13215171 19.46685789 -38.7777282 14.04315984 -33.640625 7.8828125 C-33.03734375 7.36460937 -32.4340625 6.84640625 -31.8125 6.3125 C-31.21953125 5.77882813 -30.6265625 5.24515625 -30.015625 4.6953125 C-20.59960596 -1.0922406 -10.62950901 -0.16487093 0 0 Z " fill="#DE3465" transform="translate(98.5625,406.8125)"/>
<path d="M0 0 C-3.76731343 5.5476472 -8.10164349 10.23587029 -12.89086914 14.92211914 C-16.23808907 18.20548477 -19.34853287 21.60828136 -22.390625 25.171875 C-24.53495321 27.6076653 -26.84210381 29.8545078 -29.1574707 32.1262207 C-30.93400156 33.9328822 -32.59467736 35.79380836 -34.24609375 37.71484375 C-37.91403208 41.9329244 -41.7165439 46.00699013 -45.5625 50.0625 C-46.96121911 51.54270269 -48.35965039 53.02317742 -49.7578125 54.50390625 C-50.45938477 55.24656738 -51.16095703 55.98922852 -51.88378906 56.75439453 C-55.85457395 60.96797083 -59.79981898 65.20536143 -63.74633789 69.44165039 C-68.92289548 74.99673851 -68.92289548 74.99673851 -71.68383789 75.11352539 C-72.85164795 75.10828857 -74.01945801 75.10305176 -75.22265625 75.09765625 C-77.11274414 75.09282227 -77.11274414 75.09282227 -79.04101562 75.08789062 C-80.38151109 75.07953403 -81.72200588 75.07106907 -83.0625 75.0625 C-84.40689942 75.0574866 -85.7513006 75.05292342 -87.09570312 75.04882812 C-90.39717941 75.03699488 -93.69856803 75.02050971 -97 75 C-93.11324632 71.00959955 -89.03110029 67.32324623 -84.8125 63.6875 C-84.14395996 63.10991943 -83.47541992 62.53233887 -82.78662109 61.93725586 C-78.52392275 58.27022515 -74.20204489 54.69916976 -69.78515625 51.21875 C-66.00832554 48.20999847 -62.28668727 45.13602746 -58.5625 42.0625 C-57.07422256 40.8346308 -55.58594138 39.60676613 -54.09765625 38.37890625 C-53.03635498 37.50322998 -53.03635498 37.50322998 -51.95361328 36.60986328 C-48.61804175 33.86120561 -45.26952745 31.12844742 -41.921875 28.39453125 C-38.92234957 25.93636402 -35.93189383 23.46749838 -32.94287109 20.99658203 C-30.75517301 19.19176765 -28.56149804 17.39442199 -26.3671875 15.59765625 C-23.4909956 13.24004853 -20.64634207 10.85103268 -17.8203125 8.43359375 C-16.50542476 7.33047114 -15.19033003 6.22759519 -13.875 5.125 C-13.28428711 4.60703857 -12.69357422 4.08907715 -12.08496094 3.55541992 C-7.98780617 0.16228166 -5.26823152 -0.54961194 0 0 Z " fill="#F786B3" transform="translate(166,177)"/>
<path d="M0 0 C19.8 0 39.6 0 60 0 C58.71503285 8.99477003 55.29138084 16.10680294 47.96484375 21.75 C40.35697523 26.58999588 32.95321367 28.13842187 24 27 C15.58634945 25.02901305 8.50127992 20.07782309 3.5859375 12.94921875 C1.14446091 8.42633946 0.77513496 5.42594473 0 0 Z " fill="#FC8600" transform="translate(149,262)"/>
<path d="M0 0 C4.61028728 2.62210089 7.97918247 6.08031003 10 11 C10.22705078 13.65722656 10.22705078 13.65722656 10.1953125 16.640625 C10.19031738 17.60516602 10.18532227 18.56970703 10.18017578 19.56347656 C10.16196777 20.7800293 10.14375977 21.99658203 10.125 23.25 C10.08375 27.1275 10.0425 31.005 10 35 C-0.89 35 -11.78 35 -23 35 C-23.0825 31.16375 -23.165 27.3275 -23.25 23.375 C-23.28641602 22.17665527 -23.32283203 20.97831055 -23.36035156 19.74365234 C-23.4254228 13.49366465 -23.26396989 9.70587222 -19 5 C-12.9690152 -0.31301042 -7.98272037 -1.23732166 0 0 Z " fill="#6C7385" transform="translate(411,132)"/>
<path d="M0 0 C2.5625 0.3125 2.5625 0.3125 4.19839478 1.3203125 C6.35238543 4.4660766 5.97903264 7.81829063 5.95068359 11.5 C5.95594055 12.33442627 5.96119751 13.16885254 5.96661377 14.02856445 C5.97983049 16.79006605 5.97106986 19.55099242 5.9609375 22.3125 C5.96295776 24.22916779 5.96586879 26.14583484 5.96963501 28.0625 C5.97406063 32.08080356 5.96761965 36.09890716 5.95361328 40.1171875 C5.93652128 45.27246008 5.94636119 50.42726414 5.96433067 55.58251953 C5.97516208 59.54072613 5.97172512 63.49882133 5.9639473 67.45703125 C5.96194351 69.35807348 5.9644108 71.25912576 5.97138596 73.16015625 C5.97898987 75.8153774 5.96741136 78.46983578 5.95068359 81.125 C5.95979263 82.30799683 5.95979263 82.30799683 5.96908569 83.51489258 C5.9071752 88.80912415 5.9071752 88.80912415 4.19839478 91.3046875 C1.87383408 92.73676086 0.23603197 92.65526051 -2.4375 92.3125 C-5.01315277 89.73684723 -4.68181298 88.01192928 -4.70855713 84.50128174 C-4.70450867 83.68874939 -4.70046021 82.87621704 -4.69628906 82.0390625 C-4.6997937 81.18366882 -4.70329834 80.32827515 -4.70690918 79.44696045 C-4.71573477 76.61039186 -4.70987445 73.77407127 -4.703125 70.9375 C-4.70447141 68.97216748 -4.70641174 67.00683528 -4.70892334 65.04150391 C-4.71187572 60.91891311 -4.70757328 56.79640887 -4.69824219 52.67382812 C-4.6868476 47.3806367 -4.69340646 42.08764809 -4.70538712 36.79446411 C-4.71260263 32.73509178 -4.71031921 28.6757678 -4.70513153 24.61639404 C-4.70379418 22.66428605 -4.70544573 20.71217372 -4.71009064 18.7600708 C-4.7151508 16.03524085 -4.70745288 13.31074264 -4.69628906 10.5859375 C-4.70033752 9.77340515 -4.70438599 8.9608728 -4.70855713 8.12371826 C-4.65121324 0.59630939 -4.65121324 0.59630939 0 0 Z " fill="#28446B" transform="translate(370.4375,235.6875)"/>
<path d="M0 0 C4.47883404 1.46423421 6.66520833 4.20636129 9.25 8.0625 C10.2894775 11.1809325 10.36494838 13.33725586 10.34765625 16.60546875 C10.34443359 17.67861328 10.34121094 18.75175781 10.33789062 19.85742188 C10.32951172 20.97697266 10.32113281 22.09652344 10.3125 23.25 C10.30798828 24.38115234 10.30347656 25.51230469 10.29882812 26.67773438 C10.28703511 29.47267876 10.26909957 32.26759599 10.25 35.0625 C3.98 35.0625 -2.29 35.0625 -8.75 35.0625 C-8.85845368 31.06176415 -8.93754625 27.064001 -9 23.0625 C-9.03351563 21.93714844 -9.06703125 20.81179687 -9.1015625 19.65234375 C-9.18410267 12.59515949 -8.56402568 8.05193292 -4.75 2.0625 C-2.75 0.0625 -2.75 0.0625 0 0 Z " fill="#6B7385" transform="translate(185.75,131.9375)"/>
<path d="M0 0 C0.680625 -0.01417969 1.36125 -0.02835938 2.0625 -0.04296875 C4 0.1875 4 0.1875 7 2.1875 C6.236875 2.538125 5.47375 2.88875 4.6875 3.25 C1.25449784 5.72495504 0.06993066 8.20072952 -1 12.1875 C-1.48922812 16.49667901 -1.6012673 20.79119103 -1.6875 25.125 C-1.72166016 26.28580078 -1.75582031 27.44660156 -1.79101562 28.64257812 C-1.87305613 31.49055574 -1.93821527 34.33901096 -2 37.1875 C4.27 37.1875 10.54 37.1875 17 37.1875 C17 37.5175 17 37.8475 17 38.1875 C5.78 38.1875 -5.44 38.1875 -17 38.1875 C-17.0825 34.02125 -17.165 29.855 -17.25 25.5625 C-17.28641602 24.25974121 -17.32283203 22.95698242 -17.36035156 21.61474609 C-17.43549245 13.78676246 -16.86431577 10.16519422 -11.40234375 4.54296875 C-7.59410068 1.50652961 -4.86028698 0.04602544 0 0 Z " fill="#525B6F" transform="translate(179,129.8125)"/>
<path d="M0 0 C1.09570312 0.00902344 2.19140625 0.01804688 3.3203125 0.02734375 C4.16335938 0.03894531 5.00640625 0.05054688 5.875 0.0625 C4.63802083 1.49479167 3.40104167 2.92708333 2.1640625 4.359375 C-0.7148623 8.16304534 -1.39325303 11.15876579 -1.5390625 15.921875 C-1.59707031 17.59443359 -1.59707031 17.59443359 -1.65625 19.30078125 C-1.70265625 21.03908203 -1.70265625 21.03908203 -1.75 22.8125 C-1.80800781 24.57400391 -1.80800781 24.57400391 -1.8671875 26.37109375 C-1.96139492 29.26797204 -2.04428383 32.16521441 -2.125 35.0625 C-7.075 35.0625 -12.025 35.0625 -17.125 35.0625 C-17.2331605 31.18674892 -17.3124032 27.31403041 -17.375 23.4375 C-17.40851563 22.34308594 -17.44203125 21.24867188 -17.4765625 20.12109375 C-17.55365482 13.76097752 -17.46989964 9.85768924 -13.125 5.0625 C-8.47546629 0.96648221 -6.15940594 -0.0655256 0 0 Z " fill="#535D70" transform="translate(405.125,131.9375)"/>
<path d="M0 0 C19.8 0 39.6 0 60 0 C60 0.33 60 0.66 60 1 C45.15 1 30.3 1 15 1 C18.05351195 11.17837316 21.0263288 19.01755254 30 25 C33.22433127 25.873938 33.22433127 25.873938 36 26 C36 26.33 36 26.66 36 27 C25.22375238 27.66657202 17.54979134 26.23171941 9.125 19.25 C2.86609845 13.28966796 1.22099893 8.54699251 0 0 Z " fill="#C2701E" transform="translate(149,262)"/>
<path d="M0 0 C4.95 0 9.9 0 15 0 C17.57782793 6.07036899 19.04852474 10.33967317 20 17 C12.08 17 4.16 17 -4 17 C-3.17884081 10.43072651 -2.16535066 6.02532357 0 0 Z " fill="#6B7385" transform="translate(243,355)"/>
<path d="M0 0 C10.23 0 20.46 0 31 0 C29.83182953 5.84085234 28.69985568 6.65587192 24 10 C19.88721671 12.27285392 15.61484226 12.83983343 11 12 C6.5715622 10.01511091 2.33504587 7.378211 0 3 C0 2.01 0 1.02 0 0 Z " fill="#C9721B" transform="translate(389,452)"/>
<path d="M0 0 C3.3 0 6.6 0 10 0 C10.50588147 1.91512272 11.00448391 3.83216922 11.5 5.75 C11.7784375 6.81734375 12.056875 7.8846875 12.34375 8.984375 C13 12 13 12 13 16 C7.72 16 2.44 16 -3 16 C-2.19642857 4.88392857 -2.19642857 4.88392857 0 0 Z " fill="#6B7285" transform="translate(93,381)"/>
<path d="M0 0 C2.5625 0.3125 2.5625 0.3125 4.203125 1.48828125 C6.07066422 3.99443302 5.92908369 5.71724869 5.875 8.8125 C5.87113281 9.7715625 5.86726563 10.730625 5.86328125 11.71875 C5.5625 14.3125 5.5625 14.3125 3.5625 17.3125 C0.5625 17.625 0.5625 17.625 -2.4375 17.3125 C-4.4375 15.3125 -4.4375 15.3125 -4.703125 12.34375 C-4.69796875 11.1784375 -4.6928125 10.013125 -4.6875 8.8125 C-4.69265625 7.6471875 -4.6978125 6.481875 -4.703125 5.28125 C-4.37138811 1.5736024 -3.76027342 0.48208634 0 0 Z " fill="#28446C" transform="translate(370.4375,203.6875)"/>
<path d="M0 0 C5.61 0 11.22 0 17 0 C15.83835058 5.80824709 14.68627002 6.69204469 10 10 C7.625 10.8125 7.625 10.8125 6 11 C2.6519973 7.20559694 1.6923107 5.07693209 0 0 Z " fill="#FA8501" transform="translate(403,452)"/>
<path d="M0 0 C6.6 0 13.2 0 20 0 C17.39285714 5.21428571 17.39285714 5.21428571 14 7 C9.25066901 7.52770344 7.13780098 7.70204741 3.0625 5.1875 C1 3 1 3 0 0 Z " fill="#F88502" transform="translate(241,484)"/>
<path d="M0 0 C6.6 0 13.2 0 20 0 C17 5 17 5 14 7 C7.34792743 7.76335259 7.34792743 7.76335259 4.14453125 5.94921875 C2.5 4.625 2.5 4.625 0 2 C0 1.34 0 0.68 0 0 Z " fill="#F78403" transform="translate(88,484)"/>
<path d="M0 0 C2.3125 -0.3125 2.3125 -0.3125 5 0 C6.6875 2.375 6.6875 2.375 8 5 C8.66 5.66 9.32 6.32 10 7 C6.4257023 6.67506385 4.44287547 6.36129314 1.625 4.0625 C0 2 0 2 0 0 Z " fill="#C7721B" transform="translate(88,484)"/>
<path d="M0 0 C1.65 0 3.3 0 5 0 C5.99 2.31 6.98 4.62 8 7 C4.59679258 5.98823563 3.24274669 5.35156418 1.1875 2.375 C0.795625 1.59125 0.40375 0.8075 0 0 Z " fill="#C2701E" transform="translate(241,484)"/>
</svg>
