<?xml version="1.0" encoding="UTF-8"?>
<svg version="1.1" xmlns="http://www.w3.org/2000/svg" width="512" height="512">
<path d="M0 0 C1.40971872 -0.00701996 1.40971872 -0.00701996 2.8479166 -0.01418173 C6.00479199 -0.02617116 9.16123644 -0.01665896 12.31811523 -0.00723267 C14.57819879 -0.01129661 16.83828036 -0.01663748 19.09835815 -0.02316284 C25.24287136 -0.0368633 31.38723381 -0.03152647 37.53174973 -0.02202559 C43.95476444 -0.01444315 50.37776604 -0.02147065 56.80078125 -0.02618408 C68.27961197 -0.03199585 79.75835901 -0.02265861 91.23717558 -0.00740607 C101.6466765 0.00599735 112.05607706 0.00366933 122.46557617 -0.01016235 C134.5513901 -0.02621391 146.63712819 -0.03219456 158.72295666 -0.02332556 C165.12149148 -0.01864258 171.51995714 -0.01804138 177.91848755 -0.02793503 C183.93326848 -0.03658526 189.94785943 -0.03061824 195.96261978 -0.01325226 C198.17336842 -0.00927703 200.38413298 -0.01043908 202.59487534 -0.01704025 C205.60627391 -0.0252048 208.61705879 -0.01499563 211.62841797 0 C212.50895623 -0.00669217 213.3894945 -0.01338433 214.29671574 -0.02027929 C220.19526427 0.03692538 220.19526427 0.03692538 223.33699036 1.78317833 C225.09731308 3.6871588 225.56391574 4.97511681 226.07983398 7.50595093 C226.24741211 8.29485718 226.41499023 9.08376343 226.58764648 9.89657593 C226.74491211 10.71641968 226.90217773 11.53626343 227.06420898 12.38095093 C227.23694336 13.20079468 227.40967773 14.02063843 227.58764648 14.86532593 C228.25715557 18.11722718 228.81420898 21.05037277 228.81420898 24.38095093 C229.63943479 24.37542017 229.63943479 24.37542017 230.48133183 24.36977768 C243.88612114 24.28132569 257.29085911 24.21544799 270.69587803 24.17370224 C277.1785476 24.15283489 283.66100641 24.12453205 290.14355469 24.07919312 C296.40052803 24.03570612 302.65729873 24.01180741 308.91441154 24.00144196 C311.30061978 23.99405581 313.68681703 23.97963243 316.07293892 23.9580307 C319.41735862 23.9289598 322.76094286 23.92499661 326.10546875 23.92684937 C327.58253799 23.90527771 327.58253799 23.90527771 329.08944702 23.88327026 C336.15130975 23.92555339 340.48394091 25.29614086 345.77514648 30.19735718 C346.24178711 30.77356812 346.70842773 31.34977905 347.18920898 31.94345093 C347.91237305 32.81163452 347.91237305 32.81163452 348.65014648 33.69735718 C351.29680412 37.5252412 350.9573211 41.52994579 350.94792175 45.97935486 C350.95018731 46.7604655 350.95245287 47.54157615 350.95478708 48.34635681 C350.96113312 50.97191675 350.96029733 53.59742516 350.95947266 56.22299194 C350.9624637 58.10193957 350.9658661 59.98088657 350.96965027 61.85983276 C350.97849832 66.96913387 350.98082867 72.07841824 350.98146605 77.18772626 C350.98241429 81.44754271 350.98609145 85.70735524 350.98963815 89.96717018 C350.99778516 100.01191877 351.00022209 110.0566584 350.99951172 120.10140991 C350.99891031 130.47892657 351.00947422 140.85639136 351.02525538 151.23389488 C351.03830751 160.13242926 351.04369662 169.03094663 351.04305631 177.92949051 C351.04280071 183.24926732 351.04568615 188.56899802 351.05623436 193.88876534 C351.06587669 198.88818606 351.06602127 203.88751619 351.05871773 208.88694 C351.05766717 210.72603169 351.06006246 212.5651289 351.06607819 214.40421104 C351.07373468 216.90609268 351.06919592 219.40765642 351.06144714 221.90953064 C351.06659071 222.64482972 351.07173427 223.3801288 351.0770337 224.13770968 C351.04248061 229.1526793 351.04248061 229.1526793 348.81420898 231.38095093 C346.16952559 231.57814019 343.62955946 231.64864201 340.98365784 231.63263321 C340.16139973 231.63554009 339.33914162 231.63844697 338.49196661 231.64144194 C335.70681156 231.64880362 332.92187259 231.64177008 330.13671875 231.63491821 C328.13176389 231.63722021 326.12680988 231.64039497 324.12185764 231.6443727 C318.58904998 231.65276521 313.05631082 231.64857533 307.52350283 231.64240026 C301.56570235 231.63789489 295.60791406 231.64484997 289.65011597 231.65036011 C278.64555576 231.65876032 267.64101604 231.65800294 256.63645503 231.65253717 C246.47159307 231.64751303 236.30673917 231.64618939 226.14187622 231.64858246 C225.46853941 231.64873523 224.79520261 231.648888 224.10146166 231.6490454 C221.36841037 231.64966804 218.63535909 231.65030484 215.90230781 231.65096493 C190.2457342 231.65708778 164.58917459 231.65152832 138.93260314 231.64077113 C116.12066997 231.63127939 93.30875914 231.63212862 70.49682617 231.64169312 C44.88823447 231.6523942 19.27965515 231.65665361 -6.32893848 231.65046859 C-9.05711174 231.64982712 -11.78528499 231.64920144 -14.51345825 231.64858246 C-15.52113318 231.64834523 -15.52113318 231.64834523 -16.54916518 231.6481032 C-26.70952782 231.64582487 -36.86988152 231.64849509 -47.03024292 231.65354156 C-58.57894904 231.65924888 -70.12763007 231.65766102 -81.67633319 231.64698008 C-87.57418615 231.64170605 -93.47199367 231.6396959 -99.36984634 231.64627838 C-104.76080186 231.65220435 -110.1516695 231.64901866 -115.54261696 231.63832328 C-117.50085618 231.63607492 -119.45910271 231.63725732 -121.4173373 231.64207485 C-124.06341288 231.64808907 -126.70918082 231.64198767 -129.35523987 231.63263321 C-130.12912603 231.63731554 -130.90301219 231.64199787 -131.70034945 231.64682209 C-136.95749027 231.60925167 -136.95749027 231.60925167 -139.18579102 229.38095093 C-139.38541053 226.8611474 -139.45948199 224.45088292 -139.44648743 221.92971802 C-139.45031297 221.15228406 -139.45413852 220.37485011 -139.45807999 219.57385755 C-139.46844391 216.95447462 -139.46441143 214.33530951 -139.46044922 211.71591187 C-139.46479393 209.84360042 -139.46997627 207.97129076 -139.47593689 206.09898376 C-139.48936687 201.00173454 -139.48990092 195.90455928 -139.48737359 190.8072958 C-139.48630617 186.55535826 -139.49118158 182.30343583 -139.49597901 178.05150151 C-139.50708891 168.01954224 -139.50750387 157.98762041 -139.50146484 147.95565796 C-139.49542833 137.60263595 -139.5077245 127.24974996 -139.52903491 116.89675117 C-139.54664689 108.01430384 -139.55265274 99.13189981 -139.54939717 90.24943566 C-139.54758287 84.94179354 -139.55023474 79.63424835 -139.56411171 74.32662201 C-139.57667814 69.33290494 -139.57475711 64.33939974 -139.56170082 59.34568596 C-139.55933257 57.51311357 -139.5620786 55.68052633 -139.57032394 53.84797096 C-139.5807726 51.34510715 -139.57270597 48.84295658 -139.56001282 46.34011841 C-139.5673871 45.61578857 -139.57476139 44.89145874 -139.58235914 44.14517951 C-139.52199493 38.48245028 -138.11504452 34.45412052 -134.24829102 30.29891968 C-133.56766602 29.72786499 -132.88704102 29.1568103 -132.18579102 28.56845093 C-131.16485352 27.69253296 -131.16485352 27.69253296 -130.12329102 26.79891968 C-127.03274144 24.53708602 -124.43484251 24.25638757 -120.72492981 24.26069641 C-119.81207718 24.25932175 -118.89922455 24.25794708 -117.95870972 24.25653076 C-116.95961578 24.26012604 -115.96052185 24.26372131 -114.93115234 24.26742554 C-113.87732864 24.26727951 -112.82350494 24.26713348 -111.73774719 24.26698303 C-108.24775142 24.26768078 -104.75780874 24.27546677 -101.26782227 24.28329468 C-98.85072356 24.28515935 -96.43362448 24.28658302 -94.01652527 24.2875824 C-87.64937296 24.29140372 -81.2822434 24.30123075 -74.9151001 24.31228638 C-68.42004708 24.32250875 -61.92499039 24.32708179 -55.42993164 24.3321228 C-42.68187505 24.34285334 -29.93383424 24.35973342 -17.18579102 24.38095093 C-17.05156738 23.57343384 -16.91734375 22.76591675 -16.77905273 21.93392944 C-16.60132324 20.8658606 -16.42359375 19.79779175 -16.24047852 18.69735718 C-16.06500488 17.64234009 -15.88953125 16.587323 -15.70874023 15.50033569 C-13.78558807 4.02875998 -13.78558807 4.02875998 -11.71253967 1.78977013 C-7.88797711 -0.34266088 -4.31048499 -0.03276005 0 0 Z " fill="#284369" transform="translate(150.185791015625,259.6190490722656)"/>
<path d="M0 0 C1.16061038 -0.00782324 2.32122076 -0.01564648 3.51700115 -0.02370679 C4.7980111 -0.01701463 6.07902105 -0.01032246 7.39884949 -0.00342751 C8.7687381 -0.00688228 10.13862393 -0.01164563 11.50850391 -0.01760924 C15.28133172 -0.03017378 19.05393292 -0.02392426 22.82676172 -0.01465058 C26.89225992 -0.00788264 30.95771825 -0.01833008 35.02320862 -0.02659035 C42.99084439 -0.03995406 50.95839555 -0.03703823 58.92603469 -0.02835242 C65.39953416 -0.02158664 71.87300985 -0.02065436 78.34651184 -0.02392387 C79.26665913 -0.02438357 80.18680643 -0.02484327 81.13483697 -0.0253169 C83.00389918 -0.02627604 84.87296139 -0.02724868 86.74202359 -0.02823468 C104.28227066 -0.0367963 121.82247075 -0.02694234 139.36271012 -0.01083358 C154.4241779 0.00257031 169.48557632 0.00024243 184.54704285 -0.01358986 C202.0230648 -0.02963205 219.49904553 -0.03597225 236.97507381 -0.02675307 C238.83739153 -0.02579739 240.69970925 -0.02485427 242.56202698 -0.02392387 C243.93659324 -0.02322963 243.93659324 -0.02322963 245.33892852 -0.02252137 C251.80720526 -0.01992739 258.27545593 -0.02431124 264.74372864 -0.03136253 C272.62274428 -0.03976264 280.50167023 -0.03752887 288.38067555 -0.0215203 C292.4032976 -0.01361743 296.42576991 -0.01058009 300.44839096 -0.02046776 C304.12717419 -0.02937373 307.80566816 -0.02455012 311.48442495 -0.0085351 C313.45346275 -0.00356931 315.42252047 -0.01342039 317.39153767 -0.02370679 C318.55214805 -0.01588355 319.71275843 -0.00806031 320.90853882 0 C322.41719655 0.00073059 322.41719655 0.00073059 323.95633221 0.00147593 C326.8441158 0.43621215 327.74020317 1.05598893 329.45426941 3.37752342 C329.84194946 5.27461815 329.84194946 5.27461815 329.85832214 7.43416405 C329.8773484 8.65057579 329.8773484 8.65057579 329.89675903 9.89156151 C329.89235558 11.19945641 329.89235558 11.19945641 329.88786316 12.53377342 C329.89310501 13.4324514 329.89834686 14.33112938 329.90374756 15.25704002 C329.91016988 17.15672841 329.90882803 19.05645654 329.90031433 20.9561367 C329.89180063 23.86684802 329.92056787 26.77559966 329.95231628 29.68611717 C329.95392825 31.53116867 329.95335085 33.37622364 329.95036316 35.22127342 C329.96159714 36.09320335 329.97283112 36.96513329 329.98440552 37.86348534 C329.97502457 38.6744265 329.96564362 39.48536766 329.95597839 40.3208828 C329.95572914 41.38985802 329.95572914 41.38985802 329.95547485 42.4804287 C329.22713097 45.23725695 327.84553222 45.902669 325.45426941 47.37752342 C323.13484573 47.74666691 323.13484573 47.74666691 320.53147888 47.73828697 C319.5415242 47.74241096 318.55156952 47.74653496 317.53161621 47.75078392 C315.91213326 47.73460518 315.91213326 47.73460518 314.25993347 47.71809959 C313.11818161 47.71853767 311.97642975 47.71897575 310.80007935 47.71942711 C307.02317757 47.71733576 303.24671872 47.69398756 299.46989441 47.67049217 C296.85244489 47.66489747 294.23499223 47.66062678 291.61753845 47.65762901 C285.43042576 47.64830794 279.24347225 47.62369345 273.05642962 47.59358054 C266.01175337 47.56003836 258.96706948 47.543551 251.92233324 47.52849424 C237.43289654 47.49714387 222.9435852 47.44438223 208.45426941 47.37752342 C208.43693322 51.35425815 208.49042299 55.32713801 208.55583191 59.30330467 C208.55011169 60.41870628 208.54439148 61.53410789 208.53849792 62.68330956 C208.79288901 74.05375693 213.82459187 79.81145205 221.63249207 87.51912498 C224.35691153 90.29831032 226.67289117 93.34001296 229.01676941 96.44002342 C233.65506172 102.41683662 238.41926757 108.28759301 243.2162323 114.13753319 C244.00115051 115.09744164 244.00115051 115.09744164 244.80192566 116.07674217 C245.26606873 116.64223778 245.73021179 117.20773338 246.2084198 117.79036522 C250.64147712 123.4378874 249.82637118 129.2428796 249.82487488 136.11092186 C249.82925448 138.36982313 249.86559952 140.62677954 249.90348816 142.88533592 C249.90935539 144.32022508 249.91332541 145.75512351 249.91520691 147.19002342 C249.92342468 148.49584373 249.93164246 149.80166405 249.94010925 151.14705467 C249.45426941 154.37752342 249.45426941 154.37752342 247.85565186 156.05561829 C244.62270662 157.83527938 242.23265033 157.75512467 238.54631042 157.75847435 C237.50411142 157.76549431 237.50411142 157.76549431 236.44085789 157.77265608 C234.11310288 157.78462053 231.78593503 157.77514357 229.45817566 157.76570702 C227.78921668 157.76977209 226.12026039 157.7751136 224.4513092 157.78163719 C219.9182972 157.79532431 215.38548983 157.7900064 210.85247421 157.78049994 C206.11109104 157.77291057 201.36972552 157.77994694 196.62834167 157.78465843 C188.66566315 157.79011809 180.70306808 157.78291885 172.74040222 157.7686367 C163.53131072 157.75230979 154.32241847 157.75759814 145.11333179 157.77411592 C137.21005197 157.78772479 129.30683218 157.78965338 121.40354443 157.78179991 C116.68174155 157.7771201 111.96003235 157.77650701 107.23823547 157.78640938 C102.79931932 157.79506805 98.36066034 157.78907731 93.921772 157.77172661 C92.29154513 157.76775588 90.66129665 157.76890583 89.03107834 157.7755146 C86.80783502 157.78369728 84.58541883 157.77344913 82.36222839 157.75847435 C81.11747238 157.75734327 79.87271637 157.7562122 78.59024048 157.75504684 C75.21020729 157.34814204 73.80305363 156.80755215 71.45426941 154.37752342 C70.36841281 149.40506289 70.42653242 144.26965352 70.39176941 139.19002342 C70.38446808 138.46099815 70.37716675 137.73197289 70.36964417 136.98085594 C70.36691629 126.58247674 71.53691958 119.098112 79.05558777 111.42757225 C80.25908401 110.27625489 81.47863644 109.14146028 82.71452332 108.02498436 C85.47767709 105.4084026 87.67807312 102.41528026 89.95426941 99.37752342 C90.83640618 98.24215496 91.72186728 97.1093621 92.61051941 95.97908592 C93.06298035 95.40319725 93.51544128 94.82730858 93.98161316 94.23396873 C97.32139741 90.02380304 100.72622839 85.86569377 104.12809753 81.70564842 C104.64823425 81.06885155 105.16837097 80.43205467 105.70426941 79.77596092 C106.16317566 79.21570213 106.62208191 78.65544334 107.09489441 78.07820702 C107.54348816 77.51698143 107.99208191 76.95575584 108.45426941 76.37752342 C109.22299377 75.51618294 109.22299377 75.51618294 110.00724792 74.63744164 C111.83405661 71.78438225 111.87997878 69.88971628 111.96598816 66.51814842 C112.01916199 64.84558983 112.01916199 64.84558983 112.07341003 63.13924217 C112.09596863 61.98037498 112.11852722 60.8215078 112.14176941 59.62752342 C112.17592957 58.45318748 112.21008972 57.27885155 112.24528503 56.06892967 C112.32772114 53.17188953 112.39688752 50.27515044 112.45426941 47.37752342 C111.8549699 47.3802888 111.25567039 47.38305418 110.6382103 47.38590336 C96.05777591 47.45214849 81.47735041 47.50179683 66.89680099 47.53295994 C59.84575243 47.54843066 52.79480429 47.56952399 45.74382019 47.60384178 C38.94222814 47.63692999 32.14074063 47.65436521 25.33907318 47.66215515 C22.74106959 47.66770829 20.14307186 47.67855185 17.54511261 47.69471359 C13.91281677 47.71641598 10.28095534 47.71949329 6.64860535 47.71809959 C5.02912239 47.73427834 5.02912239 47.73427834 3.37692261 47.75078392 C2.38696793 47.74665993 1.39701324 47.74253593 0.37705994 47.73828697 C-0.48205112 47.74105235 -1.34116219 47.74381773 -2.22630692 47.74666691 C-5.06848709 47.2943251 -6.45047396 46.31763374 -8.54573059 44.37752342 C-9.04693604 42.4804287 -9.04693604 42.4804287 -9.04743958 40.3208828 C-9.05682053 39.50994164 -9.06620148 38.69900047 -9.0758667 37.86348534 C-9.06463272 36.9915554 -9.05339874 36.11962547 -9.04182434 35.22127342 C-9.04327957 34.32259544 -9.0447348 33.42391747 -9.04623413 32.49800682 C-9.04457439 30.59827494 -9.0330047 28.69852973 -9.01228333 26.79891014 C-8.98333813 23.88833663 -8.99167043 20.97958502 -9.00471497 18.06892967 C-8.99847732 16.22386872 -8.99008618 14.37881353 -8.97932434 12.53377342 C-8.98225998 11.66184349 -8.98519562 10.78991356 -8.98822021 9.89156151 C-8.97553604 9.08062035 -8.96285187 8.26967918 -8.94978333 7.43416405 C-8.94438034 6.7215139 -8.93897736 6.00886375 -8.93341064 5.27461815 C-7.92432226 0.33668999 -4.46714525 0.00216327 0 0 Z " fill="#284268" transform="translate(95.54573059082031,20.62247657775879)"/>
<path d="M0 0 C96.36 0 192.72 0 292 0 C292 19.8 292 39.6 292 60 C195.64 60 99.28 60 0 60 C0 40.2 0 20.4 0 0 Z " fill="#54D6D6" transform="translate(110,421)"/>
<path d="M0 0 C96.36 0 192.72 0 292 0 C292 17.82 292 35.64 292 54 C195.64 54 99.28 54 0 54 C0 36.18 0 18.36 0 0 Z " fill="#7BE4E8" transform="translate(110,357)"/>
<path d="M0 0 C96.36 0 192.72 0 292 0 C292 17.49 292 34.98 292 53 C195.64 53 99.28 53 0 53 C0 35.51 0 18.02 0 0 Z " fill="#AAEDE2" transform="translate(110,294)"/>
<path d="M0 0 C104.94 0 209.88 0 318 0 C318 8.58 318 17.16 318 26 C213.06 26 108.12 26 0 26 C0 17.42 0 8.84 0 0 Z " fill="#68D8C4" transform="translate(97,31)"/>
<path d="M0 0 C26.07 0 52.14 0 79 0 C79 29.37 79 58.74 79 89 C52.93 89 26.86 89 0 89 C0 59.63 0 30.26 0 0 Z " fill="#7A8392" transform="translate(412,392)"/>
<path d="M0 0 C26.07 0 52.14 0 79 0 C79 29.37 79 58.74 79 89 C52.93 89 26.86 89 0 89 C0 59.63 0 30.26 0 0 Z " fill="#7B8392" transform="translate(21,392)"/>
<path d="M0 0 C11.75625 -0.103125 23.5125 -0.20625 35.625 -0.3125 C39.32928223 -0.35802002 43.03356445 -0.40354004 46.85009766 -0.45043945 C51.39331055 -0.47302246 51.39331055 -0.47302246 53.52401733 -0.47721863 C55.00383024 -0.48486828 56.48361305 -0.50239568 57.96322632 -0.52787781 C60.21252076 -0.56466001 62.45992106 -0.56952469 64.70947266 -0.56762695 C66.60809555 -0.58428154 66.60809555 -0.58428154 68.54507446 -0.60127258 C73.12112054 0.19511247 74.73216593 1.753876 78 5 C79.54758217 8.09516435 79.1295989 11.35856074 79.11352539 14.75439453 C79.11367142 15.55447937 79.11381744 16.35456421 79.1139679 17.17889404 C79.1132698 19.83022753 79.10548221 22.48149125 79.09765625 25.1328125 C79.0957917 26.96841392 79.09436797 28.80401583 79.09336853 30.63961792 C79.08954623 35.47623055 79.07971839 40.31281327 79.06866455 45.14941406 C79.05664805 50.94969565 79.05204682 56.74998724 79.04621124 62.55027771 C79.0365065 71.36687263 79.01734792 80.18340187 79 89 C52.93 89 26.86 89 0 89 C0 59.63 0 30.26 0 0 Z " fill="#6B7385" transform="translate(412,294)"/>
<path d="M0 0 C1.07087766 -0.0001808 1.07087766 -0.0001808 2.16338921 -0.00036526 C4.47858653 0.00038224 6.79370376 0.00800303 9.10888672 0.01586914 C10.53653932 0.01733907 11.96419246 0.01835947 13.3918457 0.0189209 C18.69076342 0.02416791 23.9896696 0.03812907 29.28857422 0.05102539 C47.04669922 0.08196289 47.04669922 0.08196289 65.16357422 0.11352539 C65.16357422 29.48352539 65.16357422 58.85352539 65.16357422 89.11352539 C39.09357422 89.11352539 13.02357422 89.11352539 -13.83642578 89.11352539 C-14.03696983 68.88977242 -14.03696983 68.88977242 -14.08056641 60.25805664 C-14.11043679 54.37192198 -14.14574343 48.48617684 -14.21362305 42.6003418 C-14.2680166 37.85408897 -14.29786188 33.10825391 -14.310812 28.36171341 C-14.32003871 26.55239918 -14.33805672 24.7431074 -14.36507607 22.93397141 C-14.40146508 20.39615527 -14.40636718 17.86005723 -14.40405273 15.32202148 C-14.42202911 14.57683258 -14.44000549 13.83164368 -14.45852661 13.06387329 C-14.40190347 7.31195748 -12.77879934 4.99491896 -8.83642578 1.11352539 C-5.89395851 -0.35770825 -3.28457556 -0.00572226 0 0 Z " fill="#6C7385" transform="translate(34.83642578125,293.886474609375)"/>
<path d="M0 0 C1.14501984 -0.03263695 1.14501984 -0.03263695 2.31317139 -0.06593323 C4.83092082 -0.12789819 7.34629003 -0.14460262 9.86474609 -0.15551758 C11.62487696 -0.17735607 13.38499877 -0.19993541 15.14511108 -0.22322083 C18.83555548 -0.26363888 22.5251662 -0.27877138 26.21582031 -0.27929688 C30.92203002 -0.28426251 35.62204633 -0.37633969 40.32668495 -0.49112988 C43.96460244 -0.56577376 47.6010555 -0.5806929 51.23966599 -0.57958412 C52.97245441 -0.58845141 54.70527836 -0.61831091 56.43730545 -0.67043114 C70.63323411 -1.05986315 70.63323411 -1.05986315 75.73956299 3.7464447 C78.60989574 6.90464522 80.93761501 10.31521974 83.26318359 13.88745117 C84.2778068 15.18061898 85.3054322 16.46393113 86.35693359 17.72729492 C87.54802734 19.26063477 87.54802734 19.26063477 88.76318359 20.82495117 C89.66535523 21.98393934 90.56770497 23.14278888 91.47021484 24.30151367 C91.92219238 24.88320312 92.37416992 25.46489258 92.83984375 26.06420898 C94.35074651 27.99961581 95.87382901 29.9249249 97.39990234 31.84838867 C97.91037109 32.49300049 98.42083984 33.1376123 98.94677734 33.80175781 C99.93340144 35.04705041 100.92162997 36.29107387 101.91162109 37.53369141 C105.26318359 41.77535912 105.26318359 41.77535912 105.26318359 42.88745117 C57.08318359 42.88745117 8.90318359 42.88745117 -40.73681641 42.88745117 C-36.24128482 36.14415379 -36.24128482 36.14415379 -33.88916016 33.29370117 C-33.37160156 32.66254395 -32.85404297 32.03138672 -32.32080078 31.38110352 C-31.77746094 30.72319824 -31.23412109 30.06529297 -30.67431641 29.38745117 C-25.85343892 23.50636368 -21.09867827 17.58188869 -16.42797852 11.58081055 C-15.20394658 10.01137992 -13.97049031 8.44931396 -12.73681641 6.88745117 C-12.02111481 5.85210739 -11.30541321 4.81676361 -10.56802368 3.75004578 C-7.5832604 0.20705418 -4.44947172 -0.00716653 0 0 Z " fill="#6C7385" transform="translate(223.73681640625,98.112548828125)"/>
<path d="M0 0 C72.6 0 145.2 0 220 0 C220.99 6.435 220.99 6.435 222 13 C148.08 13 74.16 13 -2 13 C-1.34 8.71 -0.68 4.42 0 0 Z " fill="#6B62B4" transform="translate(146,271)"/>
<path d="M0 0 C26.07 0 52.14 0 79 0 C79 29.37 79 58.74 79 89 C52.93 89 26.86 89 0 89 C0 59.63 0 30.26 0 0 Z M25 1 C25 29.71 25 58.42 25 88 C42.49 88 59.98 88 78 88 C78 59.29 78 30.58 78 1 C60.51 1 43.02 1 25 1 Z " fill="#6B7385" transform="translate(21,392)"/>
<path d="M0 0 C0.70254913 -0.00014603 1.40509827 -0.00029205 2.12893677 -0.0004425 C4.45561795 0.00025525 6.78221949 0.0080412 9.10888672 0.01586914 C10.72028561 0.01773381 12.33168506 0.01915748 13.94308472 0.02015686 C18.18786174 0.02397819 22.43260464 0.03380521 26.67736816 0.04486084 C31.0074009 0.05508321 35.33743915 0.05965625 39.66748047 0.06469727 C48.16619406 0.07542781 56.6648799 0.09249964 65.16357422 0.11352539 C65.16357422 0.44352539 65.16357422 0.77352539 65.16357422 1.11352539 C39.91857422 1.60852539 39.91857422 1.60852539 14.16357422 2.11352539 C12.02195761 6.3967586 11.85804237 9.45715825 11.84472656 14.0949707 C11.83468094 14.8953476 11.82463531 15.69572449 11.81428528 16.52035522 C11.78344223 19.16077977 11.76641508 21.80110287 11.74951172 24.44165039 C11.73080097 26.2744026 11.71122762 28.1071462 11.69082642 29.93988037 C11.63948939 34.75995807 11.59987204 39.5800637 11.56268311 44.40026855 C11.5156134 50.18567168 11.4540088 55.97093602 11.39483643 61.75622559 C11.306605 70.54193622 11.23685438 79.32762 11.16357422 88.11352539 C28.98357422 88.11352539 46.80357422 88.11352539 65.16357422 88.11352539 C65.16357422 88.44352539 65.16357422 88.77352539 65.16357422 89.11352539 C39.09357422 89.11352539 13.02357422 89.11352539 -13.83642578 89.11352539 C-14.03696983 68.88977242 -14.03696983 68.88977242 -14.08056641 60.25805664 C-14.11043679 54.37192198 -14.14574343 48.48617684 -14.21362305 42.6003418 C-14.2680166 37.85408897 -14.29786188 33.10825391 -14.310812 28.36171341 C-14.32003871 26.55239918 -14.33805672 24.7431074 -14.36507607 22.93397141 C-14.40146508 20.39615527 -14.40636718 17.86005723 -14.40405273 15.32202148 C-14.42202911 14.57683258 -14.44000549 13.83164368 -14.45852661 13.06387329 C-14.40190347 7.31195748 -12.77879934 4.99491896 -8.83642578 1.11352539 C-5.89395851 -0.35770825 -3.28457556 -0.00572226 0 0 Z " fill="#565E70" transform="translate(34.83642578125,293.886474609375)"/>
<path d="M0 0 C42.24 0 84.48 0 128 0 C128 5.28 128 10.56 128 16 C85.76 16 43.52 16 0 16 C0 10.72 0 5.44 0 0 Z " fill="#565E6F" transform="translate(207,151)"/>
<path d="M0 0 C24.42 0 48.84 0 74 0 C74 7.26 74 14.52 74 22 C49.58 22 25.16 22 0 22 C0 14.74 0 7.48 0 0 Z " fill="#7B8392" transform="translate(219,67)"/>
<path d="M0 0 C1.06451134 0.00607269 1.06451134 0.00607269 2.15052795 0.01226807 C2.89863235 0.00876343 3.64673676 0.00525879 4.41751099 0.00164795 C6.89696967 -0.00717377 9.37614436 -0.00131876 11.85560608 0.00543213 C13.57431595 0.0040856 15.29302545 0.00214518 17.01173401 -0.00036621 C20.61646648 -0.00331807 24.22109994 0.00098212 27.82582092 0.01031494 C32.45314668 0.02170954 37.08024044 0.01515039 41.70755768 0.00317001 C45.2573777 -0.00404694 48.80714245 -0.00176142 52.35696411 0.0034256 C54.06345649 0.00476255 55.76995385 0.00311278 57.47644043 -0.00153351 C59.85882413 -0.00659609 62.24082883 0.00110747 64.6231842 0.01226807 C65.33285843 0.0082196 66.04253265 0.00417114 66.77371216 0 C71.65832702 0.04252807 71.65832702 0.04252807 73.88685608 2.27105713 C74.23400191 4.97879459 74.3326105 6.59014222 72.81593323 8.9069519 C69.85435861 11.00116541 67.30160629 10.65272842 63.7091217 10.65924072 C62.98198471 10.66449768 62.25484772 10.66975464 61.50567627 10.6751709 C59.10126792 10.68837854 56.69752121 10.67963052 54.29310608 10.66949463 C52.62306084 10.67151515 50.95301646 10.67442641 49.28297424 10.67819214 C45.7825226 10.68261651 42.28230057 10.67618091 38.78187561 10.66217041 C34.29245477 10.64507832 29.80357194 10.65491892 25.31417084 10.6728878 C21.86551349 10.68372266 18.41698393 10.6802807 14.96832275 10.67250443 C13.31289608 10.67050159 11.65745785 10.67296464 10.00204468 10.67994308 C7.68924682 10.68755285 5.37732311 10.67596101 3.06459045 10.65924072 C1.74793396 10.65685394 0.43127747 10.65446716 -0.92527771 10.65200806 C-4.11314392 10.27105713 -4.11314392 10.27105713 -6.04222107 8.9069519 C-7.55889834 6.59014222 -7.46028975 4.97879459 -7.11314392 2.27105713 C-4.66788983 -0.17419696 -3.33743396 0.02905749 0 0 Z " fill="#2B496C" transform="translate(138.11314392089844,37.72894287109375)"/>
<path d="M0 0 C1.05456894 -0.00315216 2.10913788 -0.00630432 3.19566345 -0.009552 C4.91747581 -0.00651566 4.91747581 -0.00651566 6.67407227 -0.00341797 C7.84430435 -0.00437469 9.01453644 -0.00533142 10.2202301 -0.00631714 C12.70101983 -0.00699922 15.18181133 -0.00514299 17.66259766 -0.00097656 C21.47049963 0.0043665 25.27828339 -0.00091818 29.08618164 -0.00732422 C31.49047878 -0.00666335 33.89477584 -0.005382 36.29907227 -0.00341797 C37.44492294 -0.0054422 38.59077362 -0.00746643 39.77134705 -0.009552 C40.82906815 -0.00639984 41.88678925 -0.00324768 42.9765625 0 C43.91064438 0.00079559 44.84472626 0.00159119 45.80711365 0.00241089 C48.05297852 0.12939453 48.05297852 0.12939453 50.05297852 1.12939453 C50.24047852 4.50439453 50.24047852 4.50439453 50.05297852 8.12939453 C46.80988594 10.29145625 45.91442109 10.38135543 42.17016602 10.38818359 C40.68347412 10.39764008 40.68347412 10.39764008 39.16674805 10.4072876 C38.0979541 10.40323914 37.02916016 10.39919067 35.92797852 10.39501953 C34.82953613 10.39693298 33.73109375 10.39884644 32.59936523 10.40081787 C30.27595796 10.40217944 27.95254307 10.39848501 25.62915039 10.39013672 C22.06712806 10.37943703 18.50561011 10.39003322 14.94360352 10.40283203 C12.68839407 10.40151043 10.43318493 10.39894803 8.17797852 10.39501953 C6.5747876 10.40109222 6.5747876 10.40109222 4.93920898 10.4072876 C3.94808105 10.40098328 2.95695313 10.39467896 1.93579102 10.38818359 C1.06325684 10.38659241 0.19072266 10.38500122 -0.70825195 10.38336182 C-2.94702148 10.12939453 -2.94702148 10.12939453 -5.94702148 8.12939453 C-6.19702148 4.56689453 -6.19702148 4.56689453 -5.94702148 1.12939453 C-4.2821013 -0.53552566 -2.28740994 0.00194994 0 0 Z " fill="#2E4A6E" transform="translate(233.947021484375,306.87060546875)"/>
<path d="M0 0 C1.48669189 -0.00945648 1.48669189 -0.00945648 3.00341797 -0.019104 C4.60660889 -0.01303131 4.60660889 -0.01303131 6.2421875 -0.00683594 C7.34062988 -0.00874939 8.43907227 -0.01066284 9.57080078 -0.01263428 C11.89420806 -0.01399584 14.21762295 -0.01030141 16.54101562 -0.00195312 C20.10303795 0.00874656 23.66455591 -0.00184963 27.2265625 -0.01464844 C29.48177195 -0.01332684 31.73698108 -0.01076444 33.9921875 -0.00683594 C35.06098145 -0.0108844 36.12977539 -0.01493286 37.23095703 -0.019104 C38.22208496 -0.01279968 39.21321289 -0.00649536 40.234375 0 C41.10690918 0.00159119 41.97944336 0.00318237 42.87841797 0.00482178 C45.1171875 0.25878906 45.1171875 0.25878906 48.1171875 2.25878906 C48.4296875 5.25878906 48.4296875 5.25878906 48.1171875 8.25878906 C45.57445028 10.80152628 44.67279311 10.51143786 41.1484375 10.51757812 C40.11396484 10.52388245 39.07949219 10.53018677 38.01367188 10.53668213 C36.33241211 10.53060944 36.33241211 10.53060944 34.6171875 10.52441406 C32.89725586 10.52728424 32.89725586 10.52728424 31.14257812 10.5302124 C28.71484152 10.53157528 26.28709766 10.52787173 23.859375 10.51953125 C20.13264677 10.50883344 16.40640064 10.51942337 12.6796875 10.53222656 C10.32551976 10.53090499 7.97135233 10.52834263 5.6171875 10.52441406 C4.49634766 10.52846252 3.37550781 10.53251099 2.22070312 10.53668213 C1.18623047 10.53037781 0.15175781 10.52407349 -0.9140625 10.51757812 C-1.82736328 10.51598694 -2.74066406 10.51439575 -3.68164062 10.51275635 C-5.8828125 10.25878906 -5.8828125 10.25878906 -7.8828125 8.25878906 C-8.1953125 5.25878906 -8.1953125 5.25878906 -7.8828125 2.25878906 C-4.63971992 0.09672734 -3.74425507 0.00682817 0 0 Z " fill="#29486C" transform="translate(235.8828125,431.7412109375)"/>
<path d="M0 0 C1.48669189 -0.00945648 1.48669189 -0.00945648 3.00341797 -0.019104 C4.60660889 -0.01303131 4.60660889 -0.01303131 6.2421875 -0.00683594 C7.34062988 -0.00874939 8.43907227 -0.01066284 9.57080078 -0.01263428 C11.89420806 -0.01399584 14.21762295 -0.01030141 16.54101562 -0.00195312 C20.10303795 0.00874656 23.66455591 -0.00184963 27.2265625 -0.01464844 C29.48177195 -0.01332684 31.73698108 -0.01076444 33.9921875 -0.00683594 C35.06098145 -0.0108844 36.12977539 -0.01493286 37.23095703 -0.019104 C38.22208496 -0.01279968 39.21321289 -0.00649536 40.234375 0 C41.10690918 0.00159119 41.97944336 0.00318237 42.87841797 0.00482178 C45.1171875 0.25878906 45.1171875 0.25878906 48.1171875 2.25878906 C48.4296875 5.25878906 48.4296875 5.25878906 48.1171875 8.25878906 C45.57445028 10.80152628 44.67279311 10.51143786 41.1484375 10.51757812 C40.11396484 10.52388245 39.07949219 10.53018677 38.01367188 10.53668213 C36.33241211 10.53060944 36.33241211 10.53060944 34.6171875 10.52441406 C32.89725586 10.52728424 32.89725586 10.52728424 31.14257812 10.5302124 C28.71484152 10.53157528 26.28709766 10.52787173 23.859375 10.51953125 C20.13264677 10.50883344 16.40640064 10.51942337 12.6796875 10.53222656 C10.32551976 10.53090499 7.97135233 10.52834263 5.6171875 10.52441406 C4.49634766 10.52846252 3.37550781 10.53251099 2.22070312 10.53668213 C1.18623047 10.53037781 0.15175781 10.52407349 -0.9140625 10.51757812 C-1.82736328 10.51598694 -2.74066406 10.51439575 -3.68164062 10.51275635 C-5.8828125 10.25878906 -5.8828125 10.25878906 -7.8828125 8.25878906 C-8.1953125 5.25878906 -8.1953125 5.25878906 -7.8828125 2.25878906 C-4.63971992 0.09672734 -3.74425507 0.00682817 0 0 Z " fill="#2B496E" transform="translate(235.8828125,368.7412109375)"/>
<path d="M0 0 C6.6 0 13.2 0 20 0 C20 5.28 20 10.56 20 16 C13.4 16 6.8 16 0 16 C0 10.72 0 5.44 0 0 Z " fill="#7B8392" transform="translate(177,151)"/>
<path d="M0 0 C1.05960937 -0.00257813 2.11921875 -0.00515625 3.2109375 -0.0078125 C4.86996094 0.00378906 4.86996094 0.00378906 6.5625 0.015625 C7.66851562 0.00789062 8.77453125 0.00015625 9.9140625 -0.0078125 C11.50347656 -0.00394531 11.50347656 -0.00394531 13.125 0 C14.09566406 0.00225586 15.06632812 0.00451172 16.06640625 0.00683594 C18.5625 0.265625 18.5625 0.265625 21.5625 2.265625 C21.875 5.765625 21.875 5.765625 21.5625 9.265625 C18.87762835 11.95049665 17.49773019 11.52331949 13.75 11.53125 C12.59242188 11.53382813 11.43484375 11.53640625 10.2421875 11.5390625 C9.02789062 11.53132812 7.81359375 11.52359375 6.5625 11.515625 C5.34820312 11.52335938 4.13390625 11.53109375 2.8828125 11.5390625 C1.14644531 11.53519531 1.14644531 11.53519531 -0.625 11.53125 C-2.22408203 11.52786621 -2.22408203 11.52786621 -3.85546875 11.52441406 C-6.4375 11.265625 -6.4375 11.265625 -8.4375 9.265625 C-8.75 5.765625 -8.75 5.765625 -8.4375 2.265625 C-5.0803713 0.0275392 -3.92612636 0.00912446 0 0 Z " fill="#284268" transform="translate(320.4375,242.734375)"/>
<path d="M0 0 C1.05960938 -0.00257813 2.11921875 -0.00515625 3.2109375 -0.0078125 C4.86996094 0.00378906 4.86996094 0.00378906 6.5625 0.015625 C7.66851562 0.00789062 8.77453125 0.00015625 9.9140625 -0.0078125 C11.50347656 -0.00394531 11.50347656 -0.00394531 13.125 0 C14.09566406 0.00225586 15.06632812 0.00451172 16.06640625 0.00683594 C18.5625 0.265625 18.5625 0.265625 21.5625 2.265625 C21.875 5.765625 21.875 5.765625 21.5625 9.265625 C18.87762835 11.95049665 17.49773019 11.52331949 13.75 11.53125 C12.59242188 11.53382813 11.43484375 11.53640625 10.2421875 11.5390625 C9.02789062 11.53132812 7.81359375 11.52359375 6.5625 11.515625 C5.34820312 11.52335938 4.13390625 11.53109375 2.8828125 11.5390625 C1.14644531 11.53519531 1.14644531 11.53519531 -0.625 11.53125 C-2.22408203 11.52786621 -2.22408203 11.52786621 -3.85546875 11.52441406 C-6.4375 11.265625 -6.4375 11.265625 -8.4375 9.265625 C-8.75 5.765625 -8.75 5.765625 -8.4375 2.265625 C-5.0803713 0.0275392 -3.92612636 0.00912446 0 0 Z " fill="#284268" transform="translate(249.4375,242.734375)"/>
<path d="M0 0 C1.05960938 -0.00257813 2.11921875 -0.00515625 3.2109375 -0.0078125 C4.86996094 0.00378906 4.86996094 0.00378906 6.5625 0.015625 C7.66851562 0.00789062 8.77453125 0.00015625 9.9140625 -0.0078125 C11.50347656 -0.00394531 11.50347656 -0.00394531 13.125 0 C14.09566406 0.00225586 15.06632812 0.00451172 16.06640625 0.00683594 C18.5625 0.265625 18.5625 0.265625 21.5625 2.265625 C21.875 5.765625 21.875 5.765625 21.5625 9.265625 C18.87762835 11.95049665 17.49773019 11.52331949 13.75 11.53125 C12.59242188 11.53382813 11.43484375 11.53640625 10.2421875 11.5390625 C9.02789062 11.53132812 7.81359375 11.52359375 6.5625 11.515625 C5.34820312 11.52335938 4.13390625 11.53109375 2.8828125 11.5390625 C1.14644531 11.53519531 1.14644531 11.53519531 -0.625 11.53125 C-2.22408203 11.52786621 -2.22408203 11.52786621 -3.85546875 11.52441406 C-6.4375 11.265625 -6.4375 11.265625 -8.4375 9.265625 C-8.75 5.765625 -8.75 5.765625 -8.4375 2.265625 C-5.0803713 0.0275392 -3.92612636 0.00912446 0 0 Z " fill="#274267" transform="translate(178.4375,242.734375)"/>
<path d="M0 0 C2.5625 0.375 2.5625 0.375 4.19775391 2.109375 C5.73522822 4.66174739 5.94831834 6.04831928 5.9609375 9 C5.96480469 9.87140625 5.96867187 10.7428125 5.97265625 11.640625 C5.96105469 12.54296875 5.94945312 13.4453125 5.9375 14.375 C5.94910156 15.27734375 5.96070313 16.1796875 5.97265625 17.109375 C5.96878906 17.98078125 5.96492188 18.8521875 5.9609375 19.75 C5.95755371 20.54148437 5.95416992 21.33296875 5.95068359 22.1484375 C5.46499425 24.93427824 4.49038322 26.33025793 2.5625 28.375 C0 28.75 0 28.75 -2.4375 28.375 C-5.04618369 25.76631631 -4.69478913 24.62967636 -4.703125 21 C-4.70570313 19.93265625 -4.70828125 18.8653125 -4.7109375 17.765625 C-4.69933594 16.08726562 -4.69933594 16.08726562 -4.6875 14.375 C-4.69523437 13.25609375 -4.70296875 12.1371875 -4.7109375 10.984375 C-4.70835937 9.91703125 -4.70578125 8.8496875 -4.703125 7.75 C-4.70086914 6.76773437 -4.69861328 5.78546875 -4.69628906 4.7734375 C-4.33016317 1.38021033 -3.34848242 0.51515114 0 0 Z " fill="#2C456A" transform="translate(472.4375,404.625)"/>
<path d="M0 0 C2.875 0.75 2.875 0.75 3.875 1.75 C4.15511184 5.7220707 4.10679176 9.70672416 4.125 13.6875 C4.145625 14.81091797 4.16625 15.93433594 4.1875 17.09179688 C4.19265625 18.16365234 4.1978125 19.23550781 4.203125 20.33984375 C4.21714355 21.82278931 4.21714355 21.82278931 4.23144531 23.33569336 C4.11381836 24.13241455 3.99619141 24.92913574 3.875 25.75 C0.875 27.75 0.875 27.75 -1.6875 27.5 C-4.125 26.75 -4.125 26.75 -6.125 24.75 C-6.57795333 21.12355496 -6.44904802 17.46398262 -6.4375 13.8125 C-6.45361328 12.79736328 -6.46972656 11.78222656 -6.48632812 10.73632812 C-6.48697266 9.76244141 -6.48761719 8.78855469 -6.48828125 7.78515625 C-6.49126221 6.8919165 -6.49424316 5.99867676 -6.49731445 5.07836914 C-6.125 2.75 -6.125 2.75 -4.79760742 0.91967773 C-3.125 -0.25 -3.125 -0.25 0 0 Z " fill="#2C456A" transform="translate(82.125,405.25)"/>
<path d="M0 0 C3.04103566 3.04103566 2.29330847 6.04841086 2.32226562 10.20507812 C2.31904297 11.27177734 2.31582031 12.33847656 2.3125 13.4375 C2.32861328 14.50033203 2.34472656 15.56316406 2.36132812 16.65820312 C2.36197266 17.67720703 2.36261719 18.69621094 2.36328125 19.74609375 C2.36626221 20.68122803 2.36924316 21.6163623 2.37231445 22.57983398 C2 25 2 25 0.63745117 26.83618164 C-1 28 -1 28 -3.5625 27.875 C-6 27 -6 27 -8 24 C-8.43111757 20.51427072 -8.32424544 17.00953857 -8.3125 13.5 C-8.32861328 12.53707031 -8.34472656 11.57414062 -8.36132812 10.58203125 C-8.36197266 9.65777344 -8.36261719 8.73351562 -8.36328125 7.78125 C-8.36626221 6.93626953 -8.36924316 6.09128906 -8.37231445 5.22070312 C-7.55670866 0.35594884 -4.54411005 -0.58257821 0 0 Z " fill="#2B4469" transform="translate(84,309)"/>
<path d="M0 0 C2.5 0.25 2.5 0.25 4.5 2.25 C4.95594946 6.23155336 4.82403413 10.24535129 4.8125 14.25 C4.82861328 15.36890625 4.84472656 16.4878125 4.86132812 17.640625 C4.86197266 18.70796875 4.86261719 19.7753125 4.86328125 20.875 C4.86775269 22.34839844 4.86775269 22.34839844 4.87231445 23.8515625 C4.74945068 24.64304687 4.62658691 25.43453125 4.5 26.25 C1.5 28.25 1.5 28.25 -1.125 27.9375 C-3.5 27.25 -3.5 27.25 -4.5 26.25 C-4.75256877 22.27724185 -4.68522451 18.29233825 -4.6875 14.3125 C-4.69974609 13.18908203 -4.71199219 12.06566406 -4.72460938 10.90820312 C-4.72654297 9.83634766 -4.72847656 8.76449219 -4.73046875 7.66015625 C-4.73457764 6.67152588 -4.73868652 5.68289551 -4.74291992 4.66430664 C-4.39586355 1.21501975 -3.43258516 0.34325852 0 0 Z " fill="#294268" transform="translate(472.5,308.75)"/>
<path d="M0 0 C4.95 0 9.9 0 15 0 C14.125 9.625 14.125 9.625 13 13 C8.05 13 3.1 13 -2 13 C-1.34 8.71 -0.68 4.42 0 0 Z " fill="#8683CC" transform="translate(146,271)"/>
<path d="M0 0 C1.0725 0.00515625 2.145 0.0103125 3.25 0.015625 C4.85875 0.00789063 4.85875 0.00789063 6.5 0 C9.25 0.265625 9.25 0.265625 11.25 2.265625 C11.5 4.765625 11.5 4.765625 11.25 7.265625 C9.25 9.265625 9.25 9.265625 6.5 9.53125 C5.4275 9.52609375 4.355 9.5209375 3.25 9.515625 C1.64125 9.52335937 1.64125 9.52335937 0 9.53125 C-2.75 9.265625 -2.75 9.265625 -4.75 7.265625 C-5 4.765625 -5 4.765625 -4.75 2.265625 C-2.75 0.265625 -2.75 0.265625 0 0 Z " fill="#284368" transform="translate(108.75,37.734375)"/>
</svg>
