<?xml version="1.0" encoding="UTF-8"?>
<svg version="1.1" xmlns="http://www.w3.org/2000/svg" width="512" height="512">
<path d="M0 0 C1.22036896 -0.00445784 2.44073792 -0.00891569 3.69808775 -0.01350862 C5.05432738 -0.01341932 6.410567 -0.01322948 7.7668066 -0.01294994 C9.20610034 -0.01624961 10.64539315 -0.01997539 12.08468479 -0.02409142 C16.04496288 -0.03410798 20.00522582 -0.03782767 23.96551478 -0.04048073 C28.23495828 -0.04438484 32.5043898 -0.05396314 36.77382565 -0.0626936 C47.08746377 -0.08245557 57.40110288 -0.09252413 67.71475521 -0.10142139 C72.57228513 -0.10580494 77.42981396 -0.1111716 82.28734303 -0.11641026 C98.43624203 -0.13342268 114.58514035 -0.14791651 130.73404694 -0.155159 C134.92473063 -0.15706888 139.11541431 -0.15898921 143.30609798 -0.16094494 C144.34766573 -0.16142868 145.38923348 -0.16191242 146.46236389 -0.16241082 C163.33234639 -0.17070983 180.20225796 -0.19604452 197.07220948 -0.22852562 C214.39435075 -0.26160527 231.71645598 -0.2796086 249.038629 -0.28280324 C258.76350168 -0.28496755 268.48827094 -0.29370466 278.21311283 -0.31926441 C286.49591631 -0.34098381 294.77859124 -0.34901574 303.06141997 -0.33929763 C307.28559186 -0.33475645 311.50949857 -0.33662841 315.733634 -0.35605907 C319.60590257 -0.3737169 323.47771305 -0.37267211 327.34998666 -0.35716178 C328.74575231 -0.35478965 330.14154989 -0.35908874 331.5372668 -0.37099043 C345.07093 -0.47918432 355.19451738 2.49843278 364.97870541 11.98187733 C370.98016972 18.37750561 375.2149797 26.23673783 375.1859808 35.16840076 C375.18590527 35.94890797 375.18582973 36.72941517 375.18575191 37.5335741 C375.18059063 38.36600636 375.17542934 39.19843861 375.17011166 40.05609608 C375.16798923 41.34607502 375.16798923 41.34607502 375.16582394 42.66211414 C375.16023637 45.40285217 375.14768615 48.14350784 375.13495541 50.88422108 C375.1299388 52.74489698 375.12537617 54.60557416 375.12128353 56.46625233 C375.11027101 61.02227353 375.09301492 65.57823335 375.07245541 70.13422108 C375.85894466 70.11851063 376.64543392 70.10280018 377.45575619 70.08661366 C381.03624879 70.02406193 384.61662616 69.98516556 388.19745541 69.94672108 C389.43495541 69.92158436 390.67245541 69.89644764 391.94745541 69.8705492 C393.14628353 69.86088123 394.34511166 69.85121326 395.58026791 69.84125233 C396.67999935 69.82554188 397.7797308 69.80983143 398.91278744 69.79364491 C403.19144597 70.2548355 406.55836674 71.7208319 409.71698666 74.66937733 C414.75274812 81.25460385 414.5472052 85.93294744 414.07245541 94.13422108 C413.36528396 98.71508178 412.30787233 103.17408637 411.18573666 107.66937733 C410.8868504 108.90989353 410.58796413 110.15040974 410.28002071 111.42851734 C409.64895517 114.0330623 409.01246595 116.63543176 408.3656683 119.23602772 C407.54646774 122.531848 406.74930728 125.8325116 405.95923233 129.13541985 C405.19097744 132.33678617 404.40661438 135.53418368 403.62323666 138.73187733 C403.34281017 139.89783939 403.06238369 141.06380146 402.77345943 142.26509571 C398.92360579 157.64643457 393.46586108 170.35468084 379.43573666 178.88422108 C370.2379059 183.74918941 362.44483249 184.6793387 352.07245541 184.13422108 C352.22392025 184.69818592 352.37538509 185.26215076 352.53143978 185.84320545 C353.22200611 188.43761002 353.89729518 191.0357666 354.57245541 193.63422108 C354.81093197 194.52109608 355.04940853 195.40797108 355.29511166 196.32172108 C356.69076682 201.74483827 357.52682145 206.53037325 357.07245541 212.13422108 C353.36104425 215.84563223 347.20978288 214.54759758 342.19745541 214.57172108 C340.99991634 214.60459217 339.80237728 214.63746326 338.56854916 214.67133045 C337.41741634 214.6784203 336.26628353 214.68551014 335.08026791 214.69281483 C333.49689632 214.71299671 333.49689632 214.71299671 331.88153744 214.73358631 C328.04851941 213.91574699 327.17972046 212.37088106 325.07245541 209.13422108 C323.95639073 207.34087649 322.87901569 205.52297374 321.83808041 203.68500233 C321.26444759 202.67244373 320.69081478 201.65988514 320.09979916 200.61664295 C319.51327572 199.57056873 318.92675228 198.52449451 318.32245541 197.44672108 C317.72046322 196.3890453 317.11847103 195.33136951 316.49823666 194.24164295 C312.07245541 186.38864107 312.07245541 186.38864107 312.07245541 184.13422108 C217.69245541 184.13422108 123.31245541 184.13422108 26.07245541 184.13422108 C25.08245541 187.10422108 25.08245541 187.10422108 24.07245541 190.13422108 C23.13403108 191.9378172 22.14227308 193.71449701 21.10370541 195.46234608 C20.53265072 196.42656483 19.96159603 197.39078358 19.37323666 198.38422108 C18.77897884 199.37422108 18.18472103 200.36422108 17.57245541 201.38422108 C16.97819759 202.38968983 16.38393978 203.39515858 15.77167416 204.43109608 C11.3506427 211.85603378 11.3506427 211.85603378 9.07245541 214.13422108 C6.49042416 214.39301014 6.49042416 214.39301014 3.25995541 214.39984608 C2.10237728 214.4024242 0.94479916 214.40500233 -0.24785709 214.40765858 C-1.46215397 214.3999242 -2.67645084 214.39218983 -3.92754459 214.38422108 C-5.14184147 214.39195545 -6.35613834 214.39968983 -7.60723209 214.40765858 C-9.34359928 214.40379139 -9.34359928 214.40379139 -11.11504459 214.39984608 C-12.18109928 214.39759022 -13.24715397 214.39533436 -14.34551334 214.39301014 C-16.92754459 214.13422108 -16.92754459 214.13422108 -18.92754459 212.13422108 C-19.45776769 205.59480286 -18.11898014 199.92453273 -16.42754459 193.63422108 C-16.18906803 192.71640858 -15.95059147 191.79859608 -15.70488834 190.85297108 C-15.1210354 188.61097577 -14.52846492 186.37169039 -13.92754459 184.13422108 C-14.81055241 184.18062733 -15.69356022 184.22703358 -16.60332584 184.27484608 C-30.78006396 184.70121414 -41.11486838 180.45248678 -51.61504459 171.00922108 C-60.60433324 161.24697252 -63.04709925 148.19663747 -65.99004459 135.69672108 C-66.42304117 133.89852641 -66.85712953 132.10059431 -67.29229069 130.30292225 C-68.13721494 126.80496685 -68.97433255 123.30528088 -69.80596256 119.80414295 C-70.72285992 115.96019365 -71.68601363 112.13057656 -72.68145084 108.30609608 C-78.36922936 86.28888892 -78.36922936 86.28888892 -74.24004459 77.57172108 C-70.26474873 73.38154436 -67.09723299 70.26186506 -61.1084528 70.02069569 C-59.9930109 70.0259325 -58.87756901 70.03116932 -57.72832584 70.03656483 C-55.9155817 70.04139881 -55.9155817 70.04139881 -54.06621647 70.04633045 C-52.80357975 70.05470936 -51.54094303 70.06308826 -50.24004459 70.07172108 C-48.32868717 70.07848866 -48.32868717 70.07848866 -46.37871647 70.08539295 C-43.22827896 70.09719234 -40.07793511 70.1136551 -36.92754459 70.13422108 C-36.94849186 69.01040028 -36.96943913 67.88657948 -36.99102116 66.7287035 C-37.0640797 62.51122531 -37.10958078 58.29380162 -37.14727116 54.07587147 C-37.16723803 52.25936915 -37.19442146 50.44292986 -37.22930241 48.62665272 C-37.49132753 34.61986877 -36.86140701 22.96281937 -26.92754459 12.13422108 C-19.37700067 4.34423073 -10.90670387 0.01847756 0 0 Z " fill="#284368" transform="translate(86.92754459381104,258.86577892303467)"/>
<path d="M0 0 C1.93887138 -0.37604749 1.93887138 -0.37604749 4.36349487 -0.37752342 C5.28586 -0.38534666 6.20822514 -0.39316991 7.15854073 -0.40123022 C8.17856115 -0.39453805 9.19858158 -0.38784589 10.24951172 -0.38095093 C11.32786726 -0.3856309 12.4062228 -0.39031087 13.51725578 -0.39513266 C17.15485567 -0.40716261 20.79208437 -0.39759412 24.4296875 -0.38818359 C27.02769187 -0.39224573 29.62569451 -0.39758559 32.22369385 -0.40411377 C38.56217498 -0.41748067 44.90054977 -0.41456028 51.23903513 -0.40587585 C56.38867474 -0.39911129 61.53828447 -0.39817724 66.68792725 -0.4014473 C67.41977419 -0.401907 68.15162113 -0.40236669 68.90564525 -0.40284032 C70.39219873 -0.40379946 71.8787522 -0.4047721 73.36530566 -0.4057581 C87.31737974 -0.41432065 101.26939476 -0.40446432 115.22145915 -0.388357 C127.20300756 -0.37495302 139.18446879 -0.37728087 151.16601562 -0.39111328 C165.0668462 -0.40715385 178.96762498 -0.4134966 192.86846352 -0.40427649 C194.34966659 -0.4033208 195.83086967 -0.40237769 197.31207275 -0.4014473 C198.40535332 -0.40075306 198.40535332 -0.40075306 199.52072036 -0.40004479 C204.66647511 -0.39745032 209.8121971 -0.40183571 214.95794678 -0.40888596 C221.87882274 -0.41815953 228.79953073 -0.41159373 235.72039032 -0.39420319 C238.26738968 -0.39022079 240.81440284 -0.39140207 243.36139679 -0.39799118 C246.82461815 -0.40612762 250.28730167 -0.39598087 253.75048828 -0.38095093 C255.28051892 -0.39098918 255.28051892 -0.39098918 256.84145927 -0.40123022 C258.22500697 -0.38949535 258.22500697 -0.38949535 259.63650513 -0.37752342 C260.43663088 -0.37703637 261.23675663 -0.37654931 262.06112862 -0.37604749 C263.02086995 -0.18990398 263.02086995 -0.18990398 264 0 C266.39233807 3.5885071 266.28302097 6.14561189 266.26069641 10.28796387 C266.26452196 11.03570053 266.26834751 11.78343719 266.27228898 12.55383253 C266.28263148 15.06655823 266.27862452 17.57905596 266.2746582 20.09179688 C266.27900395 21.89030672 266.28418664 23.68881472 266.29014587 25.48731995 C266.30356089 30.37770442 266.30411184 35.26801173 266.30158257 40.15841103 C266.30051471 44.23670881 266.30539142 48.31499085 266.310188 52.39328527 C266.32129152 62.01138829 266.32171562 71.62945226 266.31567383 81.24755859 C266.30963015 91.18088379 266.32195313 101.11406748 266.3432439 111.04736853 C266.36083575 119.56715981 266.36686514 128.08690594 266.36360615 136.60671473 C266.36178952 141.69906618 266.36446731 146.79131667 266.37832069 151.88365173 C266.39085544 156.67054044 266.38899643 161.4572078 266.37590981 166.24409294 C266.37353506 168.00374869 266.37631064 169.7634198 266.38453293 171.52305794 C266.39492651 173.91964428 266.38696011 176.31547763 266.3742218 178.71203613 C266.38159609 179.41329479 266.38897037 180.11455344 266.39656812 180.83706236 C266.34377841 185.53682704 266.34377841 185.53682704 264.75486153 187.67757618 C262.53093347 189.35347789 261.31577125 189.37582343 258.54748535 189.37752342 C257.63071266 189.38534666 256.71393997 189.39316991 255.76938629 189.40123022 C254.76074272 189.39453805 253.75209915 189.38784589 252.71289062 189.38095093 C251.64255333 189.3856309 250.57221603 189.39031087 249.46944427 189.39513266 C245.864922 189.40714658 242.26077544 189.39760029 238.65625 189.38818359 C236.07942482 189.39224644 233.50260137 189.3975867 230.92578125 189.40411377 C224.64258095 189.41747228 218.359488 189.41456399 212.07628345 189.40587585 C206.97101267 189.39910801 201.86577203 189.39817867 196.76049805 189.4014473 C196.03462604 189.401907 195.30875403 189.40236669 194.56088591 189.40284032 C193.08641369 189.40379947 191.61194149 189.40477211 190.13746929 189.4057581 C176.30267597 189.41431819 162.46794223 189.40446817 148.63315868 189.388357 C136.75540928 189.37495324 124.87774782 189.37728116 113 189.39111328 C99.21561484 189.40715818 85.43128193 189.41349416 71.64688873 189.40427649 C70.17775981 189.40332082 68.70863089 189.4023777 67.23950195 189.4014473 C66.51661216 189.40098447 65.79372237 189.40052164 65.04892683 189.40004479 C59.94821388 189.39745162 54.847534 189.40183292 49.74682617 189.40888596 C42.88502921 189.41816534 36.02340157 189.41158403 29.16162109 189.39420319 C26.63761675 189.39022362 24.11359847 189.39139732 21.58959961 189.39799118 C18.15524436 189.40613863 14.72142979 189.39596724 11.28710938 189.38095093 C10.27846581 189.38764309 9.26982224 189.39433526 8.23061371 189.40123022 C7.31384102 189.39340697 6.39706833 189.38558373 5.45251465 189.37752342 C4.65938622 189.37703637 3.86625778 189.37654931 3.04909515 189.37604749 C0.44777251 188.89865587 -0.43643694 188.10658993 -2 186 C-2.29244639 183.48803323 -2.4006388 181.22416416 -2.3742218 178.71203613 C-2.37819621 177.96429947 -2.38217061 177.21656281 -2.38626546 176.44616747 C-2.39591235 173.93332096 -2.3840562 171.4210341 -2.37231445 168.90820312 C-2.37474163 167.10969329 -2.37846024 165.3111848 -2.38337708 163.51268005 C-2.39279981 158.62224462 -2.38334904 153.73200884 -2.37004495 148.84158897 C-2.35874785 143.73004492 -2.36283661 138.61851095 -2.36479187 133.50695801 C-2.3656754 124.92208586 -2.35458218 116.3372926 -2.33618164 107.75244141 C-2.31501313 97.81913889 -2.31150379 87.88595197 -2.3177436 77.95263147 C-2.32343321 68.40744655 -2.31779635 58.86230245 -2.30657005 49.31712341 C-2.30191872 45.25019071 -2.30105252 41.18328292 -2.3031559 37.11634827 C-2.305036 32.3294862 -2.29695639 27.5427422 -2.2810955 22.75590706 C-2.27684365 20.99625703 -2.27600812 19.23659504 -2.27878571 17.47694206 C-2.28199526 15.0804853 -2.2729569 12.68438406 -2.26069641 10.28796387 C-2.26447573 9.58670521 -2.26825506 8.88544656 -2.27214891 8.16293764 C-2.23923252 4.54189185 -2.07070271 3.10605407 0 0 Z " fill="#284368" transform="translate(124,39)"/>
<path d="M0 0 C1.42640422 -0.00604861 2.85280196 -0.01383038 4.27918833 -0.02318513 C8.18074425 -0.04369166 12.08193151 -0.03939551 15.98351729 -0.03082395 C20.19839193 -0.02587962 24.41317893 -0.04392999 28.62802124 -0.05889893 C36.87860062 -0.08437041 45.12904975 -0.08798311 53.37966184 -0.0832984 C60.08797865 -0.07972905 66.796256 -0.08323777 73.5045681 -0.09174728 C74.460159 -0.09293766 75.41574991 -0.09412804 76.40029811 -0.09535449 C78.34173754 -0.09777805 80.28317696 -0.10020632 82.22461637 -0.10263924 C100.42328011 -0.12438188 118.62186969 -0.12006936 136.82053759 -0.10786955 C153.45679127 -0.09753329 170.09281067 -0.12003792 186.72901801 -0.15806599 C203.82421065 -0.19684267 220.91929251 -0.21333123 238.01452941 -0.20581949 C247.60693077 -0.20199822 257.19913276 -0.20694323 266.79149818 -0.23524857 C274.95820824 -0.25910375 283.12459623 -0.26185562 291.29131082 -0.23766823 C295.45499225 -0.2259093 299.618085 -0.2236382 303.78172684 -0.24767303 C307.59979399 -0.26945615 311.41678337 -0.26311049 315.23480078 -0.23514967 C317.25657118 -0.22739006 319.27839004 -0.24889856 321.30004627 -0.27174342 C330.84203671 -0.1593457 338.93969328 2.01770771 346.12802726 8.59342039 C352.02840727 14.92231638 354.93015264 21.49804546 355.03996277 30.14956665 C355.052798 31.03852127 355.06563324 31.92747589 355.07885742 32.84336853 C355.08993782 34.27147102 355.08993782 34.27147102 355.10124207 35.72842407 C355.10931381 36.72661667 355.11738556 37.72480927 355.1257019 38.75325012 C355.13951783 40.86889933 355.1502511 42.98457059 355.15812683 45.10025024 C355.16957761 47.2363857 355.18991801 49.37249414 355.21965027 51.50845337 C355.43653922 67.11112924 353.80513073 79.69488306 348.86296082 94.52139282 C223.46296082 94.52139282 98.06296082 94.52139282 -31.13703918 94.52139282 C-33.11703918 87.59139282 -33.11703918 87.59139282 -35.13703918 80.52139282 C-35.54116028 79.14112915 -35.94528137 77.76086548 -36.36164856 76.33877563 C-37.37586105 71.34563129 -37.49976811 66.52708613 -37.54328918 61.44326782 C-37.55468933 60.39544128 -37.56608948 59.34761475 -37.57783508 58.26803589 C-37.59664809 56.05939722 -37.60976828 53.85070352 -37.61750793 51.64199829 C-37.6369036 48.29479212 -37.69901599 44.9500543 -37.76203918 41.60342407 C-37.88607964 29.10388228 -37.95246743 19.03370194 -29.14094543 9.32119751 C-20.69859479 0.95600813 -11.45414253 -0.06599588 0 0 Z " fill="#5ECCA3" transform="translate(97.13703918457031,268.4786071777344)"/>
<path d="M0 0 C66.66 0 133.32 0 202 0 C202 25.41 202 50.82 202 77 C169.69230769 77 169.69230769 77 155.95922852 65.98803711 C153.25363114 64.62360688 151.89475747 65.22330683 149 66 C146.68994649 67.08799545 146.68994649 67.08799545 144.39013672 68.45556641 C130.58450946 76.02654578 119.11983924 78.76949922 103.40917969 78.43408203 C100.10058374 78.37456075 96.80813125 78.43409179 93.5 78.50390625 C79.55044881 78.55513632 70.73562334 76.05683569 59.81573486 67.39794922 C57.10725033 65.31266468 54.25307242 63.60475161 51.3203125 61.84765625 C50.29897217 61.22246094 49.27763184 60.59726563 48.2253418 59.953125 C47.202229 59.32921875 46.17911621 58.7053125 45.125 58.0625 C32.58489117 50.38208336 32.58489117 50.38208336 26.56640625 46.58984375 C25.74229248 46.07107666 24.91817871 45.55230957 24.0690918 45.01782227 C22.50032411 44.01802435 20.94024053 43.00444731 19.38989258 41.97631836 C15.97213073 39.72964866 12.83847507 37.8304251 8.9453125 36.5390625 C5.3125 35.125 5.3125 35.125 0 30 C0 20.1 0 10.2 0 0 Z " fill="#9EE7E8" transform="translate(155,71)"/>
<path d="M0 0 C2 1.0625 2 1.0625 4 3 C4.47596312 8.60499858 3.33309712 13.30598595 1.8125 18.625 C1.34942261 20.31321657 0.88856434 22.00204309 0.4296875 23.69140625 C0.19217773 24.56297363 -0.04533203 25.43454102 -0.29003906 26.33251953 C-1.45884924 30.7239982 -2.51516372 35.14073118 -3.5625 39.5625 C-3.77165039 40.43656494 -3.98080078 41.31062988 -4.19628906 42.21118164 C-5.19659619 46.43117842 -6.1465646 50.6524066 -6.9921875 54.90625 C-9.44038903 67.10435101 -12.56638704 79.12515893 -23 87 C-32.70794021 93.19198601 -42.74677308 93.30006388 -53.94137573 93.30107117 C-55.46733352 93.30839414 -56.99328746 93.31655974 -58.51923668 93.3254922 C-62.70043939 93.34738047 -66.88159036 93.35682317 -71.0628407 93.36406267 C-75.57693516 93.3739546 -80.09097993 93.39513594 -84.6050415 93.41456604 C-95.49689228 93.45875979 -106.38875368 93.48352845 -117.28066891 93.5053539 C-121.38383829 93.51381523 -125.48700469 93.52340933 -129.59017154 93.53300887 C-147.68175294 93.57516263 -165.77333676 93.61110342 -183.86495781 93.63057232 C-188.28838991 93.63541165 -192.71182195 93.64029371 -197.13525391 93.64526367 C-198.78432443 93.64710836 -198.78432443 93.64710836 -200.46670951 93.64899031 C-218.28781861 93.66995789 -236.10859777 93.72854571 -253.92955707 93.80264618 C-272.23380372 93.87813325 -290.53788186 93.91971522 -308.84228432 93.92813712 C-319.11665074 93.93371514 -329.39051634 93.95420428 -339.66473007 94.01270103 C-348.41128617 94.0624053 -357.15723031 94.08146025 -365.90391456 94.06053879 C-370.36533052 94.05080713 -374.8254733 94.05558553 -379.28670883 94.09976578 C-383.37460073 94.13990563 -387.46029951 94.13814967 -391.54822327 94.10366461 C-393.02328188 94.09849001 -394.49849084 94.10840475 -395.9733132 94.1353062 C-403.64869862 94.26665027 -408.82404235 93.90378303 -414.73901558 88.72326374 C-423.05879635 80.18917023 -426.25080531 71.10005748 -429.0625 59.6875 C-429.40268574 58.35385891 -429.74409056 57.02052823 -430.08666992 55.6875 C-431.08054725 51.79710686 -432.04290306 47.89960642 -433 44 C-433.26232422 42.93990723 -433.52464844 41.87981445 -433.79492188 40.78759766 C-435.07225064 35.60472371 -436.30976731 30.41441897 -437.49609375 25.20996094 C-437.82569475 23.76444338 -438.15888415 22.31973815 -438.49609375 20.87597656 C-438.94322003 18.96090883 -439.37823041 17.04302404 -439.8125 15.125 C-440.04582031 14.09632813 -440.27914062 13.06765625 -440.51953125 12.0078125 C-441.05881474 8.63181014 -441.08126639 5.41318818 -441 2 C-439.68 1.67 -438.36 1.34 -437 1 C-433.1131098 12.37407961 -430.23550967 23.91866144 -427.49975586 35.61791992 C-424.55173241 50.72610747 -424.55173241 50.72610747 -416 63 C-413.27020424 64.36489788 -411.11505864 64.1292822 -408.05749989 64.13422108 C-406.14561791 64.14090784 -406.14561791 64.14090784 -404.19511205 64.14772969 C-402.76734784 64.14764039 -401.33958364 64.14745052 -399.91181946 64.14717102 C-398.40540429 64.15046861 -396.89899002 64.15419396 -395.39257687 64.1583125 C-391.23763252 64.16835264 -387.08270261 64.17205253 -382.92774785 64.17470181 C-378.45248175 64.17859894 -373.97722716 64.18817771 -369.50196838 64.19691467 C-358.6862139 64.21669641 -347.87045845 64.2267477 -337.05469039 64.23564246 C-331.96452653 64.24002278 -326.87436371 64.24539028 -321.78420067 64.25063133 C-304.86846921 64.26764573 -287.95273841 64.28214044 -271.0369997 64.28938007 C-266.64519055 64.29129005 -262.2533814 64.29321037 -257.86157227 64.29516602 C-256.76997444 64.29564976 -255.6783766 64.2961335 -254.55370005 64.2966319 C-236.86610741 64.30493416 -219.17858235 64.33027345 -201.49101923 64.36274669 C-183.34179158 64.39579651 -165.19259829 64.41382698 -147.04334038 64.41702431 C-136.84908019 64.4191914 -126.65491855 64.42796893 -116.46068764 64.45348549 C-107.77953882 64.47516417 -99.09851247 64.4832569 -90.41733966 64.47351871 C-85.98710487 64.4689657 -81.55712292 64.47091814 -77.12692261 64.49028015 C-73.07098122 64.50785354 -69.01547819 64.50696178 -64.95953252 64.49138286 C-63.49244659 64.48899789 -62.02533077 64.49337635 -60.55829064 64.50521151 C-50.08929382 64.58602647 -50.08929382 64.58602647 -41 60 C-38.35693359 59.51757812 -38.35693359 59.51757812 -35.8984375 59.53125 C-34.99609375 59.51707031 -34.09375 59.50289063 -33.1640625 59.48828125 C-31.78347656 59.49408203 -31.78347656 59.49408203 -30.375 59.5 C-23.36716638 59.66473822 -23.36716638 59.66473822 -16.9765625 57.21875 C-14.16680263 54.06471125 -12.86920834 51.01423194 -11.921875 46.9296875 C-11.73343018 46.12781006 -11.54498535 45.32593262 -11.35083008 44.49975586 C-11.15255615 43.63358643 -10.95428223 42.76741699 -10.75 41.875 C-10.53819092 40.97080322 -10.32638184 40.06660645 -10.1081543 39.13500977 C-8.85145223 33.75297734 -7.62839813 28.36350588 -6.41015625 22.97265625 C-6.14428711 21.80299316 -5.87841797 20.63333008 -5.60449219 19.42822266 C-5.08325101 17.13084093 -4.56684214 14.83235659 -4.05566406 12.53271484 C-3.81686523 11.47906738 -3.57806641 10.42541992 -3.33203125 9.33984375 C-3.12296143 8.40519287 -2.9138916 7.47054199 -2.69848633 6.50756836 C-2.0371985 4.13354276 -1.18477966 2.15342775 0 0 Z " fill="#4BA786" transform="translate(487,340)"/>
<path d="M0 0 C123.42 0 246.84 0 374 0 C372.85795455 10.27840909 372.85795455 10.27840909 371.625 14.375 C371.39039063 15.18710937 371.15578125 15.99921875 370.9140625 16.8359375 C369.87282764 19.30108327 369.12667263 20.37487243 367 22 C364.32252598 22.37604749 364.32252598 22.37604749 361.01698303 22.37752342 C359.75883758 22.38534666 358.50069212 22.39316991 357.20442104 22.40123022 C355.80042329 22.39474343 354.39642682 22.38797343 352.99243164 22.38095093 C351.50704892 22.38440545 350.02166875 22.38916863 348.53629398 22.39513266 C344.444228 22.40770065 340.35237088 22.40144609 336.26030397 22.39217401 C331.85124551 22.38540748 327.44222385 22.3958528 323.03317261 22.40411377 C314.39176185 22.417479 305.75042909 22.41456098 297.10901523 22.40587585 C290.08822408 22.39911066 283.06745485 22.39817752 276.04666138 22.4014473 C275.04880397 22.401907 274.05094656 22.40236669 273.02285105 22.40284032 C270.99595284 22.40379946 268.96905463 22.4047721 266.94215643 22.4057581 C247.91972733 22.41432016 228.89734154 22.40446507 209.87491953 22.388357 C193.53996372 22.37495308 177.20507185 22.37728094 160.87011719 22.39111328 C141.91744018 22.40715469 122.96480118 22.41349611 104.01211834 22.40427649 C101.99252511 22.40332081 99.97293187 22.40237769 97.95333862 22.4014473 C96.46267973 22.40075306 96.46267973 22.40075306 94.94190651 22.40004479 C87.92660396 22.39745058 80.91132544 22.40183517 73.89602661 22.40888596 C65.35093356 22.41728519 56.80592323 22.41505413 48.2608397 22.39904372 C43.8979768 22.39113969 39.53525198 22.38810551 35.17238998 22.39799118 C31.18274388 22.40689471 27.19336457 22.40207753 23.20374286 22.38605852 C21.75628133 22.38269219 20.30879752 22.38444604 18.86135018 22.39168589 C16.901921 22.40073889 14.94242918 22.38970719 12.98301697 22.37752342 C11.8921878 22.37703637 10.80135862 22.37654931 9.67747402 22.37604749 C7 22 7 22 5.19905949 20.67513525 C3.31318801 18.0404955 2.66962992 15.23168545 1.8125 12.125 C1.46832031 10.91070312 1.12414062 9.69640625 0.76953125 8.4453125 C0 5 0 5 0 0 Z " fill="#84CBAE" transform="translate(69,373)"/>
<path d="M0 0 C5.08592661 3.16011522 9.8129915 6.75054556 14.546875 10.41015625 C15.06441125 10.79924793 15.5819475 11.18833961 16.11516666 11.58922195 C19.12323533 13.86650802 21.94310111 16.19175038 24.65391541 18.81756592 C37.56773559 30.49069383 52.65567146 29.39042141 69.02143216 29.1413126 C72.98389922 29.09388286 76.94603384 29.11541094 80.90867615 29.12908936 C88.38509479 29.14469248 95.85983015 29.09981771 103.33590978 29.03226733 C111.8585456 28.958276 120.38080966 28.95314167 128.90371621 28.95329714 C146.41048549 28.95209947 163.9156921 28.86359558 181.421875 28.72265625 C181.421875 34.00265625 181.421875 39.28265625 181.421875 44.72265625 C115.091875 44.72265625 48.761875 44.72265625 -19.578125 44.72265625 C-19.578125 30.86265625 -19.578125 17.00265625 -19.578125 2.72265625 C-12.97685334 -2.55836108 -7.70549286 -3.81772146 0 0 Z " fill="#4FDC5A" transform="translate(175.578125,150.27734375)"/>
<path d="M0 0 C3.41677121 1.36670849 6.11970212 2.54675791 9.1953125 4.3984375 C9.98325195 4.87128174 10.77119141 5.34412598 11.58300781 5.83129883 C12.84129395 6.59543091 12.84129395 6.59543091 14.125 7.375 C15.01026367 7.90955811 15.89552734 8.44411621 16.80761719 8.99487305 C24.22947529 13.49402823 31.57365588 18.1106732 38.8984375 22.765625 C44.87233987 26.56047309 50.87316877 30.31203319 56.875 34.0625 C57.90399414 34.70614502 58.93298828 35.34979004 59.99316406 36.01293945 C60.9622168 36.618396 61.93126953 37.22385254 62.9296875 37.84765625 C63.78804199 38.38398682 64.64639648 38.92031738 65.53076172 39.47290039 C66.34561035 39.97684326 67.16045898 40.48078613 68 41 C68.76761658 41.51587173 69.53523315 42.03174347 70.32611084 42.56324768 C73.23116086 44.12420893 74.98309817 44.41847597 78.25146484 44.51513672 C79.79125504 44.56805374 79.79125504 44.56805374 81.3621521 44.62203979 C83.01980087 44.65057541 83.01980087 44.65057541 84.7109375 44.6796875 C86.44967636 44.71245285 86.44967636 44.71245285 88.22354126 44.74588013 C90.68634462 44.78298874 93.14929967 44.81097797 95.61230469 44.83056641 C99.30190198 44.87413679 102.98411156 44.99276935 106.671875 45.11328125 C123.09189215 45.39242126 134.75267138 42.41682389 148.77529907 33.76882935 C151 33 151 33 153.66726685 33.80464172 C157.76824062 35.90609638 157.76824062 35.90609638 159.515625 36.91015625 C160.43214844 37.43512695 160.43214844 37.43512695 161.3671875 37.97070312 C161.98851562 38.33099609 162.60984375 38.69128906 163.25 39.0625 C163.88679687 39.42666016 164.52359375 39.79082031 165.1796875 40.16601562 C169.85925752 42.85925752 169.85925752 42.85925752 171 44 C173.28988781 44.15888092 175.58443441 44.25138073 177.87890625 44.31640625 C178.5655687 44.33718735 179.25223114 44.35796844 179.95970154 44.37937927 C182.16052935 44.44494143 184.36147975 44.50379015 186.5625 44.5625 C188.05144514 44.60567892 189.54037773 44.649293 191.02929688 44.69335938 C194.68606553 44.8006293 198.34297318 44.90187772 202 45 C202 48.63 202 52.26 202 56 C184.0575125 56.30220247 166.11591092 56.53356461 148.17141914 56.67355824 C139.83751385 56.74031683 131.50522814 56.83115993 123.17236328 56.98071289 C115.90096571 57.111152 108.6307418 57.1943562 101.35820663 57.22315043 C97.51418082 57.23995925 93.67350941 57.27883352 89.83057022 57.37449074 C73.47776928 57.76593748 60.1093823 57.79045334 47.32432556 46.18707275 C46.75566961 45.63689987 46.18701366 45.08672699 45.60112572 44.5198822 C43.43261479 42.46140476 41.06159299 40.7480136 38.62109375 39.02734375 C36.51223703 37.47094272 34.40527884 35.91326756 32.31054688 34.33789062 C24.97724971 28.95744578 18.24898962 25.13290722 9 26 C6.03 26.66 3.06 27.32 0 28 C0 18.76 0 9.52 0 0 Z " fill="#7EA8FC" transform="translate(155,113)"/>
<path d="M0 0 C1.26905798 -0.02039001 1.26905798 -0.02039001 2.56375349 -0.04119194 C5.3920756 -0.07910224 8.21866303 -0.07426568 11.04721069 -0.06930542 C13.07788313 -0.08726348 15.10853509 -0.10768065 17.13916016 -0.13037109 C22.65194105 -0.18336307 28.16416313 -0.19743779 33.67717409 -0.20126581 C37.12437392 -0.20553288 40.57143204 -0.21834646 44.01859665 -0.23424911 C56.0536169 -0.28976117 68.08823854 -0.31426056 80.12338257 -0.30953979 C91.32682456 -0.30593841 102.52852998 -0.36918087 113.73153269 -0.46400177 C123.36071888 -0.54258562 132.98933921 -0.57463768 142.61884344 -0.57080734 C148.36538884 -0.56928065 154.11039209 -0.5861982 159.85661697 -0.64987564 C165.26661136 -0.70818909 170.67360244 -0.70829623 176.0837059 -0.66477585 C178.06216089 -0.65852692 180.04080641 -0.67252597 182.01893616 -0.7089386 C198.48492617 -0.99225226 198.48492617 -0.99225226 205.12900293 5.14808667 C211.46273804 11.78345751 211.46273804 11.78345751 211.46273804 13.80227661 C134.90273804 13.80227661 58.34273804 13.80227661 -20.53726196 13.80227661 C-18.55726196 11.49227661 -16.57726196 9.18227661 -14.53726196 6.80227661 C-13.59959299 5.68444857 -12.66192402 4.56662052 -11.69584084 3.4149189 C-8.13585987 -0.05071883 -4.79176311 -0.05681482 0 0 Z " fill="#616298" transform="translate(160.53726196289063,204.19772338867188)"/>
<path d="M0 0 C76.56 0 153.12 0 232 0 C230.02 2.31 228.04 4.62 226 7 C224.59349654 8.67674207 224.59349654 8.67674207 223.15857887 10.38735771 C219.5985979 13.85299544 216.25450115 13.85909143 211.46273804 13.80227661 C210.19368006 13.82266662 210.19368006 13.82266662 208.89898455 13.84346855 C206.07066244 13.88137885 203.24407501 13.87654229 200.41552734 13.87158203 C198.38485491 13.88954009 196.35420295 13.90995726 194.32357788 13.93264771 C188.81079699 13.98563968 183.29857491 13.9997144 177.78556395 14.00354242 C174.33836411 14.0078095 170.891306 14.02062307 167.44414139 14.03652573 C155.40912114 14.09203778 143.37449949 14.11653718 131.33935547 14.11181641 C120.13591348 14.10821502 108.93420805 14.17145748 97.73120534 14.26627839 C88.10201915 14.34486223 78.47339882 14.37691429 68.8438946 14.37308395 C63.0973492 14.37155726 57.35234595 14.38847481 51.60612106 14.45215225 C46.19612668 14.51046571 40.7891356 14.51057284 35.37903214 14.46705246 C33.40057715 14.46080353 31.42193163 14.47480258 29.44380188 14.51121521 C12.97781187 14.79452887 12.97781187 14.79452887 6.33373511 8.65418994 C0 2.0188191 0 2.0188191 0 0 Z " fill="#616299" transform="translate(140,49)"/>
<path d="M0 0 C0.96228516 0.00128906 1.92457031 0.00257813 2.91601562 0.00390625 C10.03128332 0.09378332 10.03128332 0.09378332 12.3125 2.375 C11.3225 2.87 11.3225 2.87 10.3125 3.375 C10.34827162 12.69350649 12.36323863 21.07000202 14.80273438 30.00146484 C17.17314587 38.6943746 19.2105144 47.44029057 21.1315918 56.24291992 C24.35314515 70.65597375 27.99312394 82.53235869 39.7734375 92.0625 C40.28132813 92.495625 40.78921875 92.92875 41.3125 93.375 C41.3125 93.705 41.3125 94.035 41.3125 94.375 C28.57944299 94.906775 19.34323673 94.76712731 9.0625 86.375 C-1.74657413 75.83615273 -3.77713439 62.04822975 -6.91992188 47.8359375 C-7.96740715 43.112925 -9.05524232 38.39955512 -10.14453125 33.68603516 C-10.66126099 31.44697901 -11.17445842 29.20710382 -11.68359375 26.96630859 C-13.12732014 20.63126908 -13.12732014 20.63126908 -14.83203125 14.36328125 C-15.85497453 10.78998623 -16.17543291 8.06934915 -15.6875 4.375 C-11.2976127 -0.78035084 -6.25682452 -0.16119277 0 0 Z " fill="#328D69" transform="translate(36.6875,338.625)"/>
<path d="M0 0 C-1.15242188 1.14275391 -1.15242188 1.14275391 -2.328125 2.30859375 C-8.23548961 7.7812256 -8.23548961 7.7812256 -11 15 C-10.67 15.33 -10.34 15.66 -10 16 C-9.625 18.875 -9.625 18.875 -10 22 C-11.22870064 22.63268547 -11.22870064 22.63268547 -12.48222351 23.27815247 C-15.3127131 24.78970131 -15.3127131 24.78970131 -15.63923645 27.98027039 C-15.64589828 29.19938614 -15.65256012 30.41850189 -15.65942383 31.67456055 C-15.67514938 32.68471222 -15.67514938 32.68471222 -15.69119263 33.715271 C-15.71997748 35.93955365 -15.71364817 38.16228298 -15.70703125 40.38671875 C-15.72014442 41.92944798 -15.73544749 43.47216003 -15.75285339 45.0148468 C-15.79276187 49.07391383 -15.8028975 53.13253237 -15.80688477 57.19177246 C-15.81620535 61.33436744 -15.85361199 65.47669767 -15.88867188 69.61914062 C-15.95330741 77.74614353 -15.9839027 85.87275584 -16 94 C-22.27 94 -28.54 94 -35 94 C-37.9296875 83.84375 -37.9296875 83.84375 -39 80 C-39.34369629 78.82920898 -39.68739258 77.65841797 -40.04150391 76.45214844 C-41.31477305 71.2982882 -41.36098988 66.20883595 -41.40625 60.921875 C-41.41765015 59.87404846 -41.42905029 58.82622192 -41.4407959 57.74664307 C-41.4596089 55.5380044 -41.47272909 53.3293107 -41.48046875 51.12060547 C-41.49986441 47.77339929 -41.5619768 44.42866148 -41.625 41.08203125 C-41.74914496 28.57195819 -41.79899322 18.54911689 -33.02392578 8.8059082 C-31.12920157 6.94267037 -29.20730918 5.4756499 -27 4 C-26.06994141 3.35224609 -26.06994141 3.35224609 -25.12109375 2.69140625 C-17.56915205 -1.57965275 -8.37577383 -0.32527277 0 0 Z " fill="#44AB82" transform="translate(101,269)"/>
<path d="M0 0 C0 50.49 0 100.98 0 153 C-2.31 151.02 -4.62 149.04 -7 147 C-7.95406738 146.30738068 -8.90813477 145.61476135 -9.89111328 144.90115356 C-13.31888854 140.18563124 -12.74550745 135.26550728 -12.7421875 129.58154297 C-12.76058685 128.32076431 -12.77898621 127.05998566 -12.79794312 125.76100159 C-12.84630933 122.30809405 -12.86221373 118.85577989 -12.86921692 115.40256643 C-12.87500315 113.24101016 -12.88765838 111.07960504 -12.90270996 108.91809464 C-12.95494431 101.36458018 -12.98026059 93.81150228 -12.98144531 86.2578125 C-12.98327555 79.23773923 -13.0447093 72.21990293 -13.13408089 65.20044792 C-13.20826074 59.15851851 -13.2395414 53.11732036 -13.23832512 47.07493889 C-13.23835335 43.47272348 -13.25528081 39.87262014 -13.31585693 36.27087021 C-13.70666107 11.46674451 -13.70666107 11.46674451 -8.02606201 5.06741524 C-2.50332696 0 -2.50332696 0 0 0 Z " fill="#55558B" transform="translate(379,57)"/>
<path d="M0 0 C2.31 1.98 4.62 3.96 7 6 C7.95406738 6.69261932 8.90813477 7.38523865 9.89111328 8.09884644 C13.31888854 12.81436876 12.74550745 17.73449272 12.7421875 23.41845703 C12.76058685 24.67923569 12.77898621 25.94001434 12.79794312 27.23899841 C12.84630933 30.69190595 12.86221373 34.14422011 12.86921692 37.59743357 C12.87500315 39.75898984 12.88765838 41.92039496 12.90270996 44.08190536 C12.95494431 51.63541982 12.98026059 59.18849772 12.98144531 66.7421875 C12.98327555 73.76226077 13.0447093 80.78009707 13.13408089 87.79955208 C13.20826074 93.84148149 13.2395414 99.88267964 13.23832512 105.92506111 C13.23835335 109.52727652 13.25528081 113.12737986 13.31585693 116.72912979 C13.70666107 141.53325549 13.70666107 141.53325549 8.02606201 147.93258476 C2.50332696 153 2.50332696 153 0 153 C0 102.51 0 52.02 0 0 Z " fill="#55558B" transform="translate(133,57)"/>
<path d="M0 0 C1.40668945 0.00966797 1.40668945 0.00966797 2.84179688 0.01953125 C4.30649414 0.04466797 4.30649414 0.04466797 5.80078125 0.0703125 C6.78884766 0.07933594 7.77691406 0.08835937 8.79492188 0.09765625 C11.2346189 0.1212282 13.67382822 0.15413228 16.11328125 0.1953125 C17.48255332 2.93385664 16.79947497 4.23605215 16.07421875 7.19140625 C15.70151855 8.72873413 15.70151855 8.72873413 15.32128906 10.29711914 C15.04639648 11.39789795 14.77150391 12.49867676 14.48828125 13.6328125 C14.21338867 14.75486084 13.93849609 15.87690918 13.65527344 17.03295898 C11.4195347 26.10549394 9.08350136 35.15123107 6.640625 44.17016602 C6.2771352 45.56606782 5.93733507 46.96828076 5.6171875 48.37475586 C4.3755942 53.79865618 2.9176843 56.29579937 -0.88671875 60.1953125 C-3.40348988 61.45369807 -5.29965163 61.40350223 -8.11328125 61.51171875 C-9.14453125 61.55361328 -10.17578125 61.59550781 -11.23828125 61.63867188 C-12.31851562 61.67798828 -13.39875 61.71730469 -14.51171875 61.7578125 C-15.5996875 61.80099609 -16.68765625 61.84417969 -17.80859375 61.88867188 C-20.50117045 61.9949578 -23.19384128 62.09699307 -25.88671875 62.1953125 C-24.98759766 60.79152344 -24.98759766 60.79152344 -24.0703125 59.359375 C-21.40215669 54.6757227 -20.21844311 49.77619435 -18.94921875 44.5703125 C-18.69615967 43.56919434 -18.44310059 42.56807617 -18.18237305 41.53662109 C-16.24213367 33.80845637 -14.38943763 26.05646831 -12.62329102 18.28662109 C-8.37489572 -0.10151389 -8.37489572 -0.10151389 0 0 Z " fill="#328D69" transform="translate(469.88671875,338.8046875)"/>
<path d="M0 0 C6.2913916 3.45409735 9.91854063 6.89458801 12.1875 13.75 C13.15404109 19.3442227 12.30082339 23.96023929 9.5234375 28.89453125 C6.24828521 33.44335387 1.7116864 37.43471752 -3.8125 38.75 C-10.25548731 39.54451096 -15.5691048 38.73762408 -20.8125 34.75 C-26.47503523 28.52121124 -28.1801617 24.1864092 -28.08984375 15.796875 C-27.57352992 10.12469486 -25.06054794 6.66801926 -20.8125 2.9375 C-14.37628545 -1.75557311 -7.62856912 -3.06146524 0 0 Z " fill="#2C466A" transform="translate(327.8125,84.25)"/>
<path d="M0 0 C0.68797668 -0.00350464 1.37595337 -0.00700928 2.08477783 -0.01062012 C4.36464455 -0.01944039 6.64420225 -0.01358675 8.92407227 -0.00683594 C10.50586507 -0.00818266 12.08765747 -0.01012325 13.66944885 -0.01263428 C16.98751764 -0.01558606 20.30547886 -0.01128677 23.62353516 -0.00195312 C27.87859649 0.0094322 32.13340527 0.00288821 36.3884573 -0.00909805 C39.65609135 -0.01632315 42.92366549 -0.01402558 46.19130135 -0.00884247 C47.76020398 -0.00750729 49.32911204 -0.0091491 50.89800835 -0.01380157 C53.09100636 -0.0188765 55.283595 -0.01114287 57.4765625 0 C58.72517563 0.00159119 59.97378876 0.00318237 61.26023865 0.00482178 C64.30297852 0.25878906 64.30297852 0.25878906 67.30297852 2.25878906 C67.61547852 5.25878906 67.61547852 5.25878906 67.30297852 8.25878906 C64.43258848 11.1291791 62.42654991 10.51904856 58.40649414 10.53344727 C57.69740402 10.5385582 56.9883139 10.54366913 56.25773621 10.54893494 C53.90814838 10.56286289 51.55885277 10.56187199 49.20922852 10.55957031 C47.58019908 10.56345516 45.95117065 10.56778939 44.32214355 10.57255554 C40.90572833 10.58002439 37.48941644 10.57972145 34.07299805 10.57446289 C29.68772526 10.56866375 25.30287422 10.58560651 20.9176712 10.60880756 C17.55313633 10.62351436 14.18870378 10.62442086 10.82414246 10.62129784 C9.20695662 10.62181247 7.58976527 10.62707678 5.97261047 10.63710976 C3.71461282 10.64939986 1.4574465 10.64272847 -0.80053711 10.63110352 C-2.08690063 10.63173294 -3.37326416 10.63236237 -4.6986084 10.63301086 C-5.68808472 10.50951767 -6.67756104 10.38602448 -7.69702148 10.25878906 C-9.69702148 7.25878906 -9.69702148 7.25878906 -9.44702148 4.69628906 C-7.82867988 -0.56332116 -4.94630481 0.00630741 0 0 Z " fill="#2A476A" transform="translate(110.697021484375,282.7412109375)"/>
<path d="M0 0 C8.25 0 16.5 0 25 0 C26.2375 4.888125 26.2375 4.888125 27.5 9.875 C27.89155273 11.41389893 27.89155273 11.41389893 28.29101562 12.98388672 C28.49404297 13.79100098 28.69707031 14.59811523 28.90625 15.4296875 C29.11572266 16.25710449 29.32519531 17.08452148 29.54101562 17.93701172 C30 20 30 20 30 22 C26.22931168 22.086985 22.45888068 22.14038579 18.6875 22.1875 C17.61564453 22.21263672 16.54378906 22.23777344 15.43945312 22.26367188 C14.41142578 22.27333984 13.38339844 22.28300781 12.32421875 22.29296875 C11.37635498 22.3086792 10.42849121 22.32438965 9.4519043 22.34057617 C7 22 7 22 5.24023438 20.68041992 C3.30334298 18.05608459 2.67507336 15.25141533 1.8125 12.125 C1.46832031 10.91070312 1.12414062 9.69640625 0.76953125 8.4453125 C0 5 0 5 0 0 Z " fill="#9BE3C5" transform="translate(69,373)"/>
<path d="M0 0 C2.79348323 1.2415481 4.45140815 2.32672818 6.375 4.6875 C7.34410323 8.27318194 6.98703631 11.43935792 6 15 C4.31926233 17.62195076 3.11491283 18.66412668 0.1328125 19.5625 C-3.41526147 20.20517 -5.49785805 20.20740646 -8.875 18.8125 C-12.30893933 15.88355175 -12.88501329 14.05404486 -13.375 9.5625 C-12.93878362 5.41844436 -11.90869728 3.90869728 -9 1 C-5.93570224 -0.53214888 -3.3834358 -0.22938548 0 0 Z " fill="#F1911F" transform="translate(323,93)"/>
<path d="M0 0 C5.61 0 11.22 0 17 0 C17.66 2.5575 18.32 5.115 19 7.75 C19.20882813 8.54889648 19.41765625 9.34779297 19.6328125 10.17089844 C20.50066615 13.58893315 21 16.4518869 21 20 C17.52425536 20.5563939 14.45699647 20.74633807 11 20 C8.21663193 17.42523553 6.7028188 14.35510885 5 11 C4.0422671 9.35381719 3.08396455 7.70796563 2.125 6.0625 C0 2.27358491 0 2.27358491 0 0 Z " fill="#BF674F" transform="translate(411,443)"/>
<path d="M0 0 C5.61 0 11.22 0 17 0 C15.75826576 3.1043356 14.7118012 5.69290179 13.08984375 8.515625 C12.73986328 9.12664062 12.38988281 9.73765625 12.02929688 10.3671875 C11.66900391 10.98851562 11.30871094 11.60984375 10.9375 12.25 C10.57333984 12.88679688 10.20917969 13.52359375 9.83398438 14.1796875 C7.14074248 18.85925752 7.14074248 18.85925752 6 20 C4.31391034 20.07205511 2.62499341 20.08386068 0.9375 20.0625 C0.01839844 20.05347656 -0.90070313 20.04445313 -1.84765625 20.03515625 C-2.55792969 20.02355469 -3.26820312 20.01195312 -4 20 C-3.5636242 12.92770249 -2.21244055 6.73351473 0 0 Z " fill="#BF674F" transform="translate(84,443)"/>
<path d="M0 0 C0.87785156 0.00515625 1.75570312 0.0103125 2.66015625 0.015625 C3.53542969 0.01046875 4.41070312 0.0053125 5.3125 0 C7.72265625 0.265625 7.72265625 0.265625 10.72265625 2.265625 C11.03515625 5.265625 11.03515625 5.265625 10.72265625 8.265625 C8.02186872 10.96641253 6.48230453 10.56456858 2.72265625 10.578125 C1.65015625 10.59488281 0.57765625 10.61164063 -0.52734375 10.62890625 C-1.43484375 10.50902344 -2.34234375 10.38914062 -3.27734375 10.265625 C-5.27734375 7.265625 -5.27734375 7.265625 -5.02734375 4.703125 C-4.06763476 1.58407077 -3.32331625 0.38762522 0 0 Z " fill="#294869" transform="translate(80.27734375,282.734375)"/>
</svg>
