<svg version="1.1" id="Layer_1" xmlns="http://www.w3.org/2000/svg" xmlns:xlink="http://www.w3.org/1999/xlink" x="0px" y="0px"
	 width="100%" viewBox="0 0 496 496" enable-background="new 0 0 496 496" xml:space="preserve">
<path fill="#000000" opacity="1.000000" stroke="none" 
	d="
M243.450363,281.729767 
	C247.848694,284.688171 252.410110,284.707092 256.704712,283.176239 
	C261.226562,281.564423 261.212708,285.234528 262.518890,287.352173 
	C264.233276,290.131653 262.128204,291.181915 260.048096,292.144836 
	C249.224701,297.155212 235.419785,292.203339 230.202103,281.434967 
	C228.495605,277.913055 221.661209,275.775391 218.434387,277.754242 
	C216.848465,278.726807 217.135132,280.300079 217.160934,281.777161 
	C217.191986,283.553680 218.047455,284.595520 219.889450,284.639984 
	C221.721024,284.684204 223.558945,284.780090 225.384705,284.680969 
	C228.474884,284.513153 230.406433,285.154907 230.404419,288.967194 
	C230.402466,292.656036 228.739700,293.506256 225.511612,293.384583 
	C221.352585,293.227814 217.162415,293.095306 213.023270,293.424896 
	C208.292465,293.801605 206.109940,292.179688 206.775864,287.276642 
	C206.953140,285.971466 206.802673,284.621735 206.802673,281.598663 
	C200.285812,293.293396 190.410080,293.920074 180.003723,293.401825 
	C177.069656,293.255707 175.768066,292.206421 175.782074,289.242279 
	C175.831711,278.746552 175.783676,268.250397 175.791214,257.754425 
	C175.792572,255.860580 175.946259,254.252914 178.441666,253.706772 
	C189.590179,251.266891 199.566360,254.891846 206.173828,263.991882 
	C206.357361,263.773590 206.690613,263.560608 206.700195,263.333954 
	C207.108688,253.659897 207.105164,253.659073 216.905457,253.655899 
	C220.070908,253.654877 223.241241,253.768600 226.400421,253.628647 
	C229.523987,253.490295 230.422073,254.989212 230.360367,257.871033 
	C230.302719,260.564301 229.815308,262.452179 226.534561,262.302551 
	C224.210022,262.196503 221.872177,262.317383 219.542877,262.405792 
	C218.201706,262.456665 217.374985,263.215393 217.253311,264.577484 
	C217.135086,265.901062 216.958603,267.280914 218.257233,268.217285 
	C220.951233,270.159821 228.746490,268.208954 230.408112,265.185242 
	C236.158676,254.720673 248.480713,250.280197 259.603668,254.692688 
	C261.630157,255.496613 264.055420,256.272797 262.623566,259.238892 
	C261.441681,261.687225 261.243744,265.601044 256.584595,263.780640 
	C254.932983,263.135345 252.997849,263.052643 251.185516,263.012665 
	C246.050171,262.899323 242.011078,264.970764 240.014450,269.828400 
	C238.154495,274.353516 239.524841,278.296844 243.450363,281.729767 
M196.595657,277.942474 
	C199.242584,269.343994 194.659821,262.484039 186.526428,263.227448 
	C185.575180,268.094330 186.134445,273.070709 186.133423,278.002228 
	C186.132965,280.127563 184.808823,283.301758 187.651062,284.164459 
	C190.248352,284.952850 192.713074,283.081299 194.592819,281.074799 
	C195.263641,280.358704 195.731674,279.452637 196.595657,277.942474 
z"/>
<path fill="#000000" opacity="1.000000" stroke="none" 
	d="
M148.896378,209.972656 
	C154.068710,214.966522 159.074188,219.616333 163.847229,224.493622 
	C166.297302,226.997208 168.221970,226.808060 170.564377,224.466248 
	C175.391830,219.640060 180.431152,215.024063 185.208160,210.149933 
	C187.592865,207.716782 189.386841,207.678909 191.851440,210.107239 
	C202.050323,220.155991 212.405853,230.045593 222.668594,240.029922 
	C223.814911,241.145142 225.592422,242.250702 224.846634,244.160477 
	C224.032455,246.245316 221.867569,245.864822 220.082367,246.015442 
	C217.008575,246.274734 214.672745,244.909088 212.545776,242.828995 
	C205.760666,236.193436 198.793915,229.738632 192.149155,222.966904 
	C189.384338,220.149246 187.408600,220.115952 184.830200,223.012451 
	C182.400314,225.742081 179.720245,228.270691 176.981552,230.697372 
	C174.495285,232.900360 173.884048,234.865295 176.812256,237.143127 
	C177.855255,237.954498 178.747681,238.974991 179.636597,239.964905 
	C180.710968,241.161316 182.566757,242.155762 181.925522,244.066574 
	C181.194000,246.246368 179.005981,245.845108 177.231293,245.986618 
	C174.177032,246.230164 171.870209,244.923050 169.726532,242.789322 
	C163.354523,236.446854 156.838837,230.248810 150.387253,223.986130 
	C145.713470,219.449203 145.653534,219.485977 140.888474,224.206329 
	C134.620407,230.415680 128.223953,236.496338 122.003120,242.752090 
	C119.570930,245.197922 116.806007,246.245209 113.456505,245.924728 
	C111.982391,245.783676 110.264397,245.843353 109.550690,244.240051 
	C108.760887,242.465775 110.323608,241.566528 111.370613,240.543686 
	C119.588501,232.515396 127.809113,224.489914 136.025375,216.459961 
	C138.287796,214.248810 140.590256,212.075348 142.778946,209.793076 
	C144.767059,207.719955 146.652176,207.363190 148.896378,209.972656 
z"/>
<path fill="#000000" opacity="1.000000" stroke="none" 
	d="
M297.617706,285.300537 
	C288.172333,295.859894 275.481079,297.016205 266.011505,288.180237 
	C260.192017,282.750122 258.417358,272.238617 262.023956,264.561951 
	C265.539490,257.079132 274.633209,252.019470 282.542053,253.145859 
	C292.196167,254.520828 298.666595,260.638214 300.450470,269.374237 
	C301.514069,274.582672 300.381744,279.243713 298.201447,284.426941 
	C297.855347,285.063751 297.736511,285.182159 297.617706,285.300537 
M288.499725,267.109131 
	C284.417358,262.230347 279.898102,261.193024 275.531494,264.132446 
	C271.171173,267.067657 269.582703,274.343964 272.193726,279.421875 
	C274.419556,283.750702 279.412659,285.492950 284.142517,283.591156 
	C289.530273,281.424896 291.358948,275.252869 288.499725,267.109131 
z"/>
<path fill="#000000" opacity="1.000000" stroke="none" 
	d="
M227.977936,234.015503 
	C233.627594,229.107101 239.895752,226.207031 247.633850,227.686981 
	C249.802032,228.101669 250.963470,228.807480 250.359558,231.307556 
	C248.304581,239.814590 236.528137,245.779053 227.709457,242.468384 
	C230.139282,238.923355 234.727737,238.832626 238.019379,235.554306 
	C233.469971,236.109406 230.480682,239.387573 226.626053,240.019394 
	C225.398788,237.547287 227.420120,236.308731 227.895325,234.316498 
	C228.001221,233.990280 227.977936,234.015503 227.977936,234.015503 
z"/>
<path fill="#000000" opacity="1.000000" stroke="none" 
	d="
M133.713898,210.064072 
	C130.234283,208.456940 127.079506,206.981140 123.924736,205.505341 
	C123.754784,205.781601 123.584824,206.057861 123.414871,206.334122 
	C127.064362,208.400009 130.713867,210.465881 134.742798,212.746552 
	C124.913292,217.344238 112.759003,209.959900 111.820869,199.662491 
	C118.337868,195.225723 130.731979,199.356079 135.150925,207.143677 
	C135.862228,208.397217 137.544159,210.333466 133.713898,210.064072 
z"/>
<path fill="#000000" opacity="1.000000" stroke="none" 
	d="
M384.576965,301.478973 
	C381.240448,302.961090 380.304199,301.160797 380.273315,298.666016 
	C380.228271,295.031250 380.447906,291.392944 380.564209,287.756500 
	C380.601105,286.603241 380.493042,285.293335 381.943512,284.902618 
	C383.466797,284.492218 384.940277,284.676178 385.956573,286.079285 
	C387.296906,287.929718 388.587555,289.816193 389.965210,291.780762 
	C391.760803,290.458130 391.334381,288.698181 391.514130,287.169189 
	C391.659912,285.928894 391.818665,284.845306 393.406067,284.792084 
	C394.943115,284.740509 396.103271,285.308624 396.139038,286.949036 
	C396.232849,291.252075 396.217651,295.558197 396.187439,299.862671 
	C396.180206,300.886658 395.820862,301.864990 394.646271,302.122131 
	C393.091400,302.462524 391.683197,302.242828 390.674957,300.822540 
	C389.165741,298.696564 387.641174,296.581482 385.689240,293.855896 
	C385.361542,296.736938 385.109863,298.949402 384.576965,301.478973 
z"/>
<path fill="#000000" opacity="1.000000" stroke="none" 
	d="
M298.150787,284.766174 
	C300.847351,284.484161 302.527222,285.237396 302.397980,288.207916 
	C302.328156,289.811981 303.290009,290.599823 304.923798,290.597839 
	C306.664673,290.595703 307.243378,289.639801 307.227264,288.053833 
	C307.208740,286.231598 307.538361,284.620972 309.929047,284.834625 
	C312.328888,285.049042 312.168396,286.939117 312.197418,288.574066 
	C312.256531,291.903931 312.245514,295.235992 312.200012,298.566284 
	C312.177002,300.253113 312.154999,302.061707 309.779755,302.178589 
	C307.722168,302.279877 307.413971,300.757446 307.163635,299.217407 
	C306.877747,297.458466 307.082520,295.183960 304.346680,295.421204 
	C301.919617,295.631683 302.472046,297.759125 302.306061,299.317810 
	C302.159119,300.697632 302.056702,302.057587 300.217285,302.130676 
	C298.150543,302.212891 297.739075,300.811829 297.717682,299.182434 
	C297.660767,294.852600 297.648651,290.522186 297.618225,285.746277 
	C297.736511,285.182159 297.855347,285.063751 298.150787,284.766174 
z"/>
<path fill="#000000" opacity="1.000000" stroke="none" 
	d="
M328.429321,299.340485 
	C326.026001,298.999268 324.112061,298.951660 322.693085,300.894043 
	C321.544861,302.465820 320.005249,302.641418 317.974884,301.372528 
	C319.046295,296.081085 321.549988,291.211700 323.899323,286.379944 
	C325.165100,283.776703 328.030457,283.856934 329.343842,286.483368 
	C331.752594,291.300262 333.597015,296.399353 335.632141,301.274017 
	C331.987183,303.666168 330.678772,300.749542 328.429321,299.340485 
z"/>
<path fill="#000000" opacity="1.000000" stroke="none" 
	d="
M345.394409,287.503235 
	C346.292084,289.675873 347.059967,291.493469 347.844757,293.351135 
	C351.913605,291.765381 349.429047,283.299652 357.608398,285.399841 
	C355.238953,290.729889 353.187653,295.860229 350.679626,300.756653 
	C349.519470,303.021606 347.088562,302.954498 345.951263,300.718872 
	C343.500702,295.901489 341.499695,290.855408 339.190979,285.622498 
	C342.169098,284.268372 344.092651,284.318512 345.394409,287.503235 
z"/>
<path fill="#000000" opacity="1.000000" stroke="none" 
	d="
M362.772156,295.907410 
	C362.775269,294.098938 362.771484,292.771149 362.775085,291.443390 
	C362.793579,284.623535 363.803070,283.771118 370.679108,284.688873 
	C371.838226,284.843536 373.150085,284.781799 373.381683,286.294220 
	C373.623108,287.870758 372.797180,288.747253 371.236420,289.075562 
	C370.360413,289.259796 369.221954,288.648651 368.596832,289.876587 
	C369.615112,291.583588 373.059784,289.652649 373.053162,292.669464 
	C373.045929,295.952240 368.763184,293.950256 368.018738,296.481903 
	C368.153778,296.783630 368.206421,297.166382 368.425720,297.348724 
	C369.937103,298.605530 373.481232,297.164948 373.303925,300.397461 
	C373.135895,303.460663 370.253540,302.211700 368.535767,302.287903 
	C366.036987,302.398804 362.845886,303.110779 362.795624,298.877045 
	C362.785797,298.047394 362.777618,297.217773 362.772156,295.907410 
z"/>
<path fill="#000000" opacity="1.000000" stroke="none" 
	d="
M141.467468,238.416565 
	C139.327271,235.405701 140.074905,231.827713 140.792130,229.391281 
	C141.827560,225.873856 146.047455,228.606979 148.825989,227.951981 
	C150.968307,227.446945 151.324402,229.542358 151.272293,231.358963 
	C151.224899,233.010666 151.263855,234.664673 151.236526,236.317184 
	C151.209137,237.974411 149.928268,239.295135 148.767273,238.528854 
	C146.231110,236.854919 144.061111,239.542084 141.467468,238.416565 
z"/>
<path fill="#000000" opacity="1.000000" stroke="none" 
	d="
M228.010101,233.975235 
	C226.795334,234.701981 226.208511,236.423691 224.436325,236.316132 
	C223.341446,235.428131 223.981598,234.121964 223.606308,232.996613 
	C222.740082,233.911835 223.318054,235.707489 221.572220,236.023438 
	C220.241333,235.649185 220.115616,234.383041 219.953796,233.313522 
	C219.209671,228.395248 221.148987,224.748322 225.283478,221.933319 
	C229.124847,225.208771 228.324966,229.231247 228.017700,233.569794 
	C227.977936,234.015503 228.001221,233.990280 228.010101,233.975235 
z"/>
<path fill="#000000" opacity="1.000000" stroke="none" 
	d="
M141.339828,198.111267 
	C142.554794,201.387695 142.911346,204.216949 140.771194,206.896408 
	C138.936035,206.092911 139.225632,204.323853 138.422836,202.766037 
	C138.337463,204.409012 138.266876,205.767166 138.186340,207.316956 
	C132.881256,203.503784 132.362320,198.647751 136.463776,193.222153 
	C139.175568,193.514893 140.104660,195.721924 141.339828,198.111267 
z"/>
<path fill="#000000" opacity="1.000000" stroke="none" 
	d="
M193.733704,233.185181 
	C194.186203,235.512756 195.556107,237.955536 192.181580,238.599548 
	C189.754578,239.062744 188.643661,237.134003 189.337234,235.199356 
	C190.210938,232.762161 186.977188,228.350067 191.930740,228.023972 
	C195.203934,227.808502 194.286469,230.780930 193.733704,233.185181 
z"/>
<path fill="#000000" opacity="1.000000" stroke="none" 
	d="
M183.998474,232.322327 
	C183.275253,230.126999 183.003296,228.222992 185.658310,227.922256 
	C187.568512,227.705856 188.343948,228.992844 188.173080,230.733383 
	C187.911560,233.397003 186.228622,233.389465 183.998474,232.322327 
z"/>
<path fill="#000000" opacity="1.000000" stroke="none" 
	d="
M184.090179,237.934250 
	C183.158112,235.680786 183.169510,234.036530 185.843750,233.877228 
	C187.484451,233.779465 188.282562,234.747757 188.173538,236.285370 
	C187.984009,238.958374 186.281387,238.885483 184.090179,237.934250 
z"/>
</svg>