<?xml version="1.0" encoding="UTF-8"?>
<svg version="1.1" xmlns="http://www.w3.org/2000/svg" width="512" height="512">
<path d="M0 0 C1.1855541 -0.00442713 1.1855541 -0.00442713 2.39505878 -0.00894371 C5.0717235 -0.01767909 7.74834524 -0.01921936 10.42502308 -0.02082157 C12.35216796 -0.02554951 14.27931185 -0.03070001 16.20645458 -0.03623921 C21.52435585 -0.0501832 26.84225026 -0.05773958 32.16016519 -0.0642122 C36.71594165 -0.07057218 41.27170676 -0.0806438 45.82747617 -0.09077286 C60.83987025 -0.1241363 75.85227124 -0.14562515 90.86469027 -0.16397271 C94.77194239 -0.16876544 98.67919423 -0.17374903 102.58644605 -0.17877793 C126.83261699 -0.20974591 151.07878911 -0.2364452 175.32497406 -0.25319672 C180.94400189 -0.25713406 186.56302965 -0.26114588 192.18205738 -0.2652216 C192.88016268 -0.26572326 193.57826797 -0.26622493 194.29752797 -0.2667418 C216.93413397 -0.2831616 239.57063191 -0.32161988 262.20718475 -0.3725087 C286.13140226 -0.42619438 310.05554736 -0.45791249 333.97982627 -0.4653936 C347.02458154 -0.47006199 360.06915797 -0.48487749 373.11385632 -0.5251379 C384.22146036 -0.55937748 395.32885332 -0.57340182 406.43650713 -0.56071376 C412.10628044 -0.55487274 417.77560701 -0.55885254 423.44531345 -0.5888834 C428.63381898 -0.6161418 433.82155816 -0.61582574 439.01007996 -0.59337295 C440.889013 -0.59013666 442.76799641 -0.59709573 444.6468453 -0.61517017 C447.19878425 -0.63823523 449.74797206 -0.62438004 452.29985046 -0.60127258 C453.03172334 -0.61674882 453.76359622 -0.63222505 454.51764706 -0.64817026 C459.79137753 -0.54255092 462.39671576 1.18087849 466.09097545 4.63628119 C470.9208496 9.92318732 470.98869783 17.77061285 470.90202808 24.5773077 C470.89175587 25.82072933 470.89175587 25.82072933 470.88127613 27.08927059 C470.67872748 34.8202566 469.38151588 40.91576856 464.08952808 46.7648077 C461.46452808 48.1398077 461.46452808 48.1398077 455.46452808 48.1398077 C455.46452808 140.8698077 455.46452808 233.5998077 455.46452808 329.1398077 C457.11452808 329.4698077 458.76452808 329.7998077 460.46452808 330.1398077 C464.42452489 335.20941355 465.72382554 341.81416769 467.53606129 347.89493465 C468.14827243 349.93976354 468.77931656 351.97812288 469.41179371 354.01676083 C473.35348887 366.96266995 473.35348887 366.96266995 472.46452808 373.1398077 C468.62495586 375.69952251 465.45207242 375.44564135 460.99968433 375.44058895 C460.16996616 375.44487408 459.34024799 375.4491592 458.48538685 375.45357418 C456.73112875 375.45931524 454.97684685 375.45981939 453.22258472 375.45548153 C450.54044882 375.4523235 447.85941807 375.47577588 445.17741871 375.50113583 C443.47234197 375.50340906 441.76726228 375.5041122 440.06218433 375.50308895 C439.26103703 375.5122987 438.45988972 375.52150845 437.63446522 375.53099728 C434.35307394 375.50377431 431.87854501 375.35124437 428.93083668 373.84586239 C427.46452808 372.1398077 427.46452808 372.1398077 427.40593433 368.47965145 C428.47961584 361.79520554 430.6491637 355.33533962 432.70256519 348.8988409 C433.40713352 346.68627502 434.09580696 344.46918703 434.78288746 342.25113583 C435.22662253 340.84003689 435.67125151 339.42921867 436.11687183 338.01871395 C436.42478909 337.02660664 436.42478909 337.02660664 436.73892689 336.01445675 C437.66717774 333.13077374 438.29005293 331.31428286 440.46452808 329.1398077 C441.78452808 329.1398077 443.10452808 329.1398077 444.46452808 329.1398077 C444.46452808 236.4098077 444.46452808 143.6798077 444.46452808 48.1398077 C438.85452808 48.1398077 433.24452808 48.1398077 427.46452808 48.1398077 C427.46729346 50.15472852 427.46729346 50.15472852 427.47011471 52.2103548 C427.51339409 84.06931456 427.5463909 115.92826713 427.56665874 147.78724959 C427.56916027 151.70522474 427.57174891 155.62319983 427.57439137 159.54117489 C427.5751783 160.71121364 427.5751783 160.71121364 427.57598113 161.90488954 C427.58469296 174.54884052 427.60046719 187.19277338 427.61883368 199.8367136 C427.63751111 212.80248441 427.64864023 225.7682457 427.65270507 238.73402941 C427.65545462 246.74000353 427.66415087 254.74592646 427.68036102 262.75188483 C427.69214408 268.88220494 427.6934449 275.0124857 427.69074345 281.14281559 C427.69129613 283.66401835 427.69530677 286.18522295 427.70293903 288.70641422 C427.71281262 292.1345922 427.71052486 295.56254675 427.70503712 298.99072933 C427.71377564 300.50529707 427.71377564 300.50529707 427.7226907 302.05046213 C427.7187086 302.96361047 427.71472651 303.87675881 427.71062374 304.81757832 C427.71138318 305.60967492 427.71214262 306.40177153 427.71292508 307.21787107 C427.46452808 309.1398077 427.46452808 309.1398077 425.46452808 311.1398077 C422.71967216 311.28488465 420.07972265 311.32633193 417.33952808 311.2648077 C416.58542652 311.25578426 415.83132496 311.24676083 415.05437183 311.23746395 C413.19095554 311.2138764 411.32770216 311.17800489 409.46452808 311.1398077 C409.46729346 311.86887231 409.47005884 312.59793692 409.47290802 313.34909439 C409.53911344 331.07533007 409.58878211 348.80154113 409.6199646 366.52787399 C409.63544439 375.10014246 409.65655508 383.67232848 409.69084644 392.24454403 C409.72071485 399.71465076 409.74009499 407.1846978 409.74679357 414.65486258 C409.75071019 418.61158237 409.75993768 422.56813135 409.78171825 426.52479649 C409.80204312 430.247088 409.80837008 433.96913795 409.80385113 437.69147968 C409.80507319 439.71269844 409.82123621 441.73389073 409.83778858 443.75504208 C409.83366459 444.95397594 409.8295406 446.15290981 409.82529163 447.38817501 C409.82805701 448.43256646 409.83082239 449.47695791 409.83367157 450.55299759 C409.46452808 453.1398077 409.46452808 453.1398077 408.32010102 454.77771354 C405.65735655 456.73231668 403.69122952 456.51706629 400.40621758 456.52012444 C399.13127184 456.52856438 397.8563261 456.53700432 396.54274565 456.54570001 C395.11978579 456.53990419 393.69682707 456.53382313 392.27386951 456.52748775 C390.76857493 456.53165792 389.26328349 456.53713368 387.75799793 456.54380757 C383.61086181 456.55832271 379.46392338 456.55399864 375.31677616 456.54664075 C370.84838874 456.54192631 366.38004517 456.5544036 361.91167164 456.56465816 C353.15362382 456.58188547 344.39564762 456.58267805 335.63758726 456.57744526 C328.52145674 456.57340962 321.40534745 456.57483989 314.28921795 456.58019352 C313.27777246 456.58094194 312.26632697 456.58169036 311.22423161 456.58246147 C309.16971413 456.58399289 307.11519666 456.58553123 305.06067919 456.58707643 C285.77831609 456.6008157 266.49599351 456.59535377 247.21363132 456.58389122 C229.55963351 456.57395732 211.90574047 456.5868997 194.25175882 456.61082541 C176.13979485 456.63518753 158.02787973 456.6448314 139.91589969 456.63817269 C129.7413236 456.63467403 119.56682812 456.63695499 109.39226437 456.65442371 C100.73080292 456.66910965 92.06947885 456.66982857 83.40802021 456.6523528 C78.98626091 456.64381054 74.5647474 456.64177141 70.1430006 456.65700436 C66.09834154 456.67076607 62.0541408 456.66619924 58.00950884 456.64676512 C56.54318581 456.64297842 55.0768268 456.64600323 53.61053557 456.65637677 C51.62328608 456.6694406 49.63591353 456.65564508 47.64867973 456.64037895 C46.54304147 456.64027162 45.4374032 456.64016428 44.29826075 456.64005369 C40.7925368 456.02117938 39.61097148 454.92963076 37.46452808 452.1398077 C36.97233677 449.44556713 36.97233677 449.44556713 36.98351002 446.30588436 C36.97801136 445.11398998 36.9725127 443.9220956 36.96684742 442.69408321 C36.98122852 441.39001019 36.99560963 440.08593716 37.01042652 438.74234676 C37.01155505 437.35261219 37.01092104 435.96287524 37.0086565 434.57314205 C37.00750859 430.80262901 37.03102978 427.03262471 37.05895233 423.26222992 C37.08395345 419.32111914 37.08630696 415.37999677 37.09105396 411.43881893 C37.10348757 403.97669532 37.13631426 396.51480605 37.17645192 389.05278563 C37.22115775 380.5571198 37.24315366 372.06144279 37.26323366 363.56568861 C37.30504666 346.09025941 37.37540606 328.61505833 37.46452808 311.1398077 C36.41652027 311.18621395 35.36851246 311.2326202 34.28874683 311.2804327 C32.90986908 311.31795318 31.53096051 311.35435306 30.15202808 311.3898077 C29.46173512 311.42332333 28.77144215 311.45683895 28.06023121 311.4913702 C26.03874683 311.5304327 26.03874683 311.5304327 22.46452808 311.1398077 C19.77157266 308.38266306 19.08986599 306.40687851 19.0953846 302.6027174 C19.08941145 301.69255375 19.08343831 300.7823901 19.07728416 299.84464574 C19.09039194 298.35048937 19.09039194 298.35048937 19.10376453 296.82614803 C19.10120126 295.76509027 19.09863798 294.70403251 19.09599704 293.61082149 C19.09104284 290.04383316 19.10757946 286.47726506 19.12395191 282.91031551 C19.12479783 280.35803392 19.12432374 277.80575159 19.1226244 275.25347042 C19.12194052 269.75264007 19.13046751 264.25194583 19.14733791 258.75114346 C19.17171375 250.79792707 19.17953173 242.8447623 19.18330189 234.8915126 C19.1898686 221.98808302 19.20983571 209.08471031 19.23820972 196.18131161 C19.26574461 183.64648377 19.28698098 171.11167139 19.29973316 158.57681942 C19.30052133 157.80423846 19.3013095 157.0316575 19.30212156 156.23566499 C19.30603666 152.35987317 19.30982778 148.48408124 19.31355727 144.60828924 C19.34466002 112.45208739 19.39750179 80.29595544 19.46452808 48.1398077 C18.64250904 48.16075497 17.82049 48.18170223 16.97356129 48.20328426 C13.24150845 48.28654079 9.50965115 48.33850017 5.77702808 48.3898077 C4.48345387 48.42332333 3.18987965 48.45683895 1.85710621 48.4913702 C0.60993824 48.50426083 -0.63722973 48.51715145 -1.92219067 48.5304327 C-3.06905346 48.55137997 -4.21591625 48.57232723 -5.39753246 48.59390926 C-9.19967048 48.04368934 -10.79982683 46.77581823 -13.53547192 44.1398077 C-17.86935063 38.17917222 -17.91786369 31.09978061 -17.97297192 24.0148077 C-17.98304272 23.16789364 -17.99311352 22.32097958 -18.00348949 21.44840145 C-17.90653028 14.39582231 -16.74005493 8.66701262 -11.97297192 3.2023077 C-7.98757819 -0.16994853 -5.02709574 -0.00616526 0 0 Z " fill="#294369" transform="translate(28.53547191619873,27.86019229888916)"/>
<path d="M0 0 C127.71 0 255.42 0 387 0 C387 64.68 387 129.36 387 196 C259.29 196 131.58 196 0 196 C0 131.32 0 66.64 0 0 Z " fill="#2995EE" transform="translate(59,133)"/>
<path d="M0 0 C127.71 0 255.42 0 387 0 C387 15.51 387 31.02 387 47 C259.29 47 131.58 47 0 47 C0 31.49 0 15.98 0 0 Z " fill="#53ABFB" transform="translate(59,76)"/>
<path d="M0 0 C42.24 0 84.48 0 128 0 C128 35.64 128 71.28 128 108 C85.76 108 43.52 108 0 108 C0 72.36 0 36.72 0 0 Z " fill="#ACEEE4" transform="translate(271,339)"/>
<path d="M0 0 C42.24 0 84.48 0 128 0 C128 35.64 128 71.28 128 108 C85.76 108 43.52 108 0 108 C0 72.36 0 36.72 0 0 Z " fill="#ABEEE3" transform="translate(105,339)"/>
<path d="M0 0 C6.27 0 12.54 0 19 0 C19.33 38.61 19.66 77.22 20 117 C45.36718127 117.05823648 45.36718127 117.05823648 70.734375 117.09765625 C81.07391333 117.10953935 91.41341915 117.12353466 101.75292969 117.15087891 C109.28199017 117.17078108 116.81102437 117.18370888 124.34011042 117.18817699 C128.32861435 117.19078977 132.31704305 117.19695233 136.30552292 117.21146011 C140.05650282 117.22499399 143.80737622 117.2292312 147.55837822 117.22621536 C148.93789307 117.22676741 150.31741134 117.23076981 151.69690514 117.23841095 C153.5747968 117.24830605 155.4527451 117.24479022 157.33065796 117.24050903 C158.38334555 117.24235262 159.43603313 117.24419621 160.52062035 117.24609566 C163.17546589 117.24707215 163.17546589 117.24707215 165 115 C165.31379945 112.8771133 165.31379945 112.8771133 165.2784729 110.39364624 C165.28963638 109.4232692 165.30079987 108.45289215 165.31230164 107.45310974 C165.31554192 105.85089317 165.31554192 105.85089317 165.31884766 104.21630859 C165.32889328 103.09435593 165.3389389 101.97240326 165.34928894 100.81645203 C165.3802745 97.09378592 165.39719879 93.37119221 165.4140625 89.6484375 C165.43276177 87.07296112 165.45233423 84.49749095 165.4727478 81.92202759 C165.51894144 75.82703262 165.55630246 69.73204165 165.58942068 63.63696349 C165.62761083 56.69865983 165.67702906 49.7604505 165.72740483 42.82222629 C165.83079059 28.54822089 165.91963101 14.2741523 166 0 C171.94 0 177.88 0 184 0 C184.00808685 1.42153885 184.01617371 2.8430777 184.02450562 4.30769348 C184.10188459 17.68381611 184.18948444 31.05983877 184.28752708 44.4358263 C184.33767218 51.31307051 184.38411481 58.19030268 184.421875 65.06762695 C184.45830448 71.70070213 184.50500716 78.33365299 184.55806351 84.96661949 C184.57664119 87.50121473 184.59173657 90.03583788 184.60334396 92.57047462 C184.62014861 96.11197957 184.64916989 99.65318432 184.68115234 103.19458008 C184.68331253 104.24977844 184.68547272 105.30497681 184.68769836 106.39215088 C184.69886185 107.35548843 184.71002533 108.31882599 184.7215271 109.31135559 C184.72705786 110.14926541 184.73258862 110.98717524 184.73828697 111.85047626 C184.87243762 114.29623347 184.87243762 114.29623347 187 117 C189.56435632 117.45415975 189.56435632 117.45415975 192.61791992 117.3742218 C193.81258881 117.38123611 195.00725769 117.38825043 196.23812866 117.39547729 C197.55560089 117.38783356 198.87307312 117.38018982 200.23046875 117.37231445 C201.62651847 117.37474138 203.02256645 117.37845974 204.41860962 117.38337708 C208.21611736 117.39280337 212.01336815 117.38334625 215.81085587 117.37004495 C219.7790965 117.35875172 223.74732409 117.3628363 227.71557617 117.36479187 C234.38041395 117.36567552 241.04515014 117.35457963 247.70996094 117.33618164 C255.42281431 117.31501289 263.13551881 117.3115037 270.84839535 117.3177436 C278.25837615 117.32343224 285.66830437 117.31779751 293.07827759 117.30657005 C296.23614471 117.30191742 299.39397974 117.30105308 302.55184937 117.3031559 C306.26841734 117.30503533 309.98483315 117.29696172 313.70136642 117.2810955 C315.72152497 117.27480763 317.74170657 117.27836674 319.76187134 117.28216553 C321.55387466 117.27153831 321.55387466 117.27153831 323.38208008 117.26069641 C324.42479568 117.25864354 325.46751129 117.25659067 326.54182434 117.25447559 C329.17765169 117.24270558 329.17765169 117.24270558 331 115 C331.31379945 112.8771133 331.31379945 112.8771133 331.2784729 110.39364624 C331.28963638 109.4232692 331.30079987 108.45289215 331.31230164 107.45310974 C331.31554192 105.85089317 331.31554192 105.85089317 331.31884766 104.21630859 C331.32889328 103.09435593 331.3389389 101.97240326 331.34928894 100.81645203 C331.3802745 97.09378592 331.39719879 93.37119221 331.4140625 89.6484375 C331.43276177 87.07296112 331.45233423 84.49749095 331.4727478 81.92202759 C331.51894144 75.82703262 331.55630246 69.73204165 331.58942068 63.63696349 C331.62761083 56.69865983 331.67702906 49.7604505 331.72740483 42.82222629 C331.83079059 28.54822089 331.91963101 14.2741523 332 0 C338.27 0 344.54 0 351 0 C351 44.22 351 88.44 351 134 C235.17 134 119.34 134 0 134 C0 89.78 0 45.56 0 0 Z " fill="#C0674F" transform="translate(77,339)"/>
<path d="M0 0 C148.83 0 297.66 0 451 0 C450.67 1.65 450.34 3.3 450 5 C449.90738801 7.45694158 449.87001282 9.91631864 449.875 12.375 C449.87113281 14.27378906 449.87113281 14.27378906 449.8671875 16.2109375 C449.95191939 20.55224066 449.95191939 20.55224066 451 27 C302.17 27 153.34 27 0 27 C-3.41527446 17.89260143 -3.41527446 17.89260143 -3.375 12.375 C-3.38273437 11.31023438 -3.39046875 10.24546875 -3.3984375 9.1484375 C-3 6 -3 6 0 0 Z " fill="#77C4FE" transform="translate(24,39)"/>
<path d="M0 0 C127.71 0 255.42 0 387 0 C387 64.68 387 129.36 387 196 C386.67 196 386.34 196 386 196 C386 131.65 386 67.3 386 1 C270.17 1 154.34 1 35 1 C35 65.35 35 129.7 35 196 C23.45 196 11.9 196 0 196 C0 131.32 0 66.64 0 0 Z " fill="#1B80C5" transform="translate(59,133)"/>
<path d="M0 0 C11.55 0 23.1 0 35 0 C35 35.31 35 70.62 35 107 C23.45 107 11.9 107 0 107 C0 71.69 0 36.38 0 0 Z " fill="#CCF6EE" transform="translate(106,339)"/>
<path d="M0 0 C11.22 0 22.44 0 34 0 C34 35.31 34 70.62 34 107 C22.78 107 11.56 107 0 107 C0 71.69 0 36.38 0 0 Z " fill="#CDF7EF" transform="translate(272,339)"/>
<path d="M0 0 C11.55 0 23.1 0 35 0 C35 15.51 35 31.02 35 47 C23.45 47 11.9 47 0 47 C0 31.49 0 15.98 0 0 Z " fill="#3C9DE5" transform="translate(59,76)"/>
<path d="M0 0 C11.22 0 22.44 0 34 0 C33.67 1.65 33.34 3.3 33 5 C32.907959 7.29019665 32.8699846 9.58296006 32.875 11.875 C32.87242188 13.04804687 32.86984375 14.22109375 32.8671875 15.4296875 C32.95959801 19.58821781 32.95959801 19.58821781 34 26 C171.28 26 308.56 26 450 26 C450.33 25.34 450.66 24.68 451 24 C451 24.99 451 25.98 451 27 C302.17 27 153.34 27 0 27 C-3.41527446 17.89260143 -3.41527446 17.89260143 -3.375 12.375 C-3.38273437 11.31023438 -3.39046875 10.24546875 -3.3984375 9.1484375 C-3 6 -3 6 0 0 Z " fill="#52AFEC" transform="translate(24,39)"/>
<path d="M0 0 C3 0.25 3 0.25 5 2.25 C5.26069641 5.20372009 5.26069641 5.20372009 5.2746582 9.03881836 C5.27976913 9.73654861 5.28488007 10.43427887 5.29014587 11.15315247 C5.30407492 13.46546954 5.30308263 15.77748965 5.30078125 18.08984375 C5.30466648 19.69405733 5.30900079 21.29826988 5.31376648 22.90248108 C5.32123589 26.26762219 5.32093232 29.63265841 5.31567383 32.99780273 C5.30987934 37.31347766 5.32680591 41.62872341 5.3500185 45.94432735 C5.36474004 49.25829078 5.3656297 52.57215049 5.36250877 55.88614082 C5.36302282 57.4773805 5.36827621 59.06862585 5.37832069 60.65983391 C5.39063713 62.88410308 5.38392305 65.10753171 5.37231445 67.33178711 C5.37294388 68.59816513 5.3735733 69.86454315 5.3742218 71.16929626 C5 74.25 5 74.25 3.67204285 76.19410706 C2 77.25 2 77.25 -1.125 77.0625 C-2.07375 76.794375 -3.0225 76.52625 -4 76.25 C-5.46592836 73.31814327 -5.13542754 70.71886155 -5.14526367 67.4453125 C-5.14862228 66.74597595 -5.1519809 66.0466394 -5.15544128 65.32611084 C-5.16495847 63.00905595 -5.16689465 60.69207323 -5.16796875 58.375 C-5.17118034 56.76839162 -5.17454433 55.16178354 -5.17805481 53.55517578 C-5.18404768 50.18586549 -5.1858945 46.81658087 -5.18530273 43.44726562 C-5.185201 39.1226233 -5.19886435 34.79814473 -5.21607494 30.47354126 C-5.22717314 27.15534707 -5.22922263 23.83719278 -5.22869301 20.51898193 C-5.229876 18.92412755 -5.23431551 17.32927222 -5.24202538 15.73443604 C-5.25178333 13.50773511 -5.24896431 11.28139377 -5.24291992 9.0546875 C-5.24434494 7.78608887 -5.24576996 6.51749023 -5.24723816 5.21044922 C-4.90421621 1.10307731 -4.10211262 0.34184272 0 0 Z " fill="#274369" transform="translate(76,239.75)"/>
<path d="M0 0 C1.4540625 0.0309375 1.4540625 0.0309375 2.9375 0.0625 C4.11122973 3.66440542 5.27526256 7.26937151 6.4375 10.875 C6.77136719 11.89916016 7.10523438 12.92332031 7.44921875 13.97851562 C7.76503906 14.96142578 8.08085937 15.94433594 8.40625 16.95703125 C8.69951172 17.86300049 8.99277344 18.76896973 9.29492188 19.70239258 C9.9375 22.0625 9.9375 22.0625 9.9375 25.0625 C3.3375 25.0625 -3.2625 25.0625 -10.0625 25.0625 C-6.07232801 0.12392506 -6.07232801 0.12392506 0 0 Z " fill="#D1F834" transform="translate(479.0625,366.9375)"/>
<path d="M0 0 C3 0.25 3 0.25 5 2.25 C5.30078125 4.74609375 5.30078125 4.74609375 5.3125 7.6875 C5.33763672 9.13962891 5.33763672 9.13962891 5.36328125 10.62109375 C5 13.25 5 13.25 3.67578125 15.109375 C2 16.25 2 16.25 -1.125 16.0625 C-2.07375 15.794375 -3.0225 15.52625 -4 15.25 C-5.30089831 12.64820337 -5.16840078 10.6530812 -5.1875 7.75 C-5.20167969 6.7703125 -5.21585937 5.790625 -5.23046875 4.78125 C-4.8789721 0.92074444 -3.78818813 0.31568234 0 0 Z " fill="#27446B" transform="translate(76,213.75)"/>
<path d="M0 0 C0.66 0 1.32 0 2 0 C5.35802471 7.76543213 4.7848669 16.16756183 2 24 C1.34 24 0.68 24 0 24 C-1.96157384 19.89003576 -2.2695411 16.53353543 -2.25 12 C-2.25773437 10.205625 -2.25773437 10.205625 -2.265625 8.375 C-2.01117201 5.14195026 -1.38687122 2.90582541 0 0 Z " fill="#288EE3" transform="translate(485,40)"/>
</svg>
